<svg width="204" height="323" viewBox="0 0 204 323" fill="none" xmlns="http://www.w3.org/2000/svg">
<path d="M3.984 13.4H11.76V47H3.984V13.4ZM34.902 20.792C38.102 20.792 40.678 21.752 42.63 23.672C44.614 25.592 45.606 28.44 45.606 32.216V47H38.118V33.368C38.118 31.32 37.67 29.8 36.774 28.808C35.878 27.784 34.582 27.272 32.886 27.272C30.998 27.272 29.494 27.864 28.374 29.048C27.254 30.2 26.694 31.928 26.694 34.232V47H19.206V21.176H26.358V24.2C27.35 23.112 28.582 22.28 30.054 21.704C31.526 21.096 33.142 20.792 34.902 20.792ZM69.0495 45.752C68.3135 46.296 67.4015 46.712 66.3135 47C65.2575 47.256 64.1375 47.384 62.9535 47.384C59.8815 47.384 57.4975 46.6 55.8015 45.032C54.1375 43.464 53.3055 41.16 53.3055 38.12V27.512H49.3215V21.752H53.3055V15.464H60.7935V21.752H67.2255V27.512H60.7935V38.024C60.7935 39.112 61.0655 39.96 61.6095 40.568C62.1855 41.144 62.9855 41.432 64.0095 41.432C65.1935 41.432 66.2015 41.112 67.0335 40.472L69.0495 45.752ZM97.752 34.184C97.752 34.28 97.704 34.952 97.608 36.2H78.072C78.424 37.8 79.256 39.064 80.568 39.992C81.88 40.92 83.512 41.384 85.464 41.384C86.808 41.384 87.992 41.192 89.016 40.808C90.072 40.392 91.048 39.752 91.944 38.888L95.928 43.208C93.496 45.992 89.944 47.384 85.272 47.384C82.36 47.384 79.784 46.824 77.544 45.704C75.304 44.552 73.576 42.968 72.36 40.952C71.144 38.936 70.536 36.648 70.536 34.088C70.536 31.56 71.128 29.288 72.312 27.272C73.528 25.224 75.176 23.64 77.256 22.52C79.368 21.368 81.72 20.792 84.312 20.792C86.84 20.792 89.128 21.336 91.176 22.424C93.224 23.512 94.824 25.08 95.976 27.128C97.16 29.144 97.752 31.496 97.752 34.184ZM84.36 26.456C82.664 26.456 81.24 26.936 80.088 27.896C78.936 28.856 78.232 30.168 77.976 31.832H90.696C90.44 30.2 89.736 28.904 88.584 27.944C87.432 26.952 86.024 26.456 84.36 26.456ZM109.889 24.584C110.785 23.336 111.985 22.392 113.489 21.752C115.025 21.112 116.785 20.792 118.769 20.792V27.704C117.937 27.64 117.377 27.608 117.089 27.608C114.945 27.608 113.265 28.216 112.049 29.432C110.833 30.616 110.225 32.408 110.225 34.808V47H102.737V21.176H109.889V24.584ZM143.909 39.8H128.309L125.333 47H117.365L132.341 13.4H140.021L155.045 47H146.885L143.909 39.8ZM141.461 33.896L136.133 21.032L130.805 33.896H141.461ZM170.249 47.384C167.497 47.384 165.017 46.824 162.809 45.704C160.633 44.552 158.921 42.968 157.673 40.952C156.457 38.936 155.849 36.648 155.849 34.088C155.849 31.528 156.457 29.24 157.673 27.224C158.921 25.208 160.633 23.64 162.809 22.52C165.017 21.368 167.497 20.792 170.249 20.792C172.969 20.792 175.337 21.368 177.353 22.52C179.401 23.64 180.889 25.256 181.817 27.368L176.009 30.488C174.665 28.12 172.729 26.936 170.201 26.936C168.249 26.936 166.633 27.576 165.353 28.856C164.073 30.136 163.433 31.88 163.433 34.088C163.433 36.296 164.073 38.04 165.353 39.32C166.633 40.6 168.249 41.24 170.201 41.24C172.761 41.24 174.697 40.056 176.009 37.688L181.817 40.856C180.889 42.904 179.401 44.504 177.353 45.656C175.337 46.808 172.969 47.384 170.249 47.384ZM203.159 45.752C202.423 46.296 201.511 46.712 200.423 47C199.367 47.256 198.247 47.384 197.063 47.384C193.991 47.384 191.607 46.6 189.911 45.032C188.247 43.464 187.415 41.16 187.415 38.12V27.512H183.431V21.752H187.415V15.464H194.903V21.752H201.335V27.512H194.903V38.024C194.903 39.112 195.175 39.96 195.719 40.568C196.295 41.144 197.095 41.432 198.119 41.432C199.303 41.432 200.311 41.112 201.143 40.472L203.159 45.752Z" fill="black"/>
<g opacity="0.5" filter="url(#filter0_f)">
<ellipse cx="101.217" cy="274.484" rx="43.9421" ry="30.8614" fill="#141414"/>
</g>
<circle cx="59.5" cy="128.5" r="1.5" fill="#333333"/>
<path fill-rule="evenodd" clip-rule="evenodd" d="M102.844 121.977C117.226 121.977 128.884 110.342 128.884 95.9885C128.884 81.6355 117.226 70 102.844 70C88.4629 70 76.8045 81.6355 76.8045 95.9885C76.8045 110.342 88.4629 121.977 102.844 121.977ZM162 133.63C168.264 142.474 161.374 157.698 148.725 170.645L148.92 170.706L101.339 251.354L55.4119 171.988C41.8388 158.765 34.2232 142.782 40.9998 133.63C48.0035 128.058 53.5188 131.835 61.4908 137.294C70.1913 143.252 81.8182 151.214 101.5 151.214C123.862 151.214 135.248 142.479 143.299 136.302C150.38 130.869 154.88 127.416 162 133.63Z" fill="url(#paint0_linear)"/>
<defs>
<filter id="filter0_f" x="47.2744" y="233.623" width="107.884" height="81.7227" filterUnits="userSpaceOnUse" color-interpolation-filters="sRGB">
<feFlood flood-opacity="0" result="BackgroundImageFix"/>
<feBlend mode="normal" in="SourceGraphic" in2="BackgroundImageFix" result="shape"/>
<feGaussianBlur stdDeviation="5" result="effect1_foregroundBlur"/>
</filter>
<linearGradient id="paint0_linear" x1="102.814" y1="92.7399" x2="102.814" y2="282.781" gradientUnits="userSpaceOnUse">
<stop stop-color="#04AE7E"/>
<stop offset="0.172393" stop-color="#00C48C"/>
<stop offset="0.506156" stop-color="#141414"/>
<stop offset="1" stop-color="#141414"/>
</linearGradient>
</defs>
</svg>
