<svg width="143" height="61" viewBox="0 0 143 61" fill="none" xmlns="http://www.w3.org/2000/svg">
<g opacity="0.5" filter="url(#filter0_f)">
<ellipse cx="15.4325" cy="49.0088" rx="10.5316" ry="7.39653" fill="#141414"/>
</g>
<circle cx="5.43372" cy="14.0206" r="0.359504" fill="#333333"/>
<path fill-rule="evenodd" clip-rule="evenodd" d="M15.8224 12.4573C19.2691 12.4573 22.0633 9.66864 22.0633 6.22865C22.0633 2.78866 19.2691 0 15.8224 0C12.3756 0 9.58144 2.78866 9.58144 6.22865C9.58144 9.66864 12.3756 12.4573 15.8224 12.4573ZM30.0001 15.2501C31.5014 17.3699 29.85 21.0185 26.8185 24.1217L26.8652 24.136L15.4615 43.465L4.45405 24.4432C1.2011 21.274 -0.624039 17.4436 1.00008 15.2501C2.67864 13.9147 4.00049 14.8199 5.91114 16.1283C7.9964 17.5563 10.783 19.4646 15.5001 19.4646C20.8596 19.4646 23.5885 17.3709 25.518 15.8906C27.2151 14.5885 28.2938 13.761 30.0001 15.2501Z" fill="url(#paint0_linear)"/>
<path d="M39.992 22.0184H43.88V38.8184H39.992V22.0184ZM55.825 25.7144C57.425 25.7144 58.713 26.1944 59.689 27.1544C60.681 28.1144 61.177 29.5384 61.177 31.4264V38.8184H57.433V32.0024C57.433 30.9784 57.209 30.2184 56.761 29.7224C56.313 29.2104 55.665 28.9544 54.817 28.9544C53.873 28.9544 53.121 29.2504 52.561 29.8424C52.001 30.4184 51.721 31.2824 51.721 32.4344V38.8184H47.977V25.9064H51.553V27.4184C52.049 26.8744 52.665 26.4584 53.401 26.1704C54.137 25.8664 54.945 25.7144 55.825 25.7144ZM73.2727 38.1944C72.9047 38.4664 72.4487 38.6744 71.9047 38.8184C71.3767 38.9464 70.8167 39.0104 70.2247 39.0104C68.6887 39.0104 67.4967 38.6184 66.6487 37.8344C65.8167 37.0504 65.4007 35.8984 65.4007 34.3784V29.0744H63.4087V26.1944H65.4007V23.0504H69.1447V26.1944H72.3607V29.0744H69.1447V34.3304C69.1447 34.8744 69.2807 35.2984 69.5527 35.6024C69.8407 35.8904 70.2407 36.0344 70.7527 36.0344C71.3447 36.0344 71.8487 35.8744 72.2647 35.5544L73.2727 38.1944ZM87.998 32.4104C87.998 32.4584 87.974 32.7944 87.926 33.4184H78.158C78.334 34.2184 78.75 34.8504 79.406 35.3144C80.062 35.7784 80.878 36.0104 81.854 36.0104C82.526 36.0104 83.118 35.9144 83.63 35.7224C84.158 35.5144 84.646 35.1944 85.094 34.7624L87.086 36.9224C85.87 38.3144 84.094 39.0104 81.758 39.0104C80.302 39.0104 79.014 38.7304 77.894 38.1704C76.774 37.5944 75.91 36.8024 75.302 35.7944C74.694 34.7864 74.39 33.6424 74.39 32.3624C74.39 31.0984 74.686 29.9624 75.278 28.9544C75.886 27.9304 76.71 27.1384 77.75 26.5784C78.806 26.0024 79.982 25.7144 81.278 25.7144C82.542 25.7144 83.686 25.9864 84.71 26.5304C85.734 27.0744 86.534 27.8584 87.11 28.8824C87.702 29.8904 87.998 31.0664 87.998 32.4104ZM81.302 28.5464C80.454 28.5464 79.742 28.7864 79.166 29.2664C78.59 29.7464 78.238 30.4024 78.11 31.2344H84.47C84.342 30.4184 83.99 29.7704 83.414 29.2904C82.838 28.7944 82.134 28.5464 81.302 28.5464ZM94.4406 27.6104C94.8886 26.9864 95.4886 26.5144 96.2406 26.1944C97.0086 25.8744 97.8886 25.7144 98.8806 25.7144V29.1704C98.4646 29.1384 98.1846 29.1224 98.0406 29.1224C96.9686 29.1224 96.1286 29.4264 95.5206 30.0344C94.9126 30.6264 94.6086 31.5224 94.6086 32.7224V38.8184H90.8646V25.9064H94.4406V27.6104ZM111.824 35.2184H104.024L102.536 38.8184H98.5524L106.04 22.0184H109.88L117.392 38.8184H113.312L111.824 35.2184ZM110.6 32.2664L107.936 25.8344L105.272 32.2664H110.6ZM125.368 39.0104C123.992 39.0104 122.752 38.7304 121.648 38.1704C120.56 37.5944 119.704 36.8024 119.08 35.7944C118.472 34.7864 118.168 33.6424 118.168 32.3624C118.168 31.0824 118.472 29.9384 119.08 28.9304C119.704 27.9224 120.56 27.1384 121.648 26.5784C122.752 26.0024 123.992 25.7144 125.368 25.7144C126.728 25.7144 127.912 26.0024 128.92 26.5784C129.944 27.1384 130.688 27.9464 131.152 29.0024L128.248 30.5624C127.576 29.3784 126.608 28.7864 125.344 28.7864C124.368 28.7864 123.56 29.1064 122.92 29.7464C122.28 30.3864 121.96 31.2584 121.96 32.3624C121.96 33.4664 122.28 34.3384 122.92 34.9784C123.56 35.6184 124.368 35.9384 125.344 35.9384C126.624 35.9384 127.592 35.3464 128.248 34.1624L131.152 35.7464C130.688 36.7704 129.944 37.5704 128.92 38.1464C127.912 38.7224 126.728 39.0104 125.368 39.0104ZM142.197 38.1944C141.829 38.4664 141.373 38.6744 140.829 38.8184C140.301 38.9464 139.741 39.0104 139.149 39.0104C137.613 39.0104 136.421 38.6184 135.573 37.8344C134.741 37.0504 134.325 35.8984 134.325 34.3784V29.0744H132.333V26.1944H134.325V23.0504H138.069V26.1944H141.285V29.0744H138.069V34.3304C138.069 34.8744 138.205 35.2984 138.477 35.6024C138.765 35.8904 139.165 36.0344 139.677 36.0344C140.269 36.0344 140.773 35.8744 141.189 35.5544L142.197 38.1944Z" fill="black"/>
<defs>
<filter id="filter0_f" x="2.50418" y="39.2156" width="25.8565" height="19.5864" filterUnits="userSpaceOnUse" color-interpolation-filters="sRGB">
<feFlood flood-opacity="0" result="BackgroundImageFix"/>
<feBlend mode="normal" in="SourceGraphic" in2="BackgroundImageFix" result="shape"/>
<feGaussianBlur stdDeviation="1.19835" result="effect1_foregroundBlur"/>
</filter>
<linearGradient id="paint0_linear" x1="15.8152" y1="5.45007" x2="15.8152" y2="50.9971" gradientUnits="userSpaceOnUse">
<stop stop-color="#04AE7E"/>
<stop offset="0.172393" stop-color="#00C48C"/>
<stop offset="0.506156" stop-color="#141414"/>
<stop offset="1" stop-color="#141414"/>
</linearGradient>
</defs>
</svg>
