<?xml version="1.0" encoding="UTF-8" standalone="no"?>
<!-- Created with Inkscape (http://www.inkscape.org/) -->

<svg
   xmlns:dc="http://purl.org/dc/elements/1.1/"
   xmlns:cc="http://creativecommons.org/ns#"
   xmlns:rdf="http://www.w3.org/1999/02/22-rdf-syntax-ns#"
   xmlns:svg="http://www.w3.org/2000/svg"
   xmlns="http://www.w3.org/2000/svg"
   xmlns:sodipodi="http://sodipodi.sourceforge.net/DTD/sodipodi-0.dtd"
   xmlns:inkscape="http://www.inkscape.org/namespaces/inkscape"
   version="1.1"
   id="svg4643"
   xml:space="preserve"
   width="800"
   height="800"
   viewBox="0 0 800 800"
   sodipodi:docname="pins-location-gradient-color.svg"
   inkscape:version="0.92.4 (5da689c313, 2019-01-14)"><metadata
     id="metadata4649"><rdf:RDF><cc:Work
         rdf:about=""><dc:format>image/svg+xml</dc:format><dc:type
           rdf:resource="http://purl.org/dc/dcmitype/StillImage" /><dc:title></dc:title></cc:Work></rdf:RDF></metadata><defs
     id="defs4647"><clipPath
       clipPathUnits="userSpaceOnUse"
       id="clipPath4659"><path
         d="M 0,600 H 600 V 0 H 0 Z"
         id="path4657"
         inkscape:connector-curvature="0" /></clipPath><linearGradient
       x1="0"
       y1="0"
       x2="1"
       y2="0"
       gradientUnits="userSpaceOnUse"
       gradientTransform="matrix(-1.53e-5,254.104,254.104,1.53e-5,191.90479,332.9248)"
       spreadMethod="pad"
       id="linearGradient4685"><stop
         style="stop-opacity:1;stop-color:#fff346"
         offset="0"
         id="stop4673" /><stop
         style="stop-opacity:1;stop-color:#dbde3e"
         offset="0.13270079"
         id="stop4675" /><stop
         style="stop-opacity:1;stop-color:#dbde3e"
         offset="0.28"
         id="stop4677" /><stop
         style="stop-opacity:1;stop-color:#38b73e"
         offset="0.67"
         id="stop4679" /><stop
         style="stop-opacity:1;stop-color:#31767f"
         offset="0.89"
         id="stop4681" /><stop
         style="stop-opacity:1;stop-color:#2e3192"
         offset="1"
         id="stop4683" /></linearGradient><linearGradient
       x1="0"
       y1="0"
       x2="1"
       y2="0"
       gradientUnits="userSpaceOnUse"
       gradientTransform="matrix(-1.53e-5,254.104,254.104,1.53e-5,410.23828,332.9248)"
       spreadMethod="pad"
       id="linearGradient4711"><stop
         style="stop-opacity:1;stop-color:#21b8f1"
         offset="0"
         id="stop4703" /><stop
         style="stop-opacity:1;stop-color:#218fd7"
         offset="0.325843"
         id="stop4705" /><stop
         style="stop-opacity:1;stop-color:#2c429f"
         offset="0.674157"
         id="stop4707" /><stop
         style="stop-opacity:1;stop-color:#3a307b"
         offset="1"
         id="stop4709" /></linearGradient><linearGradient
       x1="0"
       y1="0"
       x2="1"
       y2="0"
       gradientUnits="userSpaceOnUse"
       gradientTransform="matrix(-1.53e-5,254.10303,254.10303,1.53e-5,410.90527,55.591797)"
       spreadMethod="pad"
       id="linearGradient4745"><stop
         style="stop-opacity:1;stop-color:#fff424"
         offset="0"
         id="stop4733" /><stop
         style="stop-opacity:1;stop-color:#fac308"
         offset="0.13312686"
         id="stop4735" /><stop
         style="stop-opacity:1;stop-color:#fac308"
         offset="0.280899"
         id="stop4737" /><stop
         style="stop-opacity:1;stop-color:#f3812f"
         offset="0.668539"
         id="stop4739" /><stop
         style="stop-opacity:1;stop-color:#ee5233"
         offset="0.88764"
         id="stop4741" /><stop
         style="stop-opacity:1;stop-color:#ea2c35"
         offset="1"
         id="stop4743" /></linearGradient></defs><sodipodi:namedview
     pagecolor="#ffffff"
     bordercolor="#666666"
     borderopacity="1"
     objecttolerance="10"
     gridtolerance="10"
     guidetolerance="10"
     inkscape:pageopacity="0"
     inkscape:pageshadow="2"
     inkscape:window-width="1920"
     inkscape:window-height="1018"
     id="namedview4645"
     showgrid="false"
     inkscape:zoom="0.76826687"
     inkscape:cx="501.69492"
     inkscape:cy="342.37288"
     inkscape:window-x="-8"
     inkscape:window-y="-8"
     inkscape:window-maximized="1"
     inkscape:current-layer="g4651" /><g
     id="g4651"
     inkscape:groupmode="layer"
     inkscape:label="point-pins-publicdomainvectors.org"
     transform="matrix(1.3333333,0,0,-1.3333333,0,800)"><g
       id="g4653"><g
         id="g4655"
         clip-path="url(#clipPath4659)"><g
           id="g4661"><g
             id="g4663"><g
               id="g4669"><g
                 id="g4671"><path
                   d="m 276.237,502.695 c 0,46.577 -37.756,84.334 -84.333,84.334 -46.575,0 -84.332,-37.757 -84.332,-84.334 0,-14.661 3.747,-28.445 10.327,-40.457 h -0.653 l 74.659,-129.313 74.658,129.313 h -0.653 c 6.581,12.012 10.327,25.796 10.327,40.457"
                   style="fill:url(#linearGradient4685);stroke:none"
                   id="path4687"
                   inkscape:connector-curvature="0" /></g></g></g></g><path
           d="m 257.905,502.696 c 0,-36.451 -29.549,-66.001 -66,-66.001 -36.451,0 -66.001,29.55 -66.001,66.001 0,36.451 29.55,66 66.001,66 36.451,0 66,-29.549 66,-66"
           style="fill:#ffffff;fill-opacity:1;fill-rule:nonzero;stroke:none"
           id="path4689"
           inkscape:connector-curvature="0" /><g
           id="g4691"><g
             id="g4693"><g
               id="g4699"><g
                 id="g4701"><path
                   d="m 494.571,502.695 c 0,46.577 -37.757,84.334 -84.333,84.334 -46.576,0 -84.333,-37.757 -84.333,-84.334 0,-14.661 3.747,-28.445 10.327,-40.457 h -0.653 l 74.659,-129.313 74.659,129.313 h -0.653 c 6.58,12.012 10.327,25.796 10.327,40.457"
                   style="fill:url(#linearGradient4711);stroke:none"
                   id="path4713"
                   inkscape:connector-curvature="0" /></g></g></g></g><path
           d="m 476.238,502.696 c 0,-36.451 -29.549,-66.001 -66,-66.001 -36.451,0 -66,29.55 -66,66.001 0,36.451 29.549,66 66,66 36.451,0 66,-29.549 66,-66"
           style="fill:#ffffff;fill-opacity:1;fill-rule:nonzero;stroke:none"
           id="path4715"
           inkscape:connector-curvature="0" /><path
           d="m 278.571,225.361 c 0,46.577 -37.757,84.334 -84.333,84.334 -46.576,0 -84.333,-37.757 -84.333,-84.334 0,-14.661 3.747,-28.445 10.327,-40.457 h -0.653 l 74.659,-129.312 74.659,129.312 h -0.653 c 6.58,12.012 10.327,25.796 10.327,40.457"
           style="fill:#ec008c;fill-opacity:1;fill-rule:nonzero;stroke:none"
           id="path4717"
           inkscape:connector-curvature="0" /><path
           d="m 260.238,225.362 c 0,-36.45 -29.549,-66.001 -66,-66.001 -36.451,0 -66,29.551 -66,66.001 0,36.451 29.549,66.001 66,66.001 36.451,0 66,-29.55 66,-66.001"
           style="fill:#ffffff;fill-opacity:1;fill-rule:nonzero;stroke:none"
           id="path4719"
           inkscape:connector-curvature="0" /><g
           id="g4721"><g
             id="g4723"><g
               id="g4729"><g
                 id="g4731"><path
                   d="m 495.238,225.361 c 0,46.577 -37.757,84.334 -84.333,84.334 -46.576,0 -84.333,-37.757 -84.333,-84.334 0,-14.661 3.747,-28.445 10.327,-40.457 h -0.653 l 74.659,-129.312 74.659,129.312 h -0.653 c 6.58,12.012 10.327,25.796 10.327,40.457"
                   style="fill:url(#linearGradient4745);stroke:none"
                   id="path4747"
                   inkscape:connector-curvature="0" /></g></g></g></g><path
           d="m 476.905,225.362 c 0,-36.45 -29.549,-66.001 -66,-66.001 -36.451,0 -66,29.551 -66,66.001 0,36.451 29.549,66.001 66,66.001 36.451,0 66,-29.55 66,-66.001"
           style="fill:#ffffff;fill-opacity:1;fill-rule:nonzero;stroke:none"
           id="path4749"
           inkscape:connector-curvature="0" /></g></g></g></svg>