<svg width="345" height="485" viewBox="0 0 345 485" fill="none" xmlns="http://www.w3.org/2000/svg">
<g filter="url(#filter0_d)">
<rect x="5" y="2.2793" width="335" height="473" rx="20" fill="#99E7D1"/>
<rect x="4.5" y="1.7793" width="336" height="474" rx="20.5" stroke="#00C48C"/>
</g>
<path d="M105.18 285.439C104.127 285.439 103.107 285.279 102.12 284.959C101.147 284.626 100.38 284.199 99.82 283.679L100.56 282.119C101.093 282.599 101.773 282.993 102.6 283.299C103.44 283.593 104.3 283.739 105.18 283.739C106.34 283.739 107.207 283.546 107.78 283.159C108.353 282.759 108.64 282.233 108.64 281.579C108.64 281.099 108.48 280.713 108.16 280.419C107.853 280.113 107.467 279.879 107 279.719C106.547 279.559 105.9 279.379 105.06 279.179C104.007 278.926 103.153 278.673 102.5 278.419C101.86 278.166 101.307 277.779 100.84 277.259C100.387 276.726 100.16 276.013 100.16 275.119C100.16 274.373 100.353 273.699 100.74 273.099C101.14 272.499 101.74 272.019 102.54 271.659C103.34 271.299 104.333 271.119 105.52 271.119C106.347 271.119 107.16 271.226 107.96 271.439C108.76 271.653 109.447 271.959 110.02 272.359L109.36 273.959C108.773 273.586 108.147 273.306 107.48 273.119C106.813 272.919 106.16 272.819 105.52 272.819C104.387 272.819 103.533 273.026 102.96 273.439C102.4 273.853 102.12 274.386 102.12 275.039C102.12 275.519 102.28 275.913 102.6 276.219C102.92 276.513 103.313 276.746 103.78 276.919C104.26 277.079 104.907 277.253 105.72 277.439C106.773 277.693 107.62 277.946 108.26 278.199C108.9 278.453 109.447 278.839 109.9 279.359C110.367 279.879 110.6 280.579 110.6 281.459C110.6 282.193 110.4 282.866 110 283.479C109.6 284.079 108.993 284.559 108.18 284.919C107.367 285.266 106.367 285.439 105.18 285.439ZM122.822 280.039C122.822 280.186 122.809 280.379 122.782 280.619H114.182C114.302 281.553 114.709 282.306 115.402 282.879C116.109 283.439 116.982 283.719 118.022 283.719C119.289 283.719 120.309 283.293 121.082 282.439L122.142 283.679C121.662 284.239 121.062 284.666 120.342 284.959C119.635 285.253 118.842 285.399 117.962 285.399C116.842 285.399 115.849 285.173 114.982 284.719C114.115 284.253 113.442 283.606 112.962 282.779C112.495 281.953 112.262 281.019 112.262 279.979C112.262 278.953 112.489 278.026 112.942 277.199C113.409 276.373 114.042 275.733 114.842 275.279C115.655 274.813 116.569 274.579 117.582 274.579C118.595 274.579 119.495 274.813 120.282 275.279C121.082 275.733 121.702 276.373 122.142 277.199C122.595 278.026 122.822 278.973 122.822 280.039ZM117.582 276.199C116.662 276.199 115.889 276.479 115.262 277.039C114.649 277.599 114.289 278.333 114.182 279.239H120.982C120.875 278.346 120.509 277.619 119.882 277.059C119.269 276.486 118.502 276.199 117.582 276.199ZM125.488 270.439H127.408V285.279H125.488V270.439ZM140.654 280.039C140.654 280.186 140.641 280.379 140.614 280.619H132.014C132.134 281.553 132.541 282.306 133.234 282.879C133.941 283.439 134.814 283.719 135.854 283.719C137.121 283.719 138.141 283.293 138.914 282.439L139.974 283.679C139.494 284.239 138.894 284.666 138.174 284.959C137.467 285.253 136.674 285.399 135.794 285.399C134.674 285.399 133.681 285.173 132.814 284.719C131.947 284.253 131.274 283.606 130.794 282.779C130.327 281.953 130.094 281.019 130.094 279.979C130.094 278.953 130.321 278.026 130.774 277.199C131.241 276.373 131.874 275.733 132.674 275.279C133.487 274.813 134.401 274.579 135.414 274.579C136.427 274.579 137.327 274.813 138.114 275.279C138.914 275.733 139.534 276.373 139.974 277.199C140.427 278.026 140.654 278.973 140.654 280.039ZM135.414 276.199C134.494 276.199 133.721 276.479 133.094 277.039C132.481 277.599 132.121 278.333 132.014 279.239H138.814C138.707 278.346 138.341 277.619 137.714 277.059C137.101 276.486 136.334 276.199 135.414 276.199ZM147.94 285.399C146.86 285.399 145.893 285.166 145.04 284.699C144.2 284.233 143.54 283.593 143.06 282.779C142.58 281.953 142.34 281.019 142.34 279.979C142.34 278.939 142.58 278.013 143.06 277.199C143.54 276.373 144.2 275.733 145.04 275.279C145.893 274.813 146.86 274.579 147.94 274.579C148.9 274.579 149.753 274.773 150.5 275.159C151.26 275.546 151.847 276.106 152.26 276.839L150.8 277.779C150.467 277.273 150.053 276.893 149.56 276.639C149.067 276.386 148.52 276.259 147.92 276.259C147.227 276.259 146.6 276.413 146.04 276.719C145.493 277.026 145.06 277.466 144.74 278.039C144.433 278.599 144.28 279.246 144.28 279.979C144.28 280.726 144.433 281.386 144.74 281.959C145.06 282.519 145.493 282.953 146.04 283.259C146.6 283.566 147.227 283.719 147.92 283.719C148.52 283.719 149.067 283.593 149.56 283.339C150.053 283.086 150.467 282.706 150.8 282.199L152.26 283.119C151.847 283.853 151.26 284.419 150.5 284.819C149.753 285.206 148.9 285.399 147.94 285.399ZM160.843 284.659C160.563 284.899 160.216 285.086 159.803 285.219C159.389 285.339 158.963 285.399 158.523 285.399C157.456 285.399 156.629 285.113 156.043 284.539C155.456 283.966 155.163 283.146 155.163 282.079V276.259H153.363V274.679H155.163V272.359H157.083V274.679H160.123V276.259H157.083V281.999C157.083 282.573 157.223 283.013 157.503 283.319C157.796 283.626 158.209 283.779 158.743 283.779C159.329 283.779 159.829 283.613 160.243 283.279L160.843 284.659ZM177.735 281.779H170.295L168.755 285.279H166.695L173.035 271.279H175.015L181.375 285.279H179.275L177.735 281.779ZM177.035 280.179L174.015 273.319L170.995 280.179H177.035ZM188.843 274.579C190.19 274.579 191.257 274.973 192.043 275.759C192.843 276.533 193.243 277.673 193.243 279.179V285.279H191.323V279.399C191.323 278.373 191.077 277.599 190.583 277.079C190.09 276.559 189.383 276.299 188.463 276.299C187.423 276.299 186.603 276.606 186.003 277.219C185.403 277.819 185.103 278.686 185.103 279.819V285.279H183.183V274.679H185.023V276.279C185.41 275.733 185.93 275.313 186.583 275.019C187.25 274.726 188.003 274.579 188.843 274.579ZM216.739 281.779H209.299L207.759 285.279H205.699L212.039 271.279H214.019L220.379 285.279H218.279L216.739 281.779ZM216.039 280.179L213.019 273.319L209.999 280.179H216.039ZM226.63 285.399C225.576 285.399 224.63 285.166 223.79 284.699C222.95 284.233 222.29 283.593 221.81 282.779C221.343 281.953 221.11 281.019 221.11 279.979C221.11 278.939 221.343 278.013 221.81 277.199C222.29 276.373 222.95 275.733 223.79 275.279C224.63 274.813 225.576 274.579 226.63 274.579C227.683 274.579 228.623 274.813 229.45 275.279C230.29 275.733 230.943 276.373 231.41 277.199C231.89 278.013 232.13 278.939 232.13 279.979C232.13 281.019 231.89 281.953 231.41 282.779C230.943 283.593 230.29 284.233 229.45 284.699C228.623 285.166 227.683 285.399 226.63 285.399ZM226.63 283.719C227.31 283.719 227.916 283.566 228.45 283.259C228.996 282.939 229.423 282.499 229.73 281.939C230.036 281.366 230.19 280.713 230.19 279.979C230.19 279.246 230.036 278.599 229.73 278.039C229.423 277.466 228.996 277.026 228.45 276.719C227.916 276.413 227.31 276.259 226.63 276.259C225.95 276.259 225.336 276.413 224.79 276.719C224.256 277.026 223.83 277.466 223.51 278.039C223.203 278.599 223.05 279.246 223.05 279.979C223.05 280.713 223.203 281.366 223.51 281.939C223.83 282.499 224.256 282.939 224.79 283.259C225.336 283.566 225.95 283.719 226.63 283.719ZM237.065 273.019V277.899H244.085V279.619H237.065V285.279H235.065V271.279H244.945V273.019H237.065Z" fill="black"/>
<path d="M123.918 80.5899C123.17 81.3369 122.697 82.3147 122.575 83.3647C122.453 84.4146 122.689 85.475 123.245 86.3738L141.807 116.351C133.936 122.322 128.138 130.614 125.231 140.057C122.324 149.499 122.455 159.616 125.605 168.981C128.755 178.345 134.765 186.484 142.788 192.25C150.811 198.016 160.442 201.118 170.322 201.118C180.202 201.118 189.833 198.016 197.856 192.25C205.879 186.484 211.889 178.345 215.039 168.981C218.19 159.616 218.32 149.499 215.413 140.057C212.507 130.614 206.709 122.322 198.837 116.351L217.399 86.3738C217.955 85.475 218.192 84.4146 218.069 83.3647C217.947 82.3147 217.474 81.3369 216.726 80.5899C204.409 68.3011 187.721 61.3997 170.322 61.3997C152.923 61.3997 136.235 68.3011 123.918 80.5899ZM170.322 158.197C171.565 158.197 172.757 157.704 173.637 156.825C173.892 156.57 174.118 156.286 174.31 155.98L183.842 140.574C186.382 143.224 188.087 146.562 188.746 150.173C189.405 153.784 188.988 157.509 187.547 160.886C186.106 164.262 183.705 167.14 180.642 169.164C177.579 171.187 173.99 172.265 170.319 172.265C166.648 172.265 163.058 171.187 159.995 169.164C156.932 167.14 154.531 164.262 153.09 160.886C151.65 157.509 151.233 153.784 151.892 150.173C152.55 146.562 154.255 143.224 156.795 140.574L166.335 155.98C166.755 156.658 167.343 157.218 168.04 157.606C168.738 157.994 169.524 158.198 170.322 158.197ZM170.322 144.607L145.864 105.094C152.423 98.7435 161.195 95.1926 170.325 95.1926C179.455 95.1926 188.228 98.7435 194.787 105.094L170.322 144.607ZM196.839 126.994C202.083 132.238 205.655 138.92 207.102 146.194C208.548 153.469 207.806 161.009 204.968 167.861C202.129 174.713 197.323 180.57 191.156 184.69C184.989 188.811 177.739 191.01 170.322 191.01C162.905 191.01 155.655 188.811 149.488 184.69C143.321 180.57 138.515 174.713 135.677 167.861C132.838 161.009 132.096 153.469 133.543 146.194C134.99 138.92 138.561 132.238 143.806 126.994C144.743 126.062 145.729 125.181 146.759 124.352L151.757 132.426C151.31 132.821 150.856 133.202 150.435 133.623C146.501 137.556 143.823 142.568 142.738 148.023C141.652 153.479 142.209 159.134 144.338 164.273C146.467 169.412 150.072 173.805 154.697 176.895C159.322 179.986 164.759 181.635 170.322 181.635C175.885 181.635 181.322 179.986 185.948 176.895C190.573 173.805 194.177 169.412 196.306 164.273C198.435 159.134 198.992 153.479 197.907 148.023C196.821 142.568 194.143 137.556 190.209 133.623C189.789 133.202 189.334 132.821 188.887 132.426L193.885 124.352C194.915 125.181 195.901 126.062 196.839 126.994ZM199.789 96.997C191.653 89.8144 181.174 85.8506 170.322 85.8506C159.47 85.8506 148.991 89.8144 140.856 96.9969L133.235 84.6966C143.504 75.7182 156.682 70.7698 170.322 70.7698C183.963 70.7698 197.14 75.7182 207.409 84.6966L199.789 96.997Z" fill="black" fill-opacity="0.87"/>
<g filter="url(#filter1_d)">
<circle cx="172.279" cy="129.279" r="90.5" transform="rotate(-45 172.279 129.279)" stroke="#7E7D7D" stroke-opacity="0.9"/>
</g>
<path d="M63.4198 349.375C62.5878 349.375 61.7878 349.242 61.0198 348.975C60.2625 348.709 59.6758 348.357 59.2598 347.919L59.7238 347.007C60.1291 347.413 60.6678 347.743 61.3398 347.999C62.0118 348.245 62.7051 348.367 63.4198 348.367C64.4225 348.367 65.1745 348.186 65.6758 347.823C66.1771 347.45 66.4278 346.97 66.4278 346.383C66.4278 345.935 66.2891 345.578 66.0118 345.311C65.7451 345.045 65.4145 344.842 65.0198 344.703C64.6251 344.554 64.0758 344.394 63.3718 344.223C62.5291 344.01 61.8571 343.807 61.3558 343.615C60.8545 343.413 60.4225 343.109 60.0598 342.703C59.7078 342.298 59.5318 341.749 59.5318 341.055C59.5318 340.49 59.6811 339.978 59.9798 339.519C60.2785 339.05 60.7371 338.677 61.3558 338.399C61.9745 338.122 62.7425 337.983 63.6598 337.983C64.2998 337.983 64.9238 338.074 65.5318 338.255C66.1505 338.426 66.6838 338.666 67.1318 338.975L66.7318 339.919C66.2625 339.61 65.7611 339.381 65.2278 339.231C64.6945 339.071 64.1718 338.991 63.6598 338.991C62.6785 338.991 61.9371 339.183 61.4358 339.567C60.9451 339.941 60.6998 340.426 60.6998 341.023C60.6998 341.471 60.8331 341.834 61.0998 342.111C61.3771 342.378 61.7185 342.586 62.1238 342.735C62.5398 342.874 63.0945 343.029 63.7878 343.199C64.6091 343.402 65.2705 343.605 65.7718 343.807C66.2838 343.999 66.7158 344.298 67.0678 344.703C67.4198 345.098 67.5958 345.637 67.5958 346.319C67.5958 346.885 67.4411 347.402 67.1318 347.871C66.8331 348.33 66.3691 348.698 65.7398 348.975C65.1105 349.242 64.3371 349.375 63.4198 349.375ZM77.2636 345.423H70.2236C70.2876 346.298 70.6236 347.007 71.2316 347.551C71.8396 348.085 72.6076 348.351 73.5356 348.351C74.0582 348.351 74.5382 348.261 74.9756 348.079C75.4129 347.887 75.7916 347.61 76.1116 347.247L76.7516 347.983C76.3782 348.431 75.9089 348.773 75.3436 349.007C74.7889 349.242 74.1756 349.359 73.5036 349.359C72.6396 349.359 71.8716 349.178 71.1996 348.815C70.5382 348.442 70.0209 347.93 69.6476 347.279C69.2742 346.629 69.0876 345.893 69.0876 345.071C69.0876 344.25 69.2636 343.514 69.6156 342.863C69.9782 342.213 70.4689 341.706 71.0876 341.343C71.7169 340.981 72.4209 340.799 73.1996 340.799C73.9782 340.799 74.6769 340.981 75.2956 341.343C75.9142 341.706 76.3996 342.213 76.7516 342.863C77.1036 343.503 77.2796 344.239 77.2796 345.071L77.2636 345.423ZM73.1996 341.775C72.3889 341.775 71.7062 342.037 71.1516 342.559C70.6076 343.071 70.2982 343.743 70.2236 344.575H76.1916C76.1169 343.743 75.8022 343.071 75.2476 342.559C74.7036 342.037 74.0209 341.775 73.1996 341.775ZM82.3014 340.799C83.4001 340.799 84.2428 341.077 84.8294 341.631C85.4161 342.175 85.7094 342.986 85.7094 344.063V349.279H84.6214V347.967C84.3654 348.405 83.9868 348.746 83.4854 348.991C82.9948 349.237 82.4081 349.359 81.7254 349.359C80.7868 349.359 80.0401 349.135 79.4854 348.687C78.9308 348.239 78.6534 347.647 78.6534 346.911C78.6534 346.197 78.9094 345.621 79.4214 345.183C79.9441 344.746 80.7708 344.527 81.9014 344.527H84.5734V344.015C84.5734 343.29 84.3708 342.741 83.9654 342.367C83.5601 341.983 82.9681 341.791 82.1894 341.791C81.6561 341.791 81.1441 341.882 80.6534 342.063C80.1628 342.234 79.7414 342.474 79.3894 342.783L78.8774 341.935C79.3041 341.573 79.8161 341.295 80.4134 341.103C81.0108 340.901 81.6401 340.799 82.3014 340.799ZM81.9014 348.463C82.5414 348.463 83.0908 348.319 83.5494 348.031C84.0081 347.733 84.3494 347.306 84.5734 346.751V345.375H81.9334C80.4934 345.375 79.7734 345.877 79.7734 346.879C79.7734 347.37 79.9601 347.759 80.3334 348.047C80.7068 348.325 81.2294 348.463 81.9014 348.463ZM89.8829 342.511C90.1496 341.946 90.5443 341.519 91.0669 341.231C91.6003 340.943 92.2563 340.799 93.0349 340.799V341.903L92.7629 341.887C91.8776 341.887 91.1843 342.159 90.6829 342.703C90.1816 343.247 89.9309 344.01 89.9309 344.991V349.279H88.7949V340.863H89.8829V342.511ZM98.5017 349.359C97.6697 349.359 96.923 349.178 96.2617 348.815C95.611 348.453 95.099 347.946 94.7257 347.295C94.3524 346.634 94.1657 345.893 94.1657 345.071C94.1657 344.25 94.3524 343.514 94.7257 342.863C95.099 342.213 95.611 341.706 96.2617 341.343C96.923 340.981 97.6697 340.799 98.5017 340.799C99.227 340.799 99.8724 340.943 100.438 341.231C101.014 341.509 101.467 341.919 101.798 342.463L100.95 343.039C100.672 342.623 100.32 342.314 99.8937 342.111C99.467 341.898 99.003 341.791 98.5017 341.791C97.8937 341.791 97.3444 341.93 96.8537 342.207C96.3737 342.474 95.995 342.858 95.7177 343.359C95.451 343.861 95.3177 344.431 95.3177 345.071C95.3177 345.722 95.451 346.298 95.7177 346.799C95.995 347.29 96.3737 347.674 96.8537 347.951C97.3444 348.218 97.8937 348.351 98.5017 348.351C99.003 348.351 99.467 348.25 99.8937 348.047C100.32 347.845 100.672 347.535 100.95 347.119L101.798 347.695C101.467 348.239 101.014 348.655 100.438 348.943C99.8617 349.221 99.2164 349.359 98.5017 349.359ZM108.192 340.799C109.248 340.799 110.086 341.109 110.704 341.727C111.334 342.335 111.648 343.226 111.648 344.399V349.279H110.512V344.511C110.512 343.637 110.294 342.97 109.856 342.511C109.419 342.053 108.795 341.823 107.984 341.823C107.078 341.823 106.358 342.095 105.824 342.639C105.302 343.173 105.04 343.914 105.04 344.863V349.279H103.904V337.407H105.04V342.335C105.35 341.845 105.776 341.466 106.32 341.199C106.864 340.933 107.488 340.799 108.192 340.799ZM126.184 346.287H119.944L118.6 349.279H117.368L122.488 338.079H123.656L128.776 349.279H127.528L126.184 346.287ZM125.752 345.327L123.064 339.311L120.376 345.327H125.752ZM134.677 340.799C135.733 340.799 136.57 341.109 137.189 341.727C137.818 342.335 138.133 343.226 138.133 344.399V349.279H136.997V344.511C136.997 343.637 136.778 342.97 136.341 342.511C135.903 342.053 135.279 341.823 134.469 341.823C133.562 341.823 132.842 342.095 132.309 342.639C131.786 343.173 131.525 343.914 131.525 344.863V349.279H130.389V340.863H131.477V342.415C131.786 341.903 132.213 341.509 132.757 341.231C133.311 340.943 133.951 340.799 134.677 340.799ZM148.133 340.863L143.925 350.287C143.583 351.077 143.189 351.637 142.741 351.967C142.293 352.298 141.754 352.463 141.125 352.463C140.719 352.463 140.341 352.399 139.989 352.271C139.637 352.143 139.333 351.951 139.077 351.695L139.605 350.847C140.031 351.274 140.543 351.487 141.141 351.487C141.525 351.487 141.85 351.381 142.117 351.167C142.394 350.954 142.65 350.591 142.885 350.079L143.253 349.263L139.493 340.863H140.677L143.845 348.015L147.013 340.863H148.133ZM154.16 338.079H155.344V348.255H161.616V349.279H154.16V338.079ZM166.657 349.359C165.846 349.359 165.115 349.178 164.465 348.815C163.814 348.442 163.302 347.93 162.929 347.279C162.555 346.629 162.369 345.893 162.369 345.071C162.369 344.25 162.555 343.514 162.929 342.863C163.302 342.213 163.814 341.706 164.465 341.343C165.115 340.981 165.846 340.799 166.657 340.799C167.467 340.799 168.198 340.981 168.849 341.343C169.499 341.706 170.006 342.213 170.369 342.863C170.742 343.514 170.929 344.25 170.929 345.071C170.929 345.893 170.742 346.629 170.369 347.279C170.006 347.93 169.499 348.442 168.849 348.815C168.198 349.178 167.467 349.359 166.657 349.359ZM166.657 348.351C167.254 348.351 167.787 348.218 168.257 347.951C168.737 347.674 169.11 347.285 169.377 346.783C169.643 346.282 169.777 345.711 169.777 345.071C169.777 344.431 169.643 343.861 169.377 343.359C169.11 342.858 168.737 342.474 168.257 342.207C167.787 341.93 167.254 341.791 166.657 341.791C166.059 341.791 165.521 341.93 165.041 342.207C164.571 342.474 164.198 342.858 163.921 343.359C163.654 343.861 163.521 344.431 163.521 345.071C163.521 345.711 163.654 346.282 163.921 346.783C164.198 347.285 164.571 347.674 165.041 347.951C165.521 348.218 166.059 348.351 166.657 348.351ZM176.736 349.359C175.904 349.359 175.157 349.178 174.496 348.815C173.845 348.453 173.333 347.946 172.96 347.295C172.587 346.634 172.4 345.893 172.4 345.071C172.4 344.25 172.587 343.514 172.96 342.863C173.333 342.213 173.845 341.706 174.496 341.343C175.157 340.981 175.904 340.799 176.736 340.799C177.461 340.799 178.107 340.943 178.672 341.231C179.248 341.509 179.701 341.919 180.032 342.463L179.184 343.039C178.907 342.623 178.555 342.314 178.128 342.111C177.701 341.898 177.237 341.791 176.736 341.791C176.128 341.791 175.579 341.93 175.088 342.207C174.608 342.474 174.229 342.858 173.952 343.359C173.685 343.861 173.552 344.431 173.552 345.071C173.552 345.722 173.685 346.298 173.952 346.799C174.229 347.29 174.608 347.674 175.088 347.951C175.579 348.218 176.128 348.351 176.736 348.351C177.237 348.351 177.701 348.25 178.128 348.047C178.555 347.845 178.907 347.535 179.184 347.119L180.032 347.695C179.701 348.239 179.248 348.655 178.672 348.943C178.096 349.221 177.451 349.359 176.736 349.359ZM185.208 340.799C186.306 340.799 187.149 341.077 187.736 341.631C188.322 342.175 188.616 342.986 188.616 344.063V349.279H187.528V347.967C187.272 348.405 186.893 348.746 186.392 348.991C185.901 349.237 185.314 349.359 184.632 349.359C183.693 349.359 182.946 349.135 182.392 348.687C181.837 348.239 181.56 347.647 181.56 346.911C181.56 346.197 181.816 345.621 182.328 345.183C182.85 344.746 183.677 344.527 184.808 344.527H187.48V344.015C187.48 343.29 187.277 342.741 186.872 342.367C186.466 341.983 185.874 341.791 185.096 341.791C184.562 341.791 184.05 341.882 183.56 342.063C183.069 342.234 182.648 342.474 182.296 342.783L181.784 341.935C182.21 341.573 182.722 341.295 183.32 341.103C183.917 340.901 184.546 340.799 185.208 340.799ZM184.808 348.463C185.448 348.463 185.997 348.319 186.456 348.031C186.914 347.733 187.256 347.306 187.48 346.751V345.375H184.84C183.4 345.375 182.68 345.877 182.68 346.879C182.68 347.37 182.866 347.759 183.24 348.047C183.613 348.325 184.136 348.463 184.808 348.463ZM196.133 348.767C195.92 348.959 195.653 349.109 195.333 349.215C195.024 349.311 194.699 349.359 194.357 349.359C193.568 349.359 192.96 349.146 192.533 348.719C192.107 348.293 191.893 347.69 191.893 346.911V341.823H190.389V340.863H191.893V339.023H193.029V340.863H195.589V341.823H193.029V346.847C193.029 347.349 193.152 347.733 193.397 347.999C193.653 348.255 194.016 348.383 194.485 348.383C194.72 348.383 194.944 348.346 195.157 348.271C195.381 348.197 195.573 348.09 195.733 347.951L196.133 348.767ZM198.201 340.863H199.337V349.279H198.201V340.863ZM198.777 339.023C198.543 339.023 198.345 338.943 198.185 338.783C198.025 338.623 197.945 338.431 197.945 338.207C197.945 337.994 198.025 337.807 198.185 337.647C198.345 337.487 198.543 337.407 198.777 337.407C199.012 337.407 199.209 337.487 199.369 337.647C199.529 337.797 199.609 337.978 199.609 338.191C199.609 338.426 199.529 338.623 199.369 338.783C199.209 338.943 199.012 339.023 198.777 339.023ZM205.938 349.359C205.127 349.359 204.397 349.178 203.746 348.815C203.095 348.442 202.583 347.93 202.21 347.279C201.837 346.629 201.65 345.893 201.65 345.071C201.65 344.25 201.837 343.514 202.21 342.863C202.583 342.213 203.095 341.706 203.746 341.343C204.397 340.981 205.127 340.799 205.938 340.799C206.749 340.799 207.479 340.981 208.13 341.343C208.781 341.706 209.287 342.213 209.65 342.863C210.023 343.514 210.21 344.25 210.21 345.071C210.21 345.893 210.023 346.629 209.65 347.279C209.287 347.93 208.781 348.442 208.13 348.815C207.479 349.178 206.749 349.359 205.938 349.359ZM205.938 348.351C206.535 348.351 207.069 348.218 207.538 347.951C208.018 347.674 208.391 347.285 208.658 346.783C208.925 346.282 209.058 345.711 209.058 345.071C209.058 344.431 208.925 343.861 208.658 343.359C208.391 342.858 208.018 342.474 207.538 342.207C207.069 341.93 206.535 341.791 205.938 341.791C205.341 341.791 204.802 341.93 204.322 342.207C203.853 342.474 203.479 342.858 203.202 343.359C202.935 343.861 202.802 344.431 202.802 345.071C202.802 345.711 202.935 346.282 203.202 346.783C203.479 347.285 203.853 347.674 204.322 347.951C204.802 348.218 205.341 348.351 205.938 348.351ZM216.817 340.799C217.873 340.799 218.711 341.109 219.329 341.727C219.959 342.335 220.273 343.226 220.273 344.399V349.279H219.137V344.511C219.137 343.637 218.919 342.97 218.481 342.511C218.044 342.053 217.42 341.823 216.609 341.823C215.703 341.823 214.983 342.095 214.449 342.639C213.927 343.173 213.665 343.914 213.665 344.863V349.279H212.529V340.863H213.617V342.415C213.927 341.903 214.353 341.509 214.897 341.231C215.452 340.943 216.092 340.799 216.817 340.799ZM232.681 349.375C231.572 349.375 230.564 349.13 229.657 348.639C228.761 348.138 228.057 347.455 227.545 346.591C227.044 345.727 226.793 344.757 226.793 343.679C226.793 342.602 227.044 341.631 227.545 340.767C228.057 339.903 228.761 339.226 229.657 338.735C230.564 338.234 231.572 337.983 232.681 337.983C233.79 337.983 234.788 338.229 235.673 338.719C236.569 339.21 237.273 339.893 237.785 340.767C238.297 341.631 238.553 342.602 238.553 343.679C238.553 344.757 238.297 345.733 237.785 346.607C237.273 347.471 236.569 348.149 235.673 348.639C234.788 349.13 233.79 349.375 232.681 349.375ZM232.681 348.319C233.566 348.319 234.366 348.122 235.081 347.727C235.796 347.322 236.356 346.767 236.761 346.063C237.166 345.349 237.369 344.554 237.369 343.679C237.369 342.805 237.166 342.015 236.761 341.311C236.356 340.597 235.796 340.042 235.081 339.647C234.366 339.242 233.566 339.039 232.681 339.039C231.796 339.039 230.99 339.242 230.265 339.647C229.55 340.042 228.985 340.597 228.569 341.311C228.164 342.015 227.961 342.805 227.961 343.679C227.961 344.554 228.164 345.349 228.569 346.063C228.985 346.767 229.55 347.322 230.265 347.727C230.99 348.122 231.796 348.319 232.681 348.319ZM243.751 338.287C243.26 338.287 242.887 338.421 242.631 338.687C242.385 338.954 242.263 339.349 242.263 339.871V340.863H244.855V341.823H242.295V349.279H241.159V341.823H239.655V340.863H241.159V339.823C241.159 339.055 241.377 338.447 241.815 337.999C242.263 337.551 242.892 337.327 243.703 337.327C244.023 337.327 244.332 337.375 244.631 337.471C244.929 337.557 245.18 337.685 245.383 337.855L244.999 338.703C244.668 338.426 244.252 338.287 243.751 338.287ZM254.656 345.407V349.279H253.488V345.407L249.008 338.079H250.272L254.112 344.367L257.952 338.079H259.136L254.656 345.407ZM263.219 349.359C262.409 349.359 261.678 349.178 261.027 348.815C260.377 348.442 259.865 347.93 259.491 347.279C259.118 346.629 258.931 345.893 258.931 345.071C258.931 344.25 259.118 343.514 259.491 342.863C259.865 342.213 260.377 341.706 261.027 341.343C261.678 340.981 262.409 340.799 263.219 340.799C264.03 340.799 264.761 340.981 265.411 341.343C266.062 341.706 266.569 342.213 266.931 342.863C267.305 343.514 267.491 344.25 267.491 345.071C267.491 345.893 267.305 346.629 266.931 347.279C266.569 347.93 266.062 348.442 265.411 348.815C264.761 349.178 264.03 349.359 263.219 349.359ZM263.219 348.351C263.817 348.351 264.35 348.218 264.819 347.951C265.299 347.674 265.673 347.285 265.939 346.783C266.206 346.282 266.339 345.711 266.339 345.071C266.339 344.431 266.206 343.861 265.939 343.359C265.673 342.858 265.299 342.474 264.819 342.207C264.35 341.93 263.817 341.791 263.219 341.791C262.622 341.791 262.083 341.93 261.603 342.207C261.134 342.474 260.761 342.858 260.483 343.359C260.217 343.861 260.083 344.431 260.083 345.071C260.083 345.711 260.217 346.282 260.483 346.783C260.761 347.285 261.134 347.674 261.603 347.951C262.083 348.218 262.622 348.351 263.219 348.351ZM277.395 340.863V349.279H276.307V347.743C276.008 348.255 275.597 348.655 275.075 348.943C274.552 349.221 273.955 349.359 273.283 349.359C272.184 349.359 271.315 349.055 270.675 348.447C270.045 347.829 269.731 346.927 269.731 345.743V340.863H270.867V345.631C270.867 346.517 271.085 347.189 271.523 347.647C271.96 348.106 272.584 348.335 273.395 348.335C274.28 348.335 274.979 348.069 275.491 347.535C276.003 346.991 276.259 346.239 276.259 345.279V340.863H277.395ZM285.008 348.767C284.795 348.959 284.528 349.109 284.208 349.215C283.899 349.311 283.574 349.359 283.232 349.359C282.443 349.359 281.835 349.146 281.408 348.719C280.982 348.293 280.768 347.69 280.768 346.911V341.823H279.264V340.863H280.768V339.023H281.904V340.863H284.464V341.823H281.904V346.847C281.904 347.349 282.027 347.733 282.272 347.999C282.528 348.255 282.891 348.383 283.36 348.383C283.595 348.383 283.819 348.346 284.032 348.271C284.256 348.197 284.448 348.09 284.608 347.951L285.008 348.767ZM72.9614 369.375C71.8521 369.375 70.8494 369.13 69.9534 368.639C69.0681 368.149 68.3694 367.471 67.8574 366.607C67.3561 365.733 67.1054 364.757 67.1054 363.679C67.1054 362.602 67.3561 361.631 67.8574 360.767C68.3694 359.893 69.0734 359.21 69.9694 358.719C70.8654 358.229 71.8681 357.983 72.9774 357.983C73.8094 357.983 74.5774 358.122 75.2814 358.399C75.9854 358.677 76.5828 359.082 77.0734 359.615L76.3214 360.367C75.4468 359.482 74.3428 359.039 73.0094 359.039C72.1241 359.039 71.3188 359.242 70.5934 359.647C69.8681 360.053 69.2974 360.607 68.8814 361.311C68.4761 362.015 68.2734 362.805 68.2734 363.679C68.2734 364.554 68.4761 365.343 68.8814 366.047C69.2974 366.751 69.8681 367.306 70.5934 367.711C71.3188 368.117 72.1241 368.319 73.0094 368.319C74.3534 368.319 75.4574 367.871 76.3214 366.975L77.0734 367.727C76.5828 368.261 75.9801 368.671 75.2654 368.959C74.5614 369.237 73.7934 369.375 72.9614 369.375ZM83.6454 360.799C84.7014 360.799 85.5388 361.109 86.1574 361.727C86.7868 362.335 87.1014 363.226 87.1014 364.399V369.279H85.9654V364.511C85.9654 363.637 85.7468 362.97 85.3094 362.511C84.8721 362.053 84.2481 361.823 83.4374 361.823C82.5308 361.823 81.8108 362.095 81.2774 362.639C80.7548 363.173 80.4934 363.914 80.4934 364.863V369.279H79.3574V357.407H80.4934V362.335C80.8028 361.845 81.2294 361.466 81.7734 361.199C82.3174 360.933 82.9414 360.799 83.6454 360.799ZM90.1856 360.863H91.3216V369.279H90.1856V360.863ZM90.7616 359.023C90.5269 359.023 90.3296 358.943 90.1696 358.783C90.0096 358.623 89.9296 358.431 89.9296 358.207C89.9296 357.994 90.0096 357.807 90.1696 357.647C90.3296 357.487 90.5269 357.407 90.7616 357.407C90.9962 357.407 91.1936 357.487 91.3536 357.647C91.5136 357.797 91.5936 357.978 91.5936 358.191C91.5936 358.426 91.5136 358.623 91.3536 358.783C91.1936 358.943 90.9962 359.023 90.7616 359.023ZM97.9224 369.359C97.1118 369.359 96.3811 369.178 95.7304 368.815C95.0798 368.442 94.5678 367.93 94.1944 367.279C93.8211 366.629 93.6344 365.893 93.6344 365.071C93.6344 364.25 93.8211 363.514 94.1944 362.863C94.5678 362.213 95.0798 361.706 95.7304 361.343C96.3811 360.981 97.1118 360.799 97.9224 360.799C98.7331 360.799 99.4638 360.981 100.114 361.343C100.765 361.706 101.272 362.213 101.634 362.863C102.008 363.514 102.194 364.25 102.194 365.071C102.194 365.893 102.008 366.629 101.634 367.279C101.272 367.93 100.765 368.442 100.114 368.815C99.4638 369.178 98.7331 369.359 97.9224 369.359ZM97.9224 368.351C98.5198 368.351 99.0531 368.218 99.5224 367.951C100.002 367.674 100.376 367.285 100.642 366.783C100.909 366.282 101.042 365.711 101.042 365.071C101.042 364.431 100.909 363.861 100.642 363.359C100.376 362.858 100.002 362.474 99.5224 362.207C99.0531 361.93 98.5198 361.791 97.9224 361.791C97.3251 361.791 96.7864 361.93 96.3064 362.207C95.8371 362.474 95.4638 362.858 95.1864 363.359C94.9198 363.861 94.7864 364.431 94.7864 365.071C94.7864 365.711 94.9198 366.282 95.1864 366.783C95.4638 367.285 95.8371 367.674 96.3064 367.951C96.7864 368.218 97.3251 368.351 97.9224 368.351ZM108.002 369.359C107.17 369.359 106.423 369.178 105.762 368.815C105.111 368.453 104.599 367.946 104.226 367.295C103.852 366.634 103.666 365.893 103.666 365.071C103.666 364.25 103.852 363.514 104.226 362.863C104.599 362.213 105.111 361.706 105.762 361.343C106.423 360.981 107.17 360.799 108.002 360.799C108.727 360.799 109.372 360.943 109.938 361.231C110.514 361.509 110.967 361.919 111.298 362.463L110.45 363.039C110.172 362.623 109.82 362.314 109.394 362.111C108.967 361.898 108.503 361.791 108.002 361.791C107.394 361.791 106.844 361.93 106.354 362.207C105.874 362.474 105.495 362.858 105.218 363.359C104.951 363.861 104.818 364.431 104.818 365.071C104.818 365.722 104.951 366.298 105.218 366.799C105.495 367.29 105.874 367.674 106.354 367.951C106.844 368.218 107.394 368.351 108.002 368.351C108.503 368.351 108.967 368.25 109.394 368.047C109.82 367.845 110.172 367.535 110.45 367.119L111.298 367.695C110.967 368.239 110.514 368.655 109.938 368.943C109.362 369.221 108.716 369.359 108.002 369.359ZM120.717 365.423H113.677C113.741 366.298 114.077 367.007 114.685 367.551C115.293 368.085 116.061 368.351 116.989 368.351C117.511 368.351 117.991 368.261 118.429 368.079C118.866 367.887 119.245 367.61 119.565 367.247L120.205 367.983C119.831 368.431 119.362 368.773 118.797 369.007C118.242 369.242 117.629 369.359 116.957 369.359C116.093 369.359 115.325 369.178 114.653 368.815C113.991 368.442 113.474 367.93 113.101 367.279C112.727 366.629 112.541 365.893 112.541 365.071C112.541 364.25 112.717 363.514 113.069 362.863C113.431 362.213 113.922 361.706 114.541 361.343C115.17 360.981 115.874 360.799 116.653 360.799C117.431 360.799 118.13 360.981 118.749 361.343C119.367 361.706 119.853 362.213 120.205 362.863C120.557 363.503 120.733 364.239 120.733 365.071L120.717 365.423ZM116.653 361.775C115.842 361.775 115.159 362.037 114.605 362.559C114.061 363.071 113.751 363.743 113.677 364.575H119.645C119.57 363.743 119.255 363.071 118.701 362.559C118.157 362.037 117.474 361.775 116.653 361.775ZM123.173 367.615C123.418 367.615 123.621 367.701 123.781 367.871C123.941 368.031 124.021 368.234 124.021 368.479C124.021 368.607 124 368.746 123.957 368.895C123.925 369.045 123.872 369.215 123.797 369.407L123.125 371.615H122.357L122.901 369.295C122.73 369.242 122.592 369.146 122.485 369.007C122.378 368.858 122.325 368.682 122.325 368.479C122.325 368.234 122.405 368.031 122.565 367.871C122.725 367.701 122.928 367.615 123.173 367.615ZM134.335 364.015L132.047 366.335V369.279H130.863V358.079H132.047V364.847L138.623 358.079H139.983L135.135 363.151L140.319 369.279H138.911L134.335 364.015ZM146.13 360.799C147.186 360.799 148.023 361.109 148.642 361.727C149.271 362.335 149.586 363.226 149.586 364.399V369.279H148.45V364.511C148.45 363.637 148.231 362.97 147.794 362.511C147.356 362.053 146.732 361.823 145.922 361.823C145.015 361.823 144.295 362.095 143.762 362.639C143.239 363.173 142.978 363.914 142.978 364.863V369.279H141.842V360.863H142.93V362.415C143.239 361.903 143.666 361.509 144.21 361.231C144.764 360.943 145.404 360.799 146.13 360.799ZM156.141 369.359C155.331 369.359 154.6 369.178 153.949 368.815C153.299 368.442 152.787 367.93 152.413 367.279C152.04 366.629 151.853 365.893 151.853 365.071C151.853 364.25 152.04 363.514 152.413 362.863C152.787 362.213 153.299 361.706 153.949 361.343C154.6 360.981 155.331 360.799 156.141 360.799C156.952 360.799 157.683 360.981 158.333 361.343C158.984 361.706 159.491 362.213 159.853 362.863C160.227 363.514 160.413 364.25 160.413 365.071C160.413 365.893 160.227 366.629 159.853 367.279C159.491 367.93 158.984 368.442 158.333 368.815C157.683 369.178 156.952 369.359 156.141 369.359ZM156.141 368.351C156.739 368.351 157.272 368.218 157.741 367.951C158.221 367.674 158.595 367.285 158.861 366.783C159.128 366.282 159.261 365.711 159.261 365.071C159.261 364.431 159.128 363.861 158.861 363.359C158.595 362.858 158.221 362.474 157.741 362.207C157.272 361.93 156.739 361.791 156.141 361.791C155.544 361.791 155.005 361.93 154.525 362.207C154.056 362.474 153.683 362.858 153.405 363.359C153.139 363.861 153.005 364.431 153.005 365.071C153.005 365.711 153.139 366.282 153.405 366.783C153.683 367.285 154.056 367.674 154.525 367.951C155.005 368.218 155.544 368.351 156.141 368.351ZM174.85 360.863L171.666 369.279H170.594L167.938 362.383L165.282 369.279H164.21L161.042 360.863H162.13L164.77 368.015L167.474 360.863H168.45L171.138 368.015L173.81 360.863H174.85ZM183.164 359.103H179.228V358.079H188.284V359.103H184.348V369.279H183.164V359.103ZM194.224 360.799C195.28 360.799 196.117 361.109 196.736 361.727C197.365 362.335 197.68 363.226 197.68 364.399V369.279H196.544V364.511C196.544 363.637 196.325 362.97 195.888 362.511C195.45 362.053 194.826 361.823 194.016 361.823C193.109 361.823 192.389 362.095 191.856 362.639C191.333 363.173 191.072 363.914 191.072 364.863V369.279H189.936V357.407H191.072V362.335C191.381 361.845 191.808 361.466 192.352 361.199C192.896 360.933 193.52 360.799 194.224 360.799ZM208.123 365.423H201.083C201.147 366.298 201.483 367.007 202.091 367.551C202.699 368.085 203.467 368.351 204.395 368.351C204.918 368.351 205.398 368.261 205.835 368.079C206.272 367.887 206.651 367.61 206.971 367.247L207.611 367.983C207.238 368.431 206.768 368.773 206.203 369.007C205.648 369.242 205.035 369.359 204.363 369.359C203.499 369.359 202.731 369.178 202.059 368.815C201.398 368.442 200.88 367.93 200.507 367.279C200.134 366.629 199.947 365.893 199.947 365.071C199.947 364.25 200.123 363.514 200.475 362.863C200.838 362.213 201.328 361.706 201.947 361.343C202.576 360.981 203.28 360.799 204.059 360.799C204.838 360.799 205.536 360.981 206.155 361.343C206.774 361.706 207.259 362.213 207.611 362.863C207.963 363.503 208.139 364.239 208.139 365.071L208.123 365.423ZM204.059 361.775C203.248 361.775 202.566 362.037 202.011 362.559C201.467 363.071 201.158 363.743 201.083 364.575H207.051C206.976 363.743 206.662 363.071 206.107 362.559C205.563 362.037 204.88 361.775 204.059 361.775ZM217.967 369.375C217.135 369.375 216.335 369.242 215.567 368.975C214.809 368.709 214.223 368.357 213.807 367.919L214.271 367.007C214.676 367.413 215.215 367.743 215.887 367.999C216.559 368.245 217.252 368.367 217.967 368.367C218.969 368.367 219.721 368.186 220.223 367.823C220.724 367.45 220.975 366.97 220.975 366.383C220.975 365.935 220.836 365.578 220.559 365.311C220.292 365.045 219.961 364.842 219.567 364.703C219.172 364.554 218.623 364.394 217.919 364.223C217.076 364.01 216.404 363.807 215.903 363.615C215.401 363.413 214.969 363.109 214.607 362.703C214.255 362.298 214.079 361.749 214.079 361.055C214.079 360.49 214.228 359.978 214.527 359.519C214.825 359.05 215.284 358.677 215.903 358.399C216.521 358.122 217.289 357.983 218.207 357.983C218.847 357.983 219.471 358.074 220.079 358.255C220.697 358.426 221.231 358.666 221.679 358.975L221.279 359.919C220.809 359.61 220.308 359.381 219.775 359.231C219.241 359.071 218.719 358.991 218.207 358.991C217.225 358.991 216.484 359.183 215.983 359.567C215.492 359.941 215.247 360.426 215.247 361.023C215.247 361.471 215.38 361.834 215.647 362.111C215.924 362.378 216.265 362.586 216.671 362.735C217.087 362.874 217.641 363.029 218.335 363.199C219.156 363.402 219.817 363.605 220.319 363.807C220.831 363.999 221.263 364.298 221.615 364.703C221.967 365.098 222.143 365.637 222.143 366.319C222.143 366.885 221.988 367.402 221.679 367.871C221.38 368.33 220.916 368.698 220.287 368.975C219.657 369.242 218.884 369.375 217.967 369.375ZM228.914 368.767C228.701 368.959 228.434 369.109 228.114 369.215C227.805 369.311 227.48 369.359 227.138 369.359C226.349 369.359 225.741 369.146 225.314 368.719C224.888 368.293 224.674 367.69 224.674 366.911V361.823H223.17V360.863H224.674V359.023H225.81V360.863H228.37V361.823H225.81V366.847C225.81 367.349 225.933 367.733 226.178 367.999C226.434 368.255 226.797 368.383 227.266 368.383C227.501 368.383 227.725 368.346 227.938 368.271C228.162 368.197 228.354 368.09 228.514 367.951L228.914 368.767ZM233.926 360.799C235.025 360.799 235.868 361.077 236.454 361.631C237.041 362.175 237.334 362.986 237.334 364.063V369.279H236.246V367.967C235.99 368.405 235.612 368.746 235.11 368.991C234.62 369.237 234.033 369.359 233.35 369.359C232.412 369.359 231.665 369.135 231.11 368.687C230.556 368.239 230.278 367.647 230.278 366.911C230.278 366.197 230.534 365.621 231.046 365.183C231.569 364.746 232.396 364.527 233.526 364.527H236.198V364.015C236.198 363.29 235.996 362.741 235.59 362.367C235.185 361.983 234.593 361.791 233.814 361.791C233.281 361.791 232.769 361.882 232.278 362.063C231.788 362.234 231.366 362.474 231.014 362.783L230.502 361.935C230.929 361.573 231.441 361.295 232.038 361.103C232.636 360.901 233.265 360.799 233.926 360.799ZM233.526 368.463C234.166 368.463 234.716 368.319 235.174 368.031C235.633 367.733 235.974 367.306 236.198 366.751V365.375H233.558C232.118 365.375 231.398 365.877 231.398 366.879C231.398 367.37 231.585 367.759 231.958 368.047C232.332 368.325 232.854 368.463 233.526 368.463ZM244.852 368.767C244.639 368.959 244.372 369.109 244.052 369.215C243.743 369.311 243.417 369.359 243.076 369.359C242.287 369.359 241.679 369.146 241.252 368.719C240.825 368.293 240.612 367.69 240.612 366.911V361.823H239.108V360.863H240.612V359.023H241.748V360.863H244.308V361.823H241.748V366.847C241.748 367.349 241.871 367.733 242.116 367.999C242.372 368.255 242.735 368.383 243.204 368.383C243.439 368.383 243.663 368.346 243.876 368.271C244.1 368.197 244.292 368.09 244.452 367.951L244.852 368.767ZM253.951 365.423H246.911C246.975 366.298 247.311 367.007 247.919 367.551C248.527 368.085 249.295 368.351 250.223 368.351C250.746 368.351 251.226 368.261 251.663 368.079C252.1 367.887 252.479 367.61 252.799 367.247L253.439 367.983C253.066 368.431 252.596 368.773 252.031 369.007C251.476 369.242 250.863 369.359 250.191 369.359C249.327 369.359 248.559 369.178 247.887 368.815C247.226 368.442 246.708 367.93 246.335 367.279C245.962 366.629 245.775 365.893 245.775 365.071C245.775 364.25 245.951 363.514 246.303 362.863C246.666 362.213 247.156 361.706 247.775 361.343C248.404 360.981 249.108 360.799 249.887 360.799C250.666 360.799 251.364 360.981 251.983 361.343C252.602 361.706 253.087 362.213 253.439 362.863C253.791 363.503 253.967 364.239 253.967 365.071L253.951 365.423ZM249.887 361.775C249.076 361.775 248.394 362.037 247.839 362.559C247.295 363.071 246.986 363.743 246.911 364.575H252.879C252.804 363.743 252.49 363.071 251.935 362.559C251.391 362.037 250.708 361.775 249.887 361.775ZM265.603 369.375C264.493 369.375 263.485 369.13 262.579 368.639C261.683 368.138 260.979 367.455 260.467 366.591C259.965 365.727 259.715 364.757 259.715 363.679C259.715 362.602 259.965 361.631 260.467 360.767C260.979 359.903 261.683 359.226 262.579 358.735C263.485 358.234 264.493 357.983 265.603 357.983C266.712 357.983 267.709 358.229 268.595 358.719C269.491 359.21 270.195 359.893 270.707 360.767C271.219 361.631 271.475 362.602 271.475 363.679C271.475 364.757 271.219 365.733 270.707 366.607C270.195 367.471 269.491 368.149 268.595 368.639C267.709 369.13 266.712 369.375 265.603 369.375ZM265.603 368.319C266.488 368.319 267.288 368.122 268.003 367.727C268.717 367.322 269.277 366.767 269.683 366.063C270.088 365.349 270.291 364.554 270.291 363.679C270.291 362.805 270.088 362.015 269.683 361.311C269.277 360.597 268.717 360.042 268.003 359.647C267.288 359.242 266.488 359.039 265.603 359.039C264.717 359.039 263.912 359.242 263.187 359.647C262.472 360.042 261.907 360.597 261.491 361.311C261.085 362.015 260.883 362.805 260.883 363.679C260.883 364.554 261.085 365.349 261.491 366.063C261.907 366.767 262.472 367.322 263.187 367.727C263.912 368.122 264.717 368.319 265.603 368.319ZM276.673 358.287C276.182 358.287 275.809 358.421 275.553 358.687C275.307 358.954 275.185 359.349 275.185 359.871V360.863H277.777V361.823H275.217V369.279H274.081V361.823H272.577V360.863H274.081V359.823C274.081 359.055 274.299 358.447 274.737 357.999C275.185 357.551 275.814 357.327 276.625 357.327C276.945 357.327 277.254 357.375 277.553 357.471C277.851 357.557 278.102 357.685 278.305 357.855L277.921 358.703C277.59 358.426 277.174 358.287 276.673 358.287ZM149.016 379.103H145.08V378.079H154.136V379.103H150.2V389.279H149.016V379.103ZM160.075 380.799C161.131 380.799 161.968 381.109 162.587 381.727C163.216 382.335 163.531 383.226 163.531 384.399V389.279H162.395V384.511C162.395 383.637 162.176 382.97 161.739 382.511C161.302 382.053 160.678 381.823 159.867 381.823C158.96 381.823 158.24 382.095 157.707 382.639C157.184 383.173 156.923 383.914 156.923 384.863V389.279H155.787V377.407H156.923V382.335C157.232 381.845 157.659 381.466 158.203 381.199C158.747 380.933 159.371 380.799 160.075 380.799ZM166.615 380.863H167.751V389.279H166.615V380.863ZM167.191 379.023C166.957 379.023 166.759 378.943 166.599 378.783C166.439 378.623 166.359 378.431 166.359 378.207C166.359 377.994 166.439 377.807 166.599 377.647C166.759 377.487 166.957 377.407 167.191 377.407C167.426 377.407 167.623 377.487 167.783 377.647C167.943 377.797 168.023 377.978 168.023 378.191C168.023 378.426 167.943 378.623 167.783 378.783C167.623 378.943 167.426 379.023 167.191 379.023ZM175.2 380.799C176.256 380.799 177.093 381.109 177.712 381.727C178.341 382.335 178.656 383.226 178.656 384.399V389.279H177.52V384.511C177.52 383.637 177.301 382.97 176.864 382.511C176.427 382.053 175.803 381.823 174.992 381.823C174.085 381.823 173.365 382.095 172.832 382.639C172.309 383.173 172.048 383.914 172.048 384.863V389.279H170.912V380.863H172V382.415C172.309 381.903 172.736 381.509 173.28 381.231C173.835 380.943 174.475 380.799 175.2 380.799ZM189.564 380.863V388.255C189.564 389.685 189.212 390.741 188.508 391.423C187.814 392.117 186.764 392.463 185.356 392.463C184.577 392.463 183.836 392.346 183.132 392.111C182.438 391.887 181.873 391.573 181.436 391.167L182.012 390.303C182.417 390.666 182.908 390.949 183.484 391.151C184.07 391.354 184.684 391.455 185.324 391.455C186.39 391.455 187.174 391.205 187.676 390.703C188.177 390.213 188.428 389.445 188.428 388.399V387.327C188.076 387.861 187.612 388.266 187.036 388.543C186.47 388.821 185.841 388.959 185.148 388.959C184.358 388.959 183.638 388.789 182.988 388.447C182.348 388.095 181.841 387.61 181.468 386.991C181.105 386.362 180.924 385.653 180.924 384.863C180.924 384.074 181.105 383.37 181.468 382.751C181.841 382.133 182.348 381.653 182.988 381.311C183.628 380.97 184.348 380.799 185.148 380.799C185.862 380.799 186.508 380.943 187.084 381.231C187.66 381.519 188.124 381.935 188.476 382.479V380.863H189.564ZM185.26 387.951C185.868 387.951 186.417 387.823 186.908 387.567C187.398 387.301 187.777 386.933 188.044 386.463C188.321 385.994 188.46 385.461 188.46 384.863C188.46 384.266 188.321 383.738 188.044 383.279C187.777 382.81 187.398 382.447 186.908 382.191C186.428 381.925 185.878 381.791 185.26 381.791C184.652 381.791 184.102 381.919 183.612 382.175C183.132 382.431 182.753 382.794 182.476 383.263C182.209 383.733 182.076 384.266 182.076 384.863C182.076 385.461 182.209 385.994 182.476 386.463C182.753 386.933 183.132 387.301 183.612 387.567C184.102 387.823 184.652 387.951 185.26 387.951ZM194.996 389.359C194.314 389.359 193.658 389.263 193.028 389.071C192.41 388.869 191.924 388.618 191.572 388.319L192.084 387.423C192.436 387.701 192.879 387.93 193.412 388.111C193.946 388.282 194.5 388.367 195.076 388.367C195.844 388.367 196.41 388.25 196.772 388.015C197.146 387.77 197.332 387.429 197.332 386.991C197.332 386.682 197.231 386.442 197.028 386.271C196.826 386.09 196.57 385.957 196.26 385.871C195.951 385.775 195.54 385.685 195.028 385.599C194.346 385.471 193.796 385.343 193.38 385.215C192.964 385.077 192.607 384.847 192.308 384.527C192.02 384.207 191.876 383.765 191.876 383.199C191.876 382.495 192.17 381.919 192.756 381.471C193.343 381.023 194.159 380.799 195.204 380.799C195.748 380.799 196.292 380.874 196.836 381.023C197.38 381.162 197.828 381.349 198.18 381.583L197.684 382.495C196.991 382.015 196.164 381.775 195.204 381.775C194.479 381.775 193.93 381.903 193.556 382.159C193.194 382.415 193.012 382.751 193.012 383.167C193.012 383.487 193.114 383.743 193.316 383.935C193.53 384.127 193.791 384.271 194.1 384.367C194.41 384.453 194.836 384.543 195.38 384.639C196.052 384.767 196.591 384.895 196.996 385.023C197.402 385.151 197.748 385.37 198.036 385.679C198.324 385.989 198.468 386.415 198.468 386.959C198.468 387.695 198.159 388.282 197.54 388.719C196.932 389.146 196.084 389.359 194.996 389.359Z" fill="black" fill-opacity="0.75"/>
<defs>
<filter id="filter0_d" x="0" y="1.2793" width="345" height="483" filterUnits="userSpaceOnUse" color-interpolation-filters="sRGB">
<feFlood flood-opacity="0" result="BackgroundImageFix"/>
<feColorMatrix in="SourceAlpha" type="matrix" values="0 0 0 0 0 0 0 0 0 0 0 0 0 0 0 0 0 0 127 0"/>
<feOffset dy="4"/>
<feGaussianBlur stdDeviation="2"/>
<feColorMatrix type="matrix" values="0 0 0 0 0 0 0 0 0 0 0 0 0 0 0 0 0 0 0.25 0"/>
<feBlend mode="normal" in2="BackgroundImageFix" result="effect1_dropShadow"/>
<feBlend mode="normal" in="SourceGraphic" in2="effect1_dropShadow" result="shape"/>
</filter>
<filter id="filter1_d" x="39.5859" y="0.585938" width="265.387" height="265.387" filterUnits="userSpaceOnUse" color-interpolation-filters="sRGB">
<feFlood flood-opacity="0" result="BackgroundImageFix"/>
<feColorMatrix in="SourceAlpha" type="matrix" values="0 0 0 0 0 0 0 0 0 0 0 0 0 0 0 0 0 0 127 0"/>
<feOffset dy="4"/>
<feGaussianBlur stdDeviation="2"/>
<feColorMatrix type="matrix" values="0 0 0 0 0 0 0 0 0 0 0 0 0 0 0 0 0 0 0.1 0"/>
<feBlend mode="normal" in2="BackgroundImageFix" result="effect1_dropShadow"/>
<feBlend mode="normal" in="SourceGraphic" in2="effect1_dropShadow" result="shape"/>
</filter>
</defs>
</svg>
