<svg width="345" height="485" viewBox="0 0 345 485" fill="none" xmlns="http://www.w3.org/2000/svg">
<g filter="url(#filter0_d)">
<rect x="5" y="2.2793" width="335" height="473" rx="20" fill="#99E7D1"/>
<rect x="4.5" y="1.7793" width="336" height="474" rx="20.5" stroke="#00C48C"/>
</g>
<path d="M88.1 268.279H90.1V280.539H97.68V282.279H88.1V268.279ZM104.098 282.399C103.045 282.399 102.098 282.166 101.258 281.699C100.418 281.233 99.7583 280.593 99.2783 279.779C98.8116 278.953 98.5783 278.019 98.5783 276.979C98.5783 275.939 98.8116 275.013 99.2783 274.199C99.7583 273.373 100.418 272.733 101.258 272.279C102.098 271.813 103.045 271.579 104.098 271.579C105.152 271.579 106.092 271.813 106.918 272.279C107.758 272.733 108.412 273.373 108.878 274.199C109.358 275.013 109.598 275.939 109.598 276.979C109.598 278.019 109.358 278.953 108.878 279.779C108.412 280.593 107.758 281.233 106.918 281.699C106.092 282.166 105.152 282.399 104.098 282.399ZM104.098 280.719C104.778 280.719 105.385 280.566 105.918 280.259C106.465 279.939 106.892 279.499 107.198 278.939C107.505 278.366 107.658 277.713 107.658 276.979C107.658 276.246 107.505 275.599 107.198 275.039C106.892 274.466 106.465 274.026 105.918 273.719C105.385 273.413 104.778 273.259 104.098 273.259C103.418 273.259 102.805 273.413 102.258 273.719C101.725 274.026 101.298 274.466 100.978 275.039C100.672 275.599 100.518 276.246 100.518 276.979C100.518 277.713 100.672 278.366 100.978 278.939C101.298 279.499 101.725 279.939 102.258 280.259C102.805 280.566 103.418 280.719 104.098 280.719ZM116.874 282.399C115.794 282.399 114.827 282.166 113.974 281.699C113.134 281.233 112.474 280.593 111.994 279.779C111.514 278.953 111.274 278.019 111.274 276.979C111.274 275.939 111.514 275.013 111.994 274.199C112.474 273.373 113.134 272.733 113.974 272.279C114.827 271.813 115.794 271.579 116.874 271.579C117.834 271.579 118.687 271.773 119.434 272.159C120.194 272.546 120.78 273.106 121.194 273.839L119.734 274.779C119.4 274.273 118.987 273.893 118.494 273.639C118 273.386 117.454 273.259 116.854 273.259C116.16 273.259 115.534 273.413 114.974 273.719C114.427 274.026 113.994 274.466 113.674 275.039C113.367 275.599 113.214 276.246 113.214 276.979C113.214 277.726 113.367 278.386 113.674 278.959C113.994 279.519 114.427 279.953 114.974 280.259C115.534 280.566 116.16 280.719 116.854 280.719C117.454 280.719 118 280.593 118.494 280.339C118.987 280.086 119.4 279.706 119.734 279.199L121.194 280.119C120.78 280.853 120.194 281.419 119.434 281.819C118.687 282.206 117.834 282.399 116.874 282.399ZM127.539 271.579C129.006 271.579 130.126 271.939 130.899 272.659C131.686 273.379 132.079 274.453 132.079 275.879V282.279H130.259V280.879C129.939 281.373 129.479 281.753 128.879 282.019C128.293 282.273 127.593 282.399 126.779 282.399C125.593 282.399 124.639 282.113 123.919 281.539C123.213 280.966 122.859 280.213 122.859 279.279C122.859 278.346 123.199 277.599 123.879 277.039C124.559 276.466 125.639 276.179 127.119 276.179H130.159V275.799C130.159 274.973 129.919 274.339 129.439 273.899C128.959 273.459 128.253 273.239 127.319 273.239C126.693 273.239 126.079 273.346 125.479 273.559C124.879 273.759 124.373 274.033 123.959 274.379L123.159 272.939C123.706 272.499 124.359 272.166 125.119 271.939C125.879 271.699 126.686 271.579 127.539 271.579ZM127.099 280.919C127.833 280.919 128.466 280.759 128.999 280.439C129.533 280.106 129.919 279.639 130.159 279.039V277.559H127.199C125.573 277.559 124.759 278.106 124.759 279.199C124.759 279.733 124.966 280.153 125.379 280.459C125.793 280.766 126.366 280.919 127.099 280.919ZM141.593 281.659C141.313 281.899 140.966 282.086 140.553 282.219C140.139 282.339 139.713 282.399 139.273 282.399C138.206 282.399 137.379 282.113 136.793 281.539C136.206 280.966 135.913 280.146 135.913 279.079V273.259H134.113V271.679H135.913V269.359H137.833V271.679H140.873V273.259H137.833V278.999C137.833 279.573 137.973 280.013 138.253 280.319C138.546 280.626 138.959 280.779 139.493 280.779C140.079 280.779 140.579 280.613 140.993 280.279L141.593 281.659ZM143.914 271.679H145.834V282.279H143.914V271.679ZM144.874 269.639C144.5 269.639 144.187 269.519 143.934 269.279C143.694 269.039 143.574 268.746 143.574 268.399C143.574 268.053 143.694 267.759 143.934 267.519C144.187 267.266 144.5 267.139 144.874 267.139C145.247 267.139 145.554 267.259 145.794 267.499C146.047 267.726 146.174 268.013 146.174 268.359C146.174 268.719 146.047 269.026 145.794 269.279C145.554 269.519 145.247 269.639 144.874 269.639ZM154.04 282.399C152.986 282.399 152.04 282.166 151.2 281.699C150.36 281.233 149.7 280.593 149.22 279.779C148.753 278.953 148.52 278.019 148.52 276.979C148.52 275.939 148.753 275.013 149.22 274.199C149.7 273.373 150.36 272.733 151.2 272.279C152.04 271.813 152.986 271.579 154.04 271.579C155.093 271.579 156.033 271.813 156.86 272.279C157.7 272.733 158.353 273.373 158.82 274.199C159.3 275.013 159.54 275.939 159.54 276.979C159.54 278.019 159.3 278.953 158.82 279.779C158.353 280.593 157.7 281.233 156.86 281.699C156.033 282.166 155.093 282.399 154.04 282.399ZM154.04 280.719C154.72 280.719 155.326 280.566 155.86 280.259C156.406 279.939 156.833 279.499 157.14 278.939C157.446 278.366 157.6 277.713 157.6 276.979C157.6 276.246 157.446 275.599 157.14 275.039C156.833 274.466 156.406 274.026 155.86 273.719C155.326 273.413 154.72 273.259 154.04 273.259C153.36 273.259 152.746 273.413 152.2 273.719C151.666 274.026 151.24 274.466 150.92 275.039C150.613 275.599 150.46 276.246 150.46 276.979C150.46 277.713 150.613 278.366 150.92 278.939C151.24 279.499 151.666 279.939 152.2 280.259C152.746 280.566 153.36 280.719 154.04 280.719ZM167.855 271.579C169.202 271.579 170.268 271.973 171.055 272.759C171.855 273.533 172.255 274.673 172.255 276.179V282.279H170.335V276.399C170.335 275.373 170.088 274.599 169.595 274.079C169.102 273.559 168.395 273.299 167.475 273.299C166.435 273.299 165.615 273.606 165.015 274.219C164.415 274.819 164.115 275.686 164.115 276.819V282.279H162.195V271.679H164.035V273.279C164.422 272.733 164.942 272.313 165.595 272.019C166.262 271.726 167.015 271.579 167.855 271.579ZM185.539 282.439C184.486 282.439 183.466 282.279 182.479 281.959C181.506 281.626 180.739 281.199 180.179 280.679L180.919 279.119C181.453 279.599 182.133 279.993 182.959 280.299C183.799 280.593 184.659 280.739 185.539 280.739C186.699 280.739 187.566 280.546 188.139 280.159C188.713 279.759 188.999 279.233 188.999 278.579C188.999 278.099 188.839 277.713 188.519 277.419C188.213 277.113 187.826 276.879 187.359 276.719C186.906 276.559 186.259 276.379 185.419 276.179C184.366 275.926 183.513 275.673 182.859 275.419C182.219 275.166 181.666 274.779 181.199 274.259C180.746 273.726 180.519 273.013 180.519 272.119C180.519 271.373 180.713 270.699 181.099 270.099C181.499 269.499 182.099 269.019 182.899 268.659C183.699 268.299 184.693 268.119 185.879 268.119C186.706 268.119 187.519 268.226 188.319 268.439C189.119 268.653 189.806 268.959 190.379 269.359L189.719 270.959C189.133 270.586 188.506 270.306 187.839 270.119C187.173 269.919 186.519 269.819 185.879 269.819C184.746 269.819 183.893 270.026 183.319 270.439C182.759 270.853 182.479 271.386 182.479 272.039C182.479 272.519 182.639 272.913 182.959 273.219C183.279 273.513 183.673 273.746 184.139 273.919C184.619 274.079 185.266 274.253 186.079 274.439C187.133 274.693 187.979 274.946 188.619 275.199C189.259 275.453 189.806 275.839 190.259 276.359C190.726 276.879 190.959 277.579 190.959 278.459C190.959 279.193 190.759 279.866 190.359 280.479C189.959 281.079 189.353 281.559 188.539 281.919C187.726 282.266 186.726 282.439 185.539 282.439ZM199.261 271.579C200.608 271.579 201.675 271.973 202.461 272.759C203.261 273.533 203.661 274.673 203.661 276.179V282.279H201.741V276.399C201.741 275.373 201.495 274.599 201.001 274.079C200.508 273.559 199.801 273.299 198.881 273.299C197.841 273.299 197.021 273.606 196.421 274.219C195.821 274.819 195.521 275.686 195.521 276.819V282.279H193.601V267.439H195.521V273.179C195.921 272.673 196.441 272.279 197.081 271.999C197.735 271.719 198.461 271.579 199.261 271.579ZM211.075 271.579C212.541 271.579 213.661 271.939 214.435 272.659C215.221 273.379 215.615 274.453 215.615 275.879V282.279H213.795V280.879C213.475 281.373 213.015 281.753 212.415 282.019C211.828 282.273 211.128 282.399 210.315 282.399C209.128 282.399 208.175 282.113 207.455 281.539C206.748 280.966 206.395 280.213 206.395 279.279C206.395 278.346 206.735 277.599 207.415 277.039C208.095 276.466 209.175 276.179 210.655 276.179H213.695V275.799C213.695 274.973 213.455 274.339 212.975 273.899C212.495 273.459 211.788 273.239 210.855 273.239C210.228 273.239 209.615 273.346 209.015 273.559C208.415 273.759 207.908 274.033 207.495 274.379L206.695 272.939C207.241 272.499 207.895 272.166 208.655 271.939C209.415 271.699 210.221 271.579 211.075 271.579ZM210.635 280.919C211.368 280.919 212.001 280.759 212.535 280.439C213.068 280.106 213.455 279.639 213.695 279.039V277.559H210.735C209.108 277.559 208.295 278.106 208.295 279.199C208.295 279.733 208.501 280.153 208.915 280.459C209.328 280.766 209.901 280.919 210.635 280.919ZM221.008 273.459C221.341 272.846 221.834 272.379 222.488 272.059C223.141 271.739 223.934 271.579 224.868 271.579V273.439C224.761 273.426 224.614 273.419 224.428 273.419C223.388 273.419 222.568 273.733 221.968 274.359C221.381 274.973 221.088 275.853 221.088 276.999V282.279H219.168V271.679H221.008V273.459ZM227.234 271.679H229.154V282.279H227.234V271.679ZM228.194 269.639C227.821 269.639 227.507 269.519 227.254 269.279C227.014 269.039 226.894 268.746 226.894 268.399C226.894 268.053 227.014 267.759 227.254 267.519C227.507 267.266 227.821 267.139 228.194 267.139C228.567 267.139 228.874 267.259 229.114 267.499C229.367 267.726 229.494 268.013 229.494 268.359C229.494 268.719 229.367 269.026 229.114 269.279C228.874 269.519 228.567 269.639 228.194 269.639ZM238.48 271.579C239.827 271.579 240.893 271.973 241.68 272.759C242.48 273.533 242.88 274.673 242.88 276.179V282.279H240.96V276.399C240.96 275.373 240.713 274.599 240.22 274.079C239.727 273.559 239.02 273.299 238.1 273.299C237.06 273.299 236.24 273.606 235.64 274.219C235.04 274.819 234.74 275.686 234.74 276.819V282.279H232.82V271.679H234.66V273.279C235.047 272.733 235.567 272.313 236.22 272.019C236.887 271.726 237.64 271.579 238.48 271.579ZM256.632 271.679V280.839C256.632 282.693 256.172 284.059 255.252 284.939C254.332 285.833 252.959 286.279 251.132 286.279C250.132 286.279 249.179 286.139 248.272 285.859C247.365 285.593 246.632 285.206 246.072 284.699L246.992 283.219C247.485 283.646 248.092 283.979 248.812 284.219C249.545 284.473 250.299 284.599 251.072 284.599C252.312 284.599 253.225 284.306 253.812 283.719C254.412 283.133 254.712 282.239 254.712 281.039V280.199C254.259 280.746 253.699 281.159 253.032 281.439C252.379 281.706 251.665 281.839 250.892 281.839C249.879 281.839 248.959 281.626 248.132 281.199C247.319 280.759 246.679 280.153 246.212 279.379C245.745 278.593 245.512 277.699 245.512 276.699C245.512 275.699 245.745 274.813 246.212 274.039C246.679 273.253 247.319 272.646 248.132 272.219C248.959 271.793 249.879 271.579 250.892 271.579C251.692 271.579 252.432 271.726 253.112 272.019C253.805 272.313 254.372 272.746 254.812 273.319V271.679H256.632ZM251.112 280.159C251.805 280.159 252.425 280.013 252.972 279.719C253.532 279.426 253.965 279.019 254.272 278.499C254.592 277.966 254.752 277.366 254.752 276.699C254.752 275.673 254.412 274.846 253.732 274.219C253.052 273.579 252.179 273.259 251.112 273.259C250.032 273.259 249.152 273.579 248.472 274.219C247.792 274.846 247.452 275.673 247.452 276.699C247.452 277.366 247.605 277.966 247.912 278.499C248.232 279.019 248.665 279.426 249.212 279.719C249.772 280.013 250.405 280.159 251.112 280.159Z" fill="black"/>
<path d="M75.1464 349.375C74.3144 349.375 73.5144 349.242 72.7464 348.975C71.989 348.709 71.4024 348.357 70.9864 347.919L71.4504 347.007C71.8557 347.413 72.3944 347.743 73.0664 347.999C73.7384 348.245 74.4317 348.367 75.1464 348.367C76.149 348.367 76.901 348.186 77.4024 347.823C77.9037 347.45 78.1544 346.97 78.1544 346.383C78.1544 345.935 78.0157 345.578 77.7384 345.311C77.4717 345.045 77.141 344.842 76.7464 344.703C76.3517 344.554 75.8024 344.394 75.0984 344.223C74.2557 344.01 73.5837 343.807 73.0824 343.615C72.581 343.413 72.149 343.109 71.7864 342.703C71.4344 342.298 71.2584 341.749 71.2584 341.055C71.2584 340.49 71.4077 339.978 71.7064 339.519C72.005 339.05 72.4637 338.677 73.0824 338.399C73.701 338.122 74.469 337.983 75.3864 337.983C76.0264 337.983 76.6504 338.074 77.2584 338.255C77.877 338.426 78.4104 338.666 78.8584 338.975L78.4584 339.919C77.989 339.61 77.4877 339.381 76.9544 339.231C76.421 339.071 75.8984 338.991 75.3864 338.991C74.405 338.991 73.6637 339.183 73.1624 339.567C72.6717 339.941 72.4264 340.426 72.4264 341.023C72.4264 341.471 72.5597 341.834 72.8264 342.111C73.1037 342.378 73.445 342.586 73.8504 342.735C74.2664 342.874 74.821 343.029 75.5144 343.199C76.3357 343.402 76.997 343.605 77.4984 343.807C78.0104 343.999 78.4424 344.298 78.7944 344.703C79.1464 345.098 79.3224 345.637 79.3224 346.319C79.3224 346.885 79.1677 347.402 78.8584 347.871C78.5597 348.33 78.0957 348.698 77.4664 348.975C76.837 349.242 76.0637 349.375 75.1464 349.375ZM85.9501 340.799C87.0061 340.799 87.8435 341.109 88.4621 341.727C89.0915 342.335 89.4061 343.226 89.4061 344.399V349.279H88.2701V344.511C88.2701 343.637 88.0515 342.97 87.6141 342.511C87.1768 342.053 86.5528 341.823 85.7421 341.823C84.8355 341.823 84.1155 342.095 83.5821 342.639C83.0595 343.173 82.7981 343.914 82.7981 344.863V349.279H81.6621V337.407H82.7981V342.335C83.1075 341.845 83.5341 341.466 84.0781 341.199C84.6221 340.933 85.2461 340.799 85.9501 340.799ZM95.4343 340.799C96.5329 340.799 97.3756 341.077 97.9623 341.631C98.5489 342.175 98.8423 342.986 98.8423 344.063V349.279H97.7543V347.967C97.4983 348.405 97.1196 348.746 96.6183 348.991C96.1276 349.237 95.5409 349.359 94.8583 349.359C93.9196 349.359 93.1729 349.135 92.6183 348.687C92.0636 348.239 91.7863 347.647 91.7863 346.911C91.7863 346.197 92.0423 345.621 92.5543 345.183C93.0769 344.746 93.9036 344.527 95.0343 344.527H97.7063V344.015C97.7063 343.29 97.5036 342.741 97.0983 342.367C96.6929 341.983 96.1009 341.791 95.3223 341.791C94.7889 341.791 94.2769 341.882 93.7863 342.063C93.2956 342.234 92.8743 342.474 92.5223 342.783L92.0103 341.935C92.4369 341.573 92.9489 341.295 93.5463 341.103C94.1436 340.901 94.7729 340.799 95.4343 340.799ZM95.0343 348.463C95.6743 348.463 96.2236 348.319 96.6823 348.031C97.1409 347.733 97.4823 347.306 97.7063 346.751V345.375H95.0663C93.6263 345.375 92.9062 345.877 92.9062 346.879C92.9062 347.37 93.0929 347.759 93.4663 348.047C93.8396 348.325 94.3623 348.463 95.0343 348.463ZM103.016 342.511C103.282 341.946 103.677 341.519 104.2 341.231C104.733 340.943 105.389 340.799 106.168 340.799V341.903L105.896 341.887C105.01 341.887 104.317 342.159 103.816 342.703C103.314 343.247 103.064 344.01 103.064 344.991V349.279H101.928V340.863H103.016V342.511ZM115.475 345.423H108.435C108.499 346.298 108.835 347.007 109.443 347.551C110.051 348.085 110.819 348.351 111.747 348.351C112.269 348.351 112.749 348.261 113.187 348.079C113.624 347.887 114.003 347.61 114.323 347.247L114.963 347.983C114.589 348.431 114.12 348.773 113.555 349.007C113 349.242 112.387 349.359 111.715 349.359C110.851 349.359 110.083 349.178 109.411 348.815C108.749 348.442 108.232 347.93 107.859 347.279C107.485 346.629 107.299 345.893 107.299 345.071C107.299 344.25 107.475 343.514 107.827 342.863C108.189 342.213 108.68 341.706 109.299 341.343C109.928 340.981 110.632 340.799 111.411 340.799C112.189 340.799 112.888 340.981 113.507 341.343C114.125 341.706 114.611 342.213 114.963 342.863C115.315 343.503 115.491 344.239 115.491 345.071L115.475 345.423ZM111.411 341.775C110.6 341.775 109.917 342.037 109.363 342.559C108.819 343.071 108.509 343.743 108.435 344.575H114.403C114.328 343.743 114.013 343.071 113.459 342.559C112.915 342.037 112.232 341.775 111.411 341.775ZM126.07 345.407V349.279H124.902V345.407L120.422 338.079H121.686L125.526 344.367L129.366 338.079H130.55L126.07 345.407ZM134.633 349.359C133.823 349.359 133.092 349.178 132.441 348.815C131.791 348.442 131.279 347.93 130.905 347.279C130.532 346.629 130.345 345.893 130.345 345.071C130.345 344.25 130.532 343.514 130.905 342.863C131.279 342.213 131.791 341.706 132.441 341.343C133.092 340.981 133.823 340.799 134.633 340.799C135.444 340.799 136.175 340.981 136.825 341.343C137.476 341.706 137.983 342.213 138.345 342.863C138.719 343.514 138.905 344.25 138.905 345.071C138.905 345.893 138.719 346.629 138.345 347.279C137.983 347.93 137.476 348.442 136.825 348.815C136.175 349.178 135.444 349.359 134.633 349.359ZM134.633 348.351C135.231 348.351 135.764 348.218 136.233 347.951C136.713 347.674 137.087 347.285 137.353 346.783C137.62 346.282 137.753 345.711 137.753 345.071C137.753 344.431 137.62 343.861 137.353 343.359C137.087 342.858 136.713 342.474 136.233 342.207C135.764 341.93 135.231 341.791 134.633 341.791C134.036 341.791 133.497 341.93 133.017 342.207C132.548 342.474 132.175 342.858 131.897 343.359C131.631 343.861 131.497 344.431 131.497 345.071C131.497 345.711 131.631 346.282 131.897 346.783C132.175 347.285 132.548 347.674 133.017 347.951C133.497 348.218 134.036 348.351 134.633 348.351ZM148.809 340.863V349.279H147.721V347.743C147.422 348.255 147.011 348.655 146.489 348.943C145.966 349.221 145.369 349.359 144.697 349.359C143.598 349.359 142.729 349.055 142.089 348.447C141.459 347.829 141.145 346.927 141.145 345.743V340.863H142.281V345.631C142.281 346.517 142.499 347.189 142.937 347.647C143.374 348.106 143.998 348.335 144.809 348.335C145.694 348.335 146.393 348.069 146.905 347.535C147.417 346.991 147.673 346.239 147.673 345.279V340.863H148.809ZM153.078 342.511C153.345 341.946 153.74 341.519 154.262 341.231C154.796 340.943 155.452 340.799 156.23 340.799V341.903L155.958 341.887C155.073 341.887 154.38 342.159 153.878 342.703C153.377 343.247 153.126 344.01 153.126 344.991V349.279H151.99V340.863H153.078V342.511ZM162.84 338.079H164.024V348.255H170.296V349.279H162.84V338.079ZM175.337 349.359C174.526 349.359 173.795 349.178 173.145 348.815C172.494 348.442 171.982 347.93 171.609 347.279C171.235 346.629 171.049 345.893 171.049 345.071C171.049 344.25 171.235 343.514 171.609 342.863C171.982 342.213 172.494 341.706 173.145 341.343C173.795 340.981 174.526 340.799 175.337 340.799C176.147 340.799 176.878 340.981 177.529 341.343C178.179 341.706 178.686 342.213 179.049 342.863C179.422 343.514 179.609 344.25 179.609 345.071C179.609 345.893 179.422 346.629 179.049 347.279C178.686 347.93 178.179 348.442 177.529 348.815C176.878 349.178 176.147 349.359 175.337 349.359ZM175.337 348.351C175.934 348.351 176.467 348.218 176.937 347.951C177.417 347.674 177.79 347.285 178.057 346.783C178.323 346.282 178.457 345.711 178.457 345.071C178.457 344.431 178.323 343.861 178.057 343.359C177.79 342.858 177.417 342.474 176.937 342.207C176.467 341.93 175.934 341.791 175.337 341.791C174.739 341.791 174.201 341.93 173.721 342.207C173.251 342.474 172.878 342.858 172.601 343.359C172.334 343.861 172.201 344.431 172.201 345.071C172.201 345.711 172.334 346.282 172.601 346.783C172.878 347.285 173.251 347.674 173.721 347.951C174.201 348.218 174.739 348.351 175.337 348.351ZM185.416 349.359C184.584 349.359 183.837 349.178 183.176 348.815C182.525 348.453 182.013 347.946 181.64 347.295C181.266 346.634 181.08 345.893 181.08 345.071C181.08 344.25 181.266 343.514 181.64 342.863C182.013 342.213 182.525 341.706 183.176 341.343C183.837 340.981 184.584 340.799 185.416 340.799C186.141 340.799 186.786 340.943 187.352 341.231C187.928 341.509 188.381 341.919 188.712 342.463L187.864 343.039C187.586 342.623 187.234 342.314 186.808 342.111C186.381 341.898 185.917 341.791 185.416 341.791C184.808 341.791 184.258 341.93 183.768 342.207C183.288 342.474 182.909 342.858 182.632 343.359C182.365 343.861 182.232 344.431 182.232 345.071C182.232 345.722 182.365 346.298 182.632 346.799C182.909 347.29 183.288 347.674 183.768 347.951C184.258 348.218 184.808 348.351 185.416 348.351C185.917 348.351 186.381 348.25 186.808 348.047C187.234 347.845 187.586 347.535 187.864 347.119L188.712 347.695C188.381 348.239 187.928 348.655 187.352 348.943C186.776 349.221 186.13 349.359 185.416 349.359ZM193.887 340.799C194.986 340.799 195.829 341.077 196.415 341.631C197.002 342.175 197.295 342.986 197.295 344.063V349.279H196.207V347.967C195.951 348.405 195.573 348.746 195.071 348.991C194.581 349.237 193.994 349.359 193.311 349.359C192.373 349.359 191.626 349.135 191.071 348.687C190.517 348.239 190.239 347.647 190.239 346.911C190.239 346.197 190.495 345.621 191.007 345.183C191.53 344.746 192.357 344.527 193.487 344.527H196.159V344.015C196.159 343.29 195.957 342.741 195.551 342.367C195.146 341.983 194.554 341.791 193.775 341.791C193.242 341.791 192.73 341.882 192.239 342.063C191.749 342.234 191.327 342.474 190.975 342.783L190.463 341.935C190.89 341.573 191.402 341.295 191.999 341.103C192.597 340.901 193.226 340.799 193.887 340.799ZM193.487 348.463C194.127 348.463 194.677 348.319 195.135 348.031C195.594 347.733 195.935 347.306 196.159 346.751V345.375H193.519C192.079 345.375 191.359 345.877 191.359 346.879C191.359 347.37 191.546 347.759 191.919 348.047C192.293 348.325 192.815 348.463 193.487 348.463ZM204.813 348.767C204.6 348.959 204.333 349.109 204.013 349.215C203.704 349.311 203.378 349.359 203.037 349.359C202.248 349.359 201.64 349.146 201.213 348.719C200.786 348.293 200.573 347.69 200.573 346.911V341.823H199.069V340.863H200.573V339.023H201.709V340.863H204.269V341.823H201.709V346.847C201.709 347.349 201.832 347.733 202.077 347.999C202.333 348.255 202.696 348.383 203.165 348.383C203.4 348.383 203.624 348.346 203.837 348.271C204.061 348.197 204.253 348.09 204.413 347.951L204.813 348.767ZM206.881 340.863H208.017V349.279H206.881V340.863ZM207.457 339.023C207.222 339.023 207.025 338.943 206.865 338.783C206.705 338.623 206.625 338.431 206.625 338.207C206.625 337.994 206.705 337.807 206.865 337.647C207.025 337.487 207.222 337.407 207.457 337.407C207.692 337.407 207.889 337.487 208.049 337.647C208.209 337.797 208.289 337.978 208.289 338.191C208.289 338.426 208.209 338.623 208.049 338.783C207.889 338.943 207.692 339.023 207.457 339.023ZM214.618 349.359C213.807 349.359 213.076 349.178 212.426 348.815C211.775 348.442 211.263 347.93 210.89 347.279C210.516 346.629 210.33 345.893 210.33 345.071C210.33 344.25 210.516 343.514 210.89 342.863C211.263 342.213 211.775 341.706 212.426 341.343C213.076 340.981 213.807 340.799 214.618 340.799C215.428 340.799 216.159 340.981 216.81 341.343C217.46 341.706 217.967 342.213 218.33 342.863C218.703 343.514 218.89 344.25 218.89 345.071C218.89 345.893 218.703 346.629 218.33 347.279C217.967 347.93 217.46 348.442 216.81 348.815C216.159 349.178 215.428 349.359 214.618 349.359ZM214.618 348.351C215.215 348.351 215.748 348.218 216.218 347.951C216.698 347.674 217.071 347.285 217.338 346.783C217.604 346.282 217.738 345.711 217.738 345.071C217.738 344.431 217.604 343.861 217.338 343.359C217.071 342.858 216.698 342.474 216.218 342.207C215.748 341.93 215.215 341.791 214.618 341.791C214.02 341.791 213.482 341.93 213.002 342.207C212.532 342.474 212.159 342.858 211.882 343.359C211.615 343.861 211.482 344.431 211.482 345.071C211.482 345.711 211.615 346.282 211.882 346.783C212.159 347.285 212.532 347.674 213.002 347.951C213.482 348.218 214.02 348.351 214.618 348.351ZM225.497 340.799C226.553 340.799 227.39 341.109 228.009 341.727C228.638 342.335 228.953 343.226 228.953 344.399V349.279H227.817V344.511C227.817 343.637 227.598 342.97 227.161 342.511C226.724 342.053 226.1 341.823 225.289 341.823C224.382 341.823 223.662 342.095 223.129 342.639C222.606 343.173 222.345 343.914 222.345 344.863V349.279H221.209V340.863H222.297V342.415C222.606 341.903 223.033 341.509 223.577 341.231C224.132 340.943 224.772 340.799 225.497 340.799ZM251.841 338.079L248.065 349.279H246.817L243.537 339.727L240.241 349.279H239.009L235.233 338.079H236.449L239.681 347.711L243.025 338.079H244.129L247.425 347.759L250.705 338.079H251.841ZM253.725 340.863H254.861V349.279H253.725V340.863ZM254.301 339.023C254.066 339.023 253.869 338.943 253.709 338.783C253.549 338.623 253.469 338.431 253.469 338.207C253.469 337.994 253.549 337.807 253.709 337.647C253.869 337.487 254.066 337.407 254.301 337.407C254.535 337.407 254.733 337.487 254.893 337.647C255.053 337.797 255.133 337.978 255.133 338.191C255.133 338.426 255.053 338.623 254.893 338.783C254.733 338.943 254.535 339.023 254.301 339.023ZM262.454 348.767C262.24 348.959 261.974 349.109 261.654 349.215C261.344 349.311 261.019 349.359 260.678 349.359C259.888 349.359 259.28 349.146 258.854 348.719C258.427 348.293 258.214 347.69 258.214 346.911V341.823H256.71V340.863H258.214V339.023H259.35V340.863H261.91V341.823H259.35V346.847C259.35 347.349 259.472 347.733 259.718 347.999C259.974 348.255 260.336 348.383 260.806 348.383C261.04 348.383 261.264 348.346 261.478 348.271C261.702 348.197 261.894 348.09 262.054 347.951L262.454 348.767ZM268.81 340.799C269.866 340.799 270.703 341.109 271.322 341.727C271.951 342.335 272.266 343.226 272.266 344.399V349.279H271.13V344.511C271.13 343.637 270.911 342.97 270.474 342.511C270.036 342.053 269.412 341.823 268.602 341.823C267.695 341.823 266.975 342.095 266.442 342.639C265.919 343.173 265.658 343.914 265.658 344.863V349.279H264.522V337.407H265.658V342.335C265.967 341.845 266.394 341.466 266.938 341.199C267.482 340.933 268.106 340.799 268.81 340.799ZM61.6094 359.103H57.6734V358.079H66.7294V359.103H62.7934V369.279H61.6094V359.103ZM69.2501 362.511C69.5168 361.946 69.9115 361.519 70.4341 361.231C70.9675 360.943 71.6235 360.799 72.4021 360.799V361.903L72.1301 361.887C71.2448 361.887 70.5515 362.159 70.0501 362.703C69.5488 363.247 69.2981 364.01 69.2981 364.991V369.279H68.1621V360.863H69.2501V362.511ZM82.168 360.863V369.279H81.08V367.743C80.7813 368.255 80.3707 368.655 79.848 368.943C79.3253 369.221 78.728 369.359 78.056 369.359C76.9573 369.359 76.088 369.055 75.448 368.447C74.8187 367.829 74.504 366.927 74.504 365.743V360.863H75.64V365.631C75.64 366.517 75.8587 367.189 76.296 367.647C76.7333 368.106 77.3573 368.335 78.168 368.335C79.0533 368.335 79.752 368.069 80.264 367.535C80.776 366.991 81.032 366.239 81.032 365.279V360.863H82.168ZM87.6056 369.359C86.923 369.359 86.267 369.263 85.6376 369.071C85.019 368.869 84.5336 368.618 84.1816 368.319L84.6936 367.423C85.0456 367.701 85.4883 367.93 86.0216 368.111C86.555 368.282 87.1096 368.367 87.6856 368.367C88.4536 368.367 89.019 368.25 89.3816 368.015C89.755 367.77 89.9416 367.429 89.9416 366.991C89.9416 366.682 89.8403 366.442 89.6376 366.271C89.435 366.09 89.179 365.957 88.8696 365.871C88.5603 365.775 88.1496 365.685 87.6376 365.599C86.955 365.471 86.4056 365.343 85.9896 365.215C85.5736 365.077 85.2163 364.847 84.9176 364.527C84.6296 364.207 84.4856 363.765 84.4856 363.199C84.4856 362.495 84.779 361.919 85.3656 361.471C85.9523 361.023 86.7683 360.799 87.8136 360.799C88.3576 360.799 88.9016 360.874 89.4456 361.023C89.9896 361.162 90.4376 361.349 90.7896 361.583L90.2936 362.495C89.6003 362.015 88.7736 361.775 87.8136 361.775C87.0883 361.775 86.539 361.903 86.1656 362.159C85.803 362.415 85.6216 362.751 85.6216 363.167C85.6216 363.487 85.723 363.743 85.9256 363.935C86.139 364.127 86.4003 364.271 86.7096 364.367C87.019 364.453 87.4456 364.543 87.9896 364.639C88.6616 364.767 89.2003 364.895 89.6056 365.023C90.011 365.151 90.3576 365.37 90.6456 365.679C90.9336 365.989 91.0776 366.415 91.0776 366.959C91.0776 367.695 90.7683 368.282 90.1496 368.719C89.5416 369.146 88.6936 369.359 87.6056 369.359ZM97.6098 368.767C97.3964 368.959 97.1298 369.109 96.8098 369.215C96.5004 369.311 96.1751 369.359 95.8338 369.359C95.0444 369.359 94.4364 369.146 94.0098 368.719C93.5831 368.293 93.3698 367.69 93.3698 366.911V361.823H91.8658V360.863H93.3698V359.023H94.5058V360.863H97.0658V361.823H94.5058V366.847C94.5058 367.349 94.6284 367.733 94.8738 367.999C95.1298 368.255 95.4924 368.383 95.9618 368.383C96.1964 368.383 96.4204 368.346 96.6338 368.271C96.8578 368.197 97.0498 368.09 97.2098 367.951L97.6098 368.767ZM106.709 365.423H99.6689C99.7329 366.298 100.069 367.007 100.677 367.551C101.285 368.085 102.053 368.351 102.981 368.351C103.504 368.351 103.984 368.261 104.421 368.079C104.858 367.887 105.237 367.61 105.557 367.247L106.197 367.983C105.824 368.431 105.354 368.773 104.789 369.007C104.234 369.242 103.621 369.359 102.949 369.359C102.085 369.359 101.317 369.178 100.645 368.815C99.9835 368.442 99.4662 367.93 99.0929 367.279C98.7195 366.629 98.5329 365.893 98.5329 365.071C98.5329 364.25 98.7089 363.514 99.0609 362.863C99.4235 362.213 99.9142 361.706 100.533 361.343C101.162 360.981 101.866 360.799 102.645 360.799C103.424 360.799 104.122 360.981 104.741 361.343C105.36 361.706 105.845 362.213 106.197 362.863C106.549 363.503 106.725 364.239 106.725 365.071L106.709 365.423ZM102.645 361.775C101.834 361.775 101.152 362.037 100.597 362.559C100.053 363.071 99.7435 363.743 99.6689 364.575H105.637C105.562 363.743 105.248 363.071 104.693 362.559C104.149 362.037 103.466 361.775 102.645 361.775ZM116.717 357.407V369.279H115.629V367.615C115.288 368.181 114.834 368.613 114.269 368.911C113.714 369.21 113.085 369.359 112.381 369.359C111.592 369.359 110.877 369.178 110.237 368.815C109.597 368.453 109.096 367.946 108.733 367.295C108.37 366.645 108.189 365.903 108.189 365.071C108.189 364.239 108.37 363.498 108.733 362.847C109.096 362.197 109.597 361.695 110.237 361.343C110.877 360.981 111.592 360.799 112.381 360.799C113.064 360.799 113.677 360.943 114.221 361.231C114.776 361.509 115.229 361.919 115.581 362.463V357.407H116.717ZM112.477 368.351C113.064 368.351 113.592 368.218 114.061 367.951C114.541 367.674 114.914 367.285 115.181 366.783C115.458 366.282 115.597 365.711 115.597 365.071C115.597 364.431 115.458 363.861 115.181 363.359C114.914 362.858 114.541 362.474 114.061 362.207C113.592 361.93 113.064 361.791 112.477 361.791C111.88 361.791 111.341 361.93 110.861 362.207C110.392 362.474 110.018 362.858 109.741 363.359C109.474 363.861 109.341 364.431 109.341 365.071C109.341 365.711 109.474 366.282 109.741 366.783C110.018 367.285 110.392 367.674 110.861 367.951C111.341 368.218 111.88 368.351 112.477 368.351ZM124.308 358.079H125.492V369.279H124.308V358.079ZM133.185 360.799C134.241 360.799 135.078 361.109 135.697 361.727C136.326 362.335 136.641 363.226 136.641 364.399V369.279H135.505V364.511C135.505 363.637 135.286 362.97 134.849 362.511C134.411 362.053 133.787 361.823 132.977 361.823C132.07 361.823 131.35 362.095 130.817 362.639C130.294 363.173 130.033 363.914 130.033 364.863V369.279H128.897V360.863H129.985V362.415C130.294 361.903 130.721 361.509 131.265 361.231C131.819 360.943 132.459 360.799 133.185 360.799ZM147.436 357.407V369.279H146.348V367.615C146.007 368.181 145.553 368.613 144.988 368.911C144.433 369.21 143.804 369.359 143.1 369.359C142.311 369.359 141.596 369.178 140.956 368.815C140.316 368.453 139.815 367.946 139.452 367.295C139.089 366.645 138.908 365.903 138.908 365.071C138.908 364.239 139.089 363.498 139.452 362.847C139.815 362.197 140.316 361.695 140.956 361.343C141.596 360.981 142.311 360.799 143.1 360.799C143.783 360.799 144.396 360.943 144.94 361.231C145.495 361.509 145.948 361.919 146.3 362.463V357.407H147.436ZM143.196 368.351C143.783 368.351 144.311 368.218 144.78 367.951C145.26 367.674 145.633 367.285 145.9 366.783C146.177 366.282 146.316 365.711 146.316 365.071C146.316 364.431 146.177 363.861 145.9 363.359C145.633 362.858 145.26 362.474 144.78 362.207C144.311 361.93 143.783 361.791 143.196 361.791C142.599 361.791 142.06 361.93 141.58 362.207C141.111 362.474 140.737 362.858 140.46 363.359C140.193 363.861 140.06 364.431 140.06 365.071C140.06 365.711 140.193 366.282 140.46 366.783C140.737 367.285 141.111 367.674 141.58 367.951C142.06 368.218 142.599 368.351 143.196 368.351ZM150.6 360.863H151.736V369.279H150.6V360.863ZM151.176 359.023C150.941 359.023 150.744 358.943 150.584 358.783C150.424 358.623 150.344 358.431 150.344 358.207C150.344 357.994 150.424 357.807 150.584 357.647C150.744 357.487 150.941 357.407 151.176 357.407C151.41 357.407 151.608 357.487 151.768 357.647C151.928 357.797 152.008 357.978 152.008 358.191C152.008 358.426 151.928 358.623 151.768 358.783C151.608 358.943 151.41 359.023 151.176 359.023ZM161.969 360.863L158.225 369.279H157.057L153.329 360.863H154.513L157.665 368.031L160.849 360.863H161.969ZM163.568 360.863H164.704V369.279H163.568V360.863ZM164.144 359.023C163.91 359.023 163.712 358.943 163.552 358.783C163.392 358.623 163.312 358.431 163.312 358.207C163.312 357.994 163.392 357.807 163.552 357.647C163.712 357.487 163.91 357.407 164.144 357.407C164.379 357.407 164.576 357.487 164.736 357.647C164.896 357.797 164.976 357.978 164.976 358.191C164.976 358.426 164.896 358.623 164.736 358.783C164.576 358.943 164.379 359.023 164.144 359.023ZM175.545 357.407V369.279H174.457V367.615C174.116 368.181 173.663 368.613 173.097 368.911C172.543 369.21 171.913 369.359 171.209 369.359C170.42 369.359 169.705 369.178 169.065 368.815C168.425 368.453 167.924 367.946 167.561 367.295C167.199 366.645 167.017 365.903 167.017 365.071C167.017 364.239 167.199 363.498 167.561 362.847C167.924 362.197 168.425 361.695 169.065 361.343C169.705 360.981 170.42 360.799 171.209 360.799C171.892 360.799 172.505 360.943 173.049 361.231C173.604 361.509 174.057 361.919 174.409 362.463V357.407H175.545ZM171.305 368.351C171.892 368.351 172.42 368.218 172.889 367.951C173.369 367.674 173.743 367.285 174.009 366.783C174.287 366.282 174.425 365.711 174.425 365.071C174.425 364.431 174.287 363.861 174.009 363.359C173.743 362.858 173.369 362.474 172.889 362.207C172.42 361.93 171.892 361.791 171.305 361.791C170.708 361.791 170.169 361.93 169.689 362.207C169.22 362.474 168.847 362.858 168.569 363.359C168.303 363.861 168.169 364.431 168.169 365.071C168.169 365.711 168.303 366.282 168.569 366.783C168.847 367.285 169.22 367.674 169.689 367.951C170.169 368.218 170.708 368.351 171.305 368.351ZM186.293 360.863V369.279H185.205V367.743C184.906 368.255 184.496 368.655 183.973 368.943C183.45 369.221 182.853 369.359 182.181 369.359C181.082 369.359 180.213 369.055 179.573 368.447C178.944 367.829 178.629 366.927 178.629 365.743V360.863H179.765V365.631C179.765 366.517 179.984 367.189 180.421 367.647C180.858 368.106 181.482 368.335 182.293 368.335C183.178 368.335 183.877 368.069 184.389 367.535C184.901 366.991 185.157 366.239 185.157 365.279V360.863H186.293ZM192.419 360.799C193.517 360.799 194.36 361.077 194.947 361.631C195.533 362.175 195.827 362.986 195.827 364.063V369.279H194.739V367.967C194.483 368.405 194.104 368.746 193.603 368.991C193.112 369.237 192.525 369.359 191.843 369.359C190.904 369.359 190.157 369.135 189.603 368.687C189.048 368.239 188.771 367.647 188.771 366.911C188.771 366.197 189.027 365.621 189.539 365.183C190.061 364.746 190.888 364.527 192.019 364.527H194.691V364.015C194.691 363.29 194.488 362.741 194.083 362.367C193.677 361.983 193.085 361.791 192.307 361.791C191.773 361.791 191.261 361.882 190.771 362.063C190.28 362.234 189.859 362.474 189.507 362.783L188.995 361.935C189.421 361.573 189.933 361.295 190.531 361.103C191.128 360.901 191.757 360.799 192.419 360.799ZM192.019 368.463C192.659 368.463 193.208 368.319 193.667 368.031C194.125 367.733 194.467 367.306 194.691 366.751V365.375H192.051C190.611 365.375 189.891 365.877 189.891 366.879C189.891 367.37 190.077 367.759 190.451 368.047C190.824 368.325 191.347 368.463 192.019 368.463ZM198.912 357.407H200.048V369.279H198.912V357.407ZM214.661 366.287H208.421L207.077 369.279H205.845L210.965 358.079H212.133L217.253 369.279H216.005L214.661 366.287ZM214.229 365.327L211.541 359.311L208.853 365.327H214.229ZM223.153 360.799C224.209 360.799 225.047 361.109 225.665 361.727C226.295 362.335 226.609 363.226 226.609 364.399V369.279H225.473V364.511C225.473 363.637 225.255 362.97 224.817 362.511C224.38 362.053 223.756 361.823 222.945 361.823C222.039 361.823 221.319 362.095 220.785 362.639C220.263 363.173 220.001 363.914 220.001 364.863V369.279H218.865V360.863H219.953V362.415C220.263 361.903 220.689 361.509 221.233 361.231C221.788 360.943 222.428 360.799 223.153 360.799ZM237.405 357.407V369.279H236.317V367.615C235.975 368.181 235.522 368.613 234.957 368.911C234.402 369.21 233.773 369.359 233.069 369.359C232.279 369.359 231.565 369.178 230.925 368.815C230.285 368.453 229.783 367.946 229.421 367.295C229.058 366.645 228.877 365.903 228.877 365.071C228.877 364.239 229.058 363.498 229.421 362.847C229.783 362.197 230.285 361.695 230.925 361.343C231.565 360.981 232.279 360.799 233.069 360.799C233.751 360.799 234.365 360.943 234.909 361.231C235.463 361.509 235.917 361.919 236.269 362.463V357.407H237.405ZM233.165 368.351C233.751 368.351 234.279 368.218 234.749 367.951C235.229 367.674 235.602 367.285 235.869 366.783C236.146 366.282 236.285 365.711 236.285 365.071C236.285 364.431 236.146 363.861 235.869 363.359C235.602 362.858 235.229 362.474 234.749 362.207C234.279 361.93 233.751 361.791 233.165 361.791C232.567 361.791 232.029 361.93 231.549 362.207C231.079 362.474 230.706 362.858 230.429 363.359C230.162 363.861 230.029 364.431 230.029 365.071C230.029 365.711 230.162 366.282 230.429 366.783C230.706 367.285 231.079 367.674 231.549 367.951C232.029 368.218 232.567 368.351 233.165 368.351ZM247.172 359.103H243.236V358.079H252.292V359.103H248.356V369.279H247.172V359.103ZM254.813 362.511C255.079 361.946 255.474 361.519 255.997 361.231C256.53 360.943 257.186 360.799 257.965 360.799V361.903L257.693 361.887C256.807 361.887 256.114 362.159 255.613 362.703C255.111 363.247 254.861 364.01 254.861 364.991V369.279H253.725V360.863H254.813V362.511ZM262.95 360.799C264.049 360.799 264.891 361.077 265.478 361.631C266.065 362.175 266.358 362.986 266.358 364.063V369.279H265.27V367.967C265.014 368.405 264.635 368.746 264.134 368.991C263.643 369.237 263.057 369.359 262.374 369.359C261.435 369.359 260.689 369.135 260.134 368.687C259.579 368.239 259.302 367.647 259.302 366.911C259.302 366.197 259.558 365.621 260.07 365.183C260.593 364.746 261.419 364.527 262.55 364.527H265.222V364.015C265.222 363.29 265.019 362.741 264.614 362.367C264.209 361.983 263.617 361.791 262.838 361.791C262.305 361.791 261.793 361.882 261.302 362.063C260.811 362.234 260.39 362.474 260.038 362.783L259.526 361.935C259.953 361.573 260.465 361.295 261.062 361.103C261.659 360.901 262.289 360.799 262.95 360.799ZM262.55 368.463C263.19 368.463 263.739 368.319 264.198 368.031C264.657 367.733 264.998 367.306 265.222 366.751V365.375H262.582C261.142 365.375 260.422 365.877 260.422 366.879C260.422 367.37 260.609 367.759 260.982 368.047C261.355 368.325 261.878 368.463 262.55 368.463ZM272.963 369.359C272.131 369.359 271.384 369.178 270.723 368.815C270.072 368.453 269.56 367.946 269.187 367.295C268.813 366.634 268.627 365.893 268.627 365.071C268.627 364.25 268.813 363.514 269.187 362.863C269.56 362.213 270.072 361.706 270.723 361.343C271.384 360.981 272.131 360.799 272.963 360.799C273.688 360.799 274.333 360.943 274.899 361.231C275.475 361.509 275.928 361.919 276.259 362.463L275.411 363.039C275.133 362.623 274.781 362.314 274.355 362.111C273.928 361.898 273.464 361.791 272.963 361.791C272.355 361.791 271.805 361.93 271.315 362.207C270.835 362.474 270.456 362.858 270.179 363.359C269.912 363.861 269.779 364.431 269.779 365.071C269.779 365.722 269.912 366.298 270.179 366.799C270.456 367.29 270.835 367.674 271.315 367.951C271.805 368.218 272.355 368.351 272.963 368.351C273.464 368.351 273.928 368.25 274.355 368.047C274.781 367.845 275.133 367.535 275.411 367.119L276.259 367.695C275.928 368.239 275.475 368.655 274.899 368.943C274.323 369.221 273.677 369.359 272.963 369.359ZM281.485 365.055L279.501 366.879V369.279H278.365V357.407H279.501V365.455L284.525 360.863H285.933L282.333 364.303L286.269 369.279H284.877L281.485 365.055ZM78.5037 378.079H79.6877V388.255H85.9597V389.279H78.5037V378.079ZM91.0006 389.359C90.1899 389.359 89.4592 389.178 88.8086 388.815C88.1579 388.442 87.6459 387.93 87.2726 387.279C86.8992 386.629 86.7126 385.893 86.7126 385.071C86.7126 384.25 86.8992 383.514 87.2726 382.863C87.6459 382.213 88.1579 381.706 88.8086 381.343C89.4592 380.981 90.1899 380.799 91.0006 380.799C91.8112 380.799 92.5419 380.981 93.1926 381.343C93.8432 381.706 94.3499 382.213 94.7126 382.863C95.0859 383.514 95.2726 384.25 95.2726 385.071C95.2726 385.893 95.0859 386.629 94.7126 387.279C94.3499 387.93 93.8432 388.442 93.1926 388.815C92.5419 389.178 91.8112 389.359 91.0006 389.359ZM91.0006 388.351C91.5979 388.351 92.1312 388.218 92.6006 387.951C93.0806 387.674 93.4539 387.285 93.7206 386.783C93.9872 386.282 94.1206 385.711 94.1206 385.071C94.1206 384.431 93.9872 383.861 93.7206 383.359C93.4539 382.858 93.0806 382.474 92.6006 382.207C92.1312 381.93 91.5979 381.791 91.0006 381.791C90.4032 381.791 89.8646 381.93 89.3846 382.207C88.9152 382.474 88.5419 382.858 88.2646 383.359C87.9979 383.861 87.8646 384.431 87.8646 385.071C87.8646 385.711 87.9979 386.282 88.2646 386.783C88.5419 387.285 88.9152 387.674 89.3846 387.951C89.8646 388.218 90.4032 388.351 91.0006 388.351ZM101.08 389.359C100.248 389.359 99.5011 389.178 98.8398 388.815C98.1891 388.453 97.6771 387.946 97.3038 387.295C96.9305 386.634 96.7438 385.893 96.7438 385.071C96.7438 384.25 96.9305 383.514 97.3038 382.863C97.6771 382.213 98.1891 381.706 98.8398 381.343C99.5011 380.981 100.248 380.799 101.08 380.799C101.805 380.799 102.45 380.943 103.016 381.231C103.592 381.509 104.045 381.919 104.376 382.463L103.528 383.039C103.25 382.623 102.898 382.314 102.472 382.111C102.045 381.898 101.581 381.791 101.08 381.791C100.472 381.791 99.9225 381.93 99.4318 382.207C98.9518 382.474 98.5731 382.858 98.2958 383.359C98.0291 383.861 97.8958 384.431 97.8958 385.071C97.8958 385.722 98.0291 386.298 98.2958 386.799C98.5731 387.29 98.9518 387.674 99.4318 387.951C99.9225 388.218 100.472 388.351 101.08 388.351C101.581 388.351 102.045 388.25 102.472 388.047C102.898 387.845 103.25 387.535 103.528 387.119L104.376 387.695C104.045 388.239 103.592 388.655 103.016 388.943C102.44 389.221 101.794 389.359 101.08 389.359ZM109.551 380.799C110.65 380.799 111.493 381.077 112.079 381.631C112.666 382.175 112.959 382.986 112.959 384.063V389.279H111.871V387.967C111.615 388.405 111.237 388.746 110.735 388.991C110.245 389.237 109.658 389.359 108.975 389.359C108.037 389.359 107.29 389.135 106.735 388.687C106.181 388.239 105.903 387.647 105.903 386.911C105.903 386.197 106.159 385.621 106.671 385.183C107.194 384.746 108.021 384.527 109.151 384.527H111.823V384.015C111.823 383.29 111.621 382.741 111.215 382.367C110.81 381.983 110.218 381.791 109.439 381.791C108.906 381.791 108.394 381.882 107.903 382.063C107.413 382.234 106.991 382.474 106.639 382.783L106.127 381.935C106.554 381.573 107.066 381.295 107.663 381.103C108.261 380.901 108.89 380.799 109.551 380.799ZM109.151 388.463C109.791 388.463 110.341 388.319 110.799 388.031C111.258 387.733 111.599 387.306 111.823 386.751V385.375H109.183C107.743 385.375 107.023 385.877 107.023 386.879C107.023 387.37 107.21 387.759 107.583 388.047C107.957 388.325 108.479 388.463 109.151 388.463ZM120.477 388.767C120.264 388.959 119.997 389.109 119.677 389.215C119.368 389.311 119.042 389.359 118.701 389.359C117.912 389.359 117.304 389.146 116.877 388.719C116.45 388.293 116.237 387.69 116.237 386.911V381.823H114.733V380.863H116.237V379.023H117.373V380.863H119.933V381.823H117.373V386.847C117.373 387.349 117.496 387.733 117.741 387.999C117.997 388.255 118.36 388.383 118.829 388.383C119.064 388.383 119.288 388.346 119.501 388.271C119.725 388.197 119.917 388.09 120.077 387.951L120.477 388.767ZM122.545 380.863H123.681V389.279H122.545V380.863ZM123.121 379.023C122.886 379.023 122.689 378.943 122.529 378.783C122.369 378.623 122.289 378.431 122.289 378.207C122.289 377.994 122.369 377.807 122.529 377.647C122.689 377.487 122.886 377.407 123.121 377.407C123.356 377.407 123.553 377.487 123.713 377.647C123.873 377.797 123.953 377.978 123.953 378.191C123.953 378.426 123.873 378.623 123.713 378.783C123.553 378.943 123.356 379.023 123.121 379.023ZM130.282 389.359C129.471 389.359 128.74 389.178 128.09 388.815C127.439 388.442 126.927 387.93 126.554 387.279C126.18 386.629 125.994 385.893 125.994 385.071C125.994 384.25 126.18 383.514 126.554 382.863C126.927 382.213 127.439 381.706 128.09 381.343C128.74 380.981 129.471 380.799 130.282 380.799C131.092 380.799 131.823 380.981 132.474 381.343C133.124 381.706 133.631 382.213 133.994 382.863C134.367 383.514 134.554 384.25 134.554 385.071C134.554 385.893 134.367 386.629 133.994 387.279C133.631 387.93 133.124 388.442 132.474 388.815C131.823 389.178 131.092 389.359 130.282 389.359ZM130.282 388.351C130.879 388.351 131.412 388.218 131.882 387.951C132.362 387.674 132.735 387.285 133.002 386.783C133.268 386.282 133.402 385.711 133.402 385.071C133.402 384.431 133.268 383.861 133.002 383.359C132.735 382.858 132.362 382.474 131.882 382.207C131.412 381.93 130.879 381.791 130.282 381.791C129.684 381.791 129.146 381.93 128.666 382.207C128.196 382.474 127.823 382.858 127.546 383.359C127.279 383.861 127.146 384.431 127.146 385.071C127.146 385.711 127.279 386.282 127.546 386.783C127.823 387.285 128.196 387.674 128.666 387.951C129.146 388.218 129.684 388.351 130.282 388.351ZM141.161 380.799C142.217 380.799 143.054 381.109 143.673 381.727C144.302 382.335 144.617 383.226 144.617 384.399V389.279H143.481V384.511C143.481 383.637 143.262 382.97 142.825 382.511C142.388 382.053 141.764 381.823 140.953 381.823C140.046 381.823 139.326 382.095 138.793 382.639C138.27 383.173 138.009 383.914 138.009 384.863V389.279H136.873V380.863H137.961V382.415C138.27 381.903 138.697 381.509 139.241 381.231C139.796 380.943 140.436 380.799 141.161 380.799ZM157.025 389.375C155.915 389.375 154.907 389.13 154.001 388.639C153.105 388.138 152.401 387.455 151.889 386.591C151.387 385.727 151.137 384.757 151.137 383.679C151.137 382.602 151.387 381.631 151.889 380.767C152.401 379.903 153.105 379.226 154.001 378.735C154.907 378.234 155.915 377.983 157.025 377.983C158.134 377.983 159.131 378.229 160.017 378.719C160.913 379.21 161.617 379.893 162.129 380.767C162.641 381.631 162.897 382.602 162.897 383.679C162.897 384.757 162.641 385.733 162.129 386.607C161.617 387.471 160.913 388.149 160.017 388.639C159.131 389.13 158.134 389.375 157.025 389.375ZM157.025 388.319C157.91 388.319 158.71 388.122 159.425 387.727C160.139 387.322 160.699 386.767 161.105 386.063C161.51 385.349 161.713 384.554 161.713 383.679C161.713 382.805 161.51 382.015 161.105 381.311C160.699 380.597 160.139 380.042 159.425 379.647C158.71 379.242 157.91 379.039 157.025 379.039C156.139 379.039 155.334 379.242 154.609 379.647C153.894 380.042 153.329 380.597 152.913 381.311C152.507 382.015 152.305 382.805 152.305 383.679C152.305 384.554 152.507 385.349 152.913 386.063C153.329 386.767 153.894 387.322 154.609 387.727C155.334 388.122 156.139 388.319 157.025 388.319ZM168.095 378.287C167.604 378.287 167.231 378.421 166.975 378.687C166.729 378.954 166.607 379.349 166.607 379.871V380.863H169.199V381.823H166.639V389.279H165.503V381.823H163.999V380.863H165.503V379.823C165.503 379.055 165.721 378.447 166.159 377.999C166.607 377.551 167.236 377.327 168.047 377.327C168.367 377.327 168.676 377.375 168.975 377.471C169.273 377.557 169.524 377.685 169.727 377.855L169.343 378.703C169.012 378.426 168.596 378.287 168.095 378.287ZM175.16 378.079H176.344V388.255H182.616V389.279H175.16V378.079ZM187.657 389.359C186.846 389.359 186.115 389.178 185.465 388.815C184.814 388.442 184.302 387.93 183.929 387.279C183.555 386.629 183.369 385.893 183.369 385.071C183.369 384.25 183.555 383.514 183.929 382.863C184.302 382.213 184.814 381.706 185.465 381.343C186.115 380.981 186.846 380.799 187.657 380.799C188.467 380.799 189.198 380.981 189.849 381.343C190.499 381.706 191.006 382.213 191.369 382.863C191.742 383.514 191.929 384.25 191.929 385.071C191.929 385.893 191.742 386.629 191.369 387.279C191.006 387.93 190.499 388.442 189.849 388.815C189.198 389.178 188.467 389.359 187.657 389.359ZM187.657 388.351C188.254 388.351 188.787 388.218 189.257 387.951C189.737 387.674 190.11 387.285 190.377 386.783C190.643 386.282 190.777 385.711 190.777 385.071C190.777 384.431 190.643 383.861 190.377 383.359C190.11 382.858 189.737 382.474 189.257 382.207C188.787 381.93 188.254 381.791 187.657 381.791C187.059 381.791 186.521 381.93 186.041 382.207C185.571 382.474 185.198 382.858 184.921 383.359C184.654 383.861 184.521 384.431 184.521 385.071C184.521 385.711 184.654 386.282 184.921 386.783C185.198 387.285 185.571 387.674 186.041 387.951C186.521 388.218 187.059 388.351 187.657 388.351ZM201.086 380.863L197.342 389.279H196.174L192.446 380.863H193.63L196.782 388.031L199.966 380.863H201.086ZM209.779 385.423H202.739C202.803 386.298 203.139 387.007 203.747 387.551C204.355 388.085 205.123 388.351 206.051 388.351C206.574 388.351 207.054 388.261 207.491 388.079C207.929 387.887 208.307 387.61 208.627 387.247L209.267 387.983C208.894 388.431 208.425 388.773 207.859 389.007C207.305 389.242 206.691 389.359 206.019 389.359C205.155 389.359 204.387 389.178 203.715 388.815C203.054 388.442 202.537 387.93 202.163 387.279C201.79 386.629 201.603 385.893 201.603 385.071C201.603 384.25 201.779 383.514 202.131 382.863C202.494 382.213 202.985 381.706 203.603 381.343C204.233 380.981 204.937 380.799 205.715 380.799C206.494 380.799 207.193 380.981 207.811 381.343C208.43 381.706 208.915 382.213 209.267 382.863C209.619 383.503 209.795 384.239 209.795 385.071L209.779 385.423ZM205.715 381.775C204.905 381.775 204.222 382.037 203.667 382.559C203.123 383.071 202.814 383.743 202.739 384.575H208.707C208.633 383.743 208.318 383.071 207.763 382.559C207.219 382.037 206.537 381.775 205.715 381.775ZM219.787 377.407V389.279H218.699V387.615C218.358 388.181 217.905 388.613 217.339 388.911C216.785 389.21 216.155 389.359 215.451 389.359C214.662 389.359 213.947 389.178 213.307 388.815C212.667 388.453 212.166 387.946 211.803 387.295C211.441 386.645 211.259 385.903 211.259 385.071C211.259 384.239 211.441 383.498 211.803 382.847C212.166 382.197 212.667 381.695 213.307 381.343C213.947 380.981 214.662 380.799 215.451 380.799C216.134 380.799 216.747 380.943 217.291 381.231C217.846 381.509 218.299 381.919 218.651 382.463V377.407H219.787ZM215.547 388.351C216.134 388.351 216.662 388.218 217.131 387.951C217.611 387.674 217.985 387.285 218.251 386.783C218.529 386.282 218.667 385.711 218.667 385.071C218.667 384.431 218.529 383.861 218.251 383.359C217.985 382.858 217.611 382.474 217.131 382.207C216.662 381.93 216.134 381.791 215.547 381.791C214.95 381.791 214.411 381.93 213.931 382.207C213.462 382.474 213.089 382.858 212.811 383.359C212.545 383.861 212.411 384.431 212.411 385.071C212.411 385.711 212.545 386.282 212.811 386.783C213.089 387.285 213.462 387.674 213.931 387.951C214.411 388.218 214.95 388.351 215.547 388.351ZM232.275 389.375C231.165 389.375 230.157 389.13 229.251 388.639C228.355 388.138 227.651 387.455 227.139 386.591C226.637 385.727 226.387 384.757 226.387 383.679C226.387 382.602 226.637 381.631 227.139 380.767C227.651 379.903 228.355 379.226 229.251 378.735C230.157 378.234 231.165 377.983 232.275 377.983C233.384 377.983 234.381 378.229 235.267 378.719C236.163 379.21 236.867 379.893 237.379 380.767C237.891 381.631 238.147 382.602 238.147 383.679C238.147 384.757 237.891 385.733 237.379 386.607C236.867 387.471 236.163 388.149 235.267 388.639C234.381 389.13 233.384 389.375 232.275 389.375ZM232.275 388.319C233.16 388.319 233.96 388.122 234.675 387.727C235.389 387.322 235.949 386.767 236.355 386.063C236.76 385.349 236.963 384.554 236.963 383.679C236.963 382.805 236.76 382.015 236.355 381.311C235.949 380.597 235.389 380.042 234.675 379.647C233.96 379.242 233.16 379.039 232.275 379.039C231.389 379.039 230.584 379.242 229.859 379.647C229.144 380.042 228.579 380.597 228.163 381.311C227.757 382.015 227.555 382.805 227.555 383.679C227.555 384.554 227.757 385.349 228.163 386.063C228.579 386.767 229.144 387.322 229.859 387.727C230.584 388.122 231.389 388.319 232.275 388.319ZM244.849 380.799C245.905 380.799 246.742 381.109 247.361 381.727C247.99 382.335 248.305 383.226 248.305 384.399V389.279H247.169V384.511C247.169 383.637 246.95 382.97 246.513 382.511C246.075 382.053 245.451 381.823 244.641 381.823C243.734 381.823 243.014 382.095 242.481 382.639C241.958 383.173 241.697 383.914 241.697 384.863V389.279H240.561V380.863H241.649V382.415C241.958 381.903 242.385 381.509 242.929 381.231C243.483 380.943 244.123 380.799 244.849 380.799ZM258.748 385.423H251.708C251.772 386.298 252.108 387.007 252.716 387.551C253.324 388.085 254.092 388.351 255.02 388.351C255.543 388.351 256.023 388.261 256.46 388.079C256.897 387.887 257.276 387.61 257.596 387.247L258.236 387.983C257.863 388.431 257.393 388.773 256.828 389.007C256.273 389.242 255.66 389.359 254.988 389.359C254.124 389.359 253.356 389.178 252.684 388.815C252.023 388.442 251.505 387.93 251.132 387.279C250.759 386.629 250.572 385.893 250.572 385.071C250.572 384.25 250.748 383.514 251.1 382.863C251.463 382.213 251.953 381.706 252.572 381.343C253.201 380.981 253.905 380.799 254.684 380.799C255.463 380.799 256.161 380.981 256.78 381.343C257.399 381.706 257.884 382.213 258.236 382.863C258.588 383.503 258.764 384.239 258.764 385.071L258.748 385.423ZM254.684 381.775C253.873 381.775 253.191 382.037 252.636 382.559C252.092 383.071 251.783 383.743 251.708 384.575H257.676C257.601 383.743 257.287 383.071 256.732 382.559C256.188 382.037 255.505 381.775 254.684 381.775ZM263.332 389.359C262.65 389.359 261.994 389.263 261.364 389.071C260.746 388.869 260.26 388.618 259.908 388.319L260.42 387.423C260.772 387.701 261.215 387.93 261.748 388.111C262.282 388.282 262.836 388.367 263.412 388.367C264.18 388.367 264.746 388.25 265.108 388.015C265.482 387.77 265.668 387.429 265.668 386.991C265.668 386.682 265.567 386.442 265.364 386.271C265.162 386.09 264.906 385.957 264.596 385.871C264.287 385.775 263.876 385.685 263.364 385.599C262.682 385.471 262.132 385.343 261.716 385.215C261.3 385.077 260.943 384.847 260.644 384.527C260.356 384.207 260.212 383.765 260.212 383.199C260.212 382.495 260.506 381.919 261.092 381.471C261.679 381.023 262.495 380.799 263.54 380.799C264.084 380.799 264.628 380.874 265.172 381.023C265.716 381.162 266.164 381.349 266.516 381.583L266.02 382.495C265.327 382.015 264.5 381.775 263.54 381.775C262.815 381.775 262.266 381.903 261.892 382.159C261.53 382.415 261.348 382.751 261.348 383.167C261.348 383.487 261.45 383.743 261.652 383.935C261.866 384.127 262.127 384.271 262.436 384.367C262.746 384.453 263.172 384.543 263.716 384.639C264.388 384.767 264.927 384.895 265.332 385.023C265.738 385.151 266.084 385.37 266.372 385.679C266.66 385.989 266.804 386.415 266.804 386.959C266.804 387.695 266.495 388.282 265.876 388.719C265.268 389.146 264.42 389.359 263.332 389.359Z" fill="black" fill-opacity="0.75"/>
<g filter="url(#filter1_d)">
<circle cx="172.279" cy="129.559" r="90.5" transform="rotate(-45 172.279 129.559)" stroke="#7E7D7D" stroke-opacity="0.9"/>
</g>
<circle cx="173" cy="132.279" r="44" stroke="black" stroke-opacity="0.8" stroke-width="12"/>
<circle cx="126" cy="130.279" r="10" fill="#00C48C"/>
<circle cx="184" cy="173.279" r="10" fill="#00C48C"/>
<circle cx="184" cy="87.2793" r="10" fill="#00C48C"/>
<defs>
<filter id="filter0_d" x="0" y="1.2793" width="345" height="483" filterUnits="userSpaceOnUse" color-interpolation-filters="sRGB">
<feFlood flood-opacity="0" result="BackgroundImageFix"/>
<feColorMatrix in="SourceAlpha" type="matrix" values="0 0 0 0 0 0 0 0 0 0 0 0 0 0 0 0 0 0 127 0"/>
<feOffset dy="4"/>
<feGaussianBlur stdDeviation="2"/>
<feColorMatrix type="matrix" values="0 0 0 0 0 0 0 0 0 0 0 0 0 0 0 0 0 0 0.25 0"/>
<feBlend mode="normal" in2="BackgroundImageFix" result="effect1_dropShadow"/>
<feBlend mode="normal" in="SourceGraphic" in2="effect1_dropShadow" result="shape"/>
</filter>
<filter id="filter1_d" x="39.5859" y="0.865234" width="265.387" height="265.387" filterUnits="userSpaceOnUse" color-interpolation-filters="sRGB">
<feFlood flood-opacity="0" result="BackgroundImageFix"/>
<feColorMatrix in="SourceAlpha" type="matrix" values="0 0 0 0 0 0 0 0 0 0 0 0 0 0 0 0 0 0 127 0"/>
<feOffset dy="4"/>
<feGaussianBlur stdDeviation="2"/>
<feColorMatrix type="matrix" values="0 0 0 0 0 0 0 0 0 0 0 0 0 0 0 0 0 0 0.1 0"/>
<feBlend mode="normal" in2="BackgroundImageFix" result="effect1_dropShadow"/>
<feBlend mode="normal" in="SourceGraphic" in2="effect1_dropShadow" result="shape"/>
</filter>
</defs>
</svg>
