<svg width="345" height="485" viewBox="0 0 345 485" fill="none" xmlns="http://www.w3.org/2000/svg">
<g filter="url(#filter0_d)">
<rect x="5" y="2.2793" width="335" height="473" rx="20" fill="#99E7D1"/>
<rect x="4.5" y="1.7793" width="336" height="474" rx="20.5" stroke="#00C48C"/>
</g>
<path d="M96.18 285.439C95.1267 285.439 94.1067 285.279 93.12 284.959C92.1467 284.626 91.38 284.199 90.82 283.679L91.56 282.119C92.0933 282.599 92.7733 282.993 93.6 283.299C94.44 283.593 95.3 283.739 96.18 283.739C97.34 283.739 98.2067 283.546 98.78 283.159C99.3533 282.759 99.64 282.233 99.64 281.579C99.64 281.099 99.48 280.713 99.16 280.419C98.8533 280.113 98.4667 279.879 98 279.719C97.5467 279.559 96.9 279.379 96.06 279.179C95.0067 278.926 94.1533 278.673 93.5 278.419C92.86 278.166 92.3067 277.779 91.84 277.259C91.3867 276.726 91.16 276.013 91.16 275.119C91.16 274.373 91.3533 273.699 91.74 273.099C92.14 272.499 92.74 272.019 93.54 271.659C94.34 271.299 95.3333 271.119 96.52 271.119C97.3467 271.119 98.16 271.226 98.96 271.439C99.76 271.653 100.447 271.959 101.02 272.359L100.36 273.959C99.7733 273.586 99.1467 273.306 98.48 273.119C97.8133 272.919 97.16 272.819 96.52 272.819C95.3867 272.819 94.5333 273.026 93.96 273.439C93.4 273.853 93.12 274.386 93.12 275.039C93.12 275.519 93.28 275.913 93.6 276.219C93.92 276.513 94.3133 276.746 94.78 276.919C95.26 277.079 95.9067 277.253 96.72 277.439C97.7733 277.693 98.62 277.946 99.26 278.199C99.9 278.453 100.447 278.839 100.9 279.359C101.367 279.879 101.6 280.579 101.6 281.459C101.6 282.193 101.4 282.866 101 283.479C100.6 284.079 99.9933 284.559 99.18 284.919C98.3667 285.266 97.3667 285.439 96.18 285.439ZM113.822 280.039C113.822 280.186 113.809 280.379 113.782 280.619H105.182C105.302 281.553 105.709 282.306 106.402 282.879C107.109 283.439 107.982 283.719 109.022 283.719C110.289 283.719 111.309 283.293 112.082 282.439L113.142 283.679C112.662 284.239 112.062 284.666 111.342 284.959C110.635 285.253 109.842 285.399 108.962 285.399C107.842 285.399 106.849 285.173 105.982 284.719C105.115 284.253 104.442 283.606 103.962 282.779C103.495 281.953 103.262 281.019 103.262 279.979C103.262 278.953 103.489 278.026 103.942 277.199C104.409 276.373 105.042 275.733 105.842 275.279C106.655 274.813 107.569 274.579 108.582 274.579C109.595 274.579 110.495 274.813 111.282 275.279C112.082 275.733 112.702 276.373 113.142 277.199C113.595 278.026 113.822 278.973 113.822 280.039ZM108.582 276.199C107.662 276.199 106.889 276.479 106.262 277.039C105.649 277.599 105.289 278.333 105.182 279.239H111.982C111.875 278.346 111.509 277.619 110.882 277.059C110.269 276.486 109.502 276.199 108.582 276.199ZM121.108 285.399C120.028 285.399 119.061 285.166 118.208 284.699C117.368 284.233 116.708 283.593 116.228 282.779C115.748 281.953 115.508 281.019 115.508 279.979C115.508 278.939 115.748 278.013 116.228 277.199C116.708 276.373 117.368 275.733 118.208 275.279C119.061 274.813 120.028 274.579 121.108 274.579C122.068 274.579 122.921 274.773 123.668 275.159C124.428 275.546 125.015 276.106 125.428 276.839L123.968 277.779C123.635 277.273 123.221 276.893 122.728 276.639C122.235 276.386 121.688 276.259 121.088 276.259C120.395 276.259 119.768 276.413 119.208 276.719C118.661 277.026 118.228 277.466 117.908 278.039C117.601 278.599 117.448 279.246 117.448 279.979C117.448 280.726 117.601 281.386 117.908 281.959C118.228 282.519 118.661 282.953 119.208 283.259C119.768 283.566 120.395 283.719 121.088 283.719C121.688 283.719 122.235 283.593 122.728 283.339C123.221 283.086 123.635 282.706 123.968 282.199L125.428 283.119C125.015 283.853 124.428 284.419 123.668 284.819C122.921 285.206 122.068 285.399 121.108 285.399ZM137.794 274.679V285.279H135.974V283.679C135.587 284.226 135.074 284.653 134.434 284.959C133.807 285.253 133.12 285.399 132.374 285.399C130.96 285.399 129.847 285.013 129.034 284.239C128.22 283.453 127.814 282.299 127.814 280.779V274.679H129.734V280.559C129.734 281.586 129.98 282.366 130.474 282.899C130.967 283.419 131.674 283.679 132.594 283.679C133.607 283.679 134.407 283.373 134.994 282.759C135.58 282.146 135.874 281.279 135.874 280.159V274.679H137.794ZM143.289 276.459C143.622 275.846 144.116 275.379 144.769 275.059C145.422 274.739 146.216 274.579 147.149 274.579V276.439C147.042 276.426 146.896 276.419 146.709 276.419C145.669 276.419 144.849 276.733 144.249 277.359C143.662 277.973 143.369 278.853 143.369 279.999V285.279H141.449V274.679H143.289V276.459ZM149.515 274.679H151.435V285.279H149.515V274.679ZM150.475 272.639C150.102 272.639 149.789 272.519 149.535 272.279C149.295 272.039 149.175 271.746 149.175 271.399C149.175 271.053 149.295 270.759 149.535 270.519C149.789 270.266 150.102 270.139 150.475 270.139C150.849 270.139 151.155 270.259 151.395 270.499C151.649 270.726 151.775 271.013 151.775 271.359C151.775 271.719 151.649 272.026 151.395 272.279C151.155 272.519 150.849 272.639 150.475 272.639ZM161.061 284.659C160.781 284.899 160.435 285.086 160.021 285.219C159.608 285.339 159.181 285.399 158.741 285.399C157.675 285.399 156.848 285.113 156.261 284.539C155.675 283.966 155.381 283.146 155.381 282.079V276.259H153.581V274.679H155.381V272.359H157.301V274.679H160.341V276.259H157.301V281.999C157.301 282.573 157.441 283.013 157.721 283.319C158.015 283.626 158.428 283.779 158.961 283.779C159.548 283.779 160.048 283.613 160.461 283.279L161.061 284.659ZM172.567 274.679L167.427 286.339C166.974 287.419 166.441 288.179 165.827 288.619C165.227 289.059 164.501 289.279 163.647 289.279C163.127 289.279 162.621 289.193 162.127 289.019C161.647 288.859 161.247 288.619 160.927 288.299L161.747 286.859C162.294 287.379 162.927 287.639 163.647 287.639C164.114 287.639 164.501 287.513 164.807 287.259C165.127 287.019 165.414 286.599 165.667 285.999L166.007 285.259L161.327 274.679H163.327L167.027 283.159L170.687 274.679H172.567ZM185.81 285.439C183.943 285.439 182.49 284.906 181.45 283.839C180.41 282.773 179.89 281.239 179.89 279.239V271.279H181.89V279.159C181.89 282.159 183.203 283.659 185.83 283.659C187.11 283.659 188.09 283.293 188.77 282.559C189.45 281.813 189.79 280.679 189.79 279.159V271.279H191.73V279.239C191.73 281.253 191.21 282.793 190.17 283.859C189.13 284.913 187.677 285.439 185.81 285.439ZM201.17 274.579C202.197 274.579 203.117 274.806 203.93 275.259C204.744 275.713 205.377 276.346 205.83 277.159C206.297 277.973 206.53 278.913 206.53 279.979C206.53 281.046 206.297 281.993 205.83 282.819C205.377 283.633 204.744 284.266 203.93 284.719C203.117 285.173 202.197 285.399 201.17 285.399C200.41 285.399 199.71 285.253 199.07 284.959C198.444 284.666 197.91 284.239 197.47 283.679V289.159H195.55V274.679H197.39V276.359C197.817 275.773 198.357 275.333 199.01 275.039C199.664 274.733 200.384 274.579 201.17 274.579ZM201.01 283.719C201.69 283.719 202.297 283.566 202.83 283.259C203.377 282.939 203.804 282.499 204.11 281.939C204.43 281.366 204.59 280.713 204.59 279.979C204.59 279.246 204.43 278.599 204.11 278.039C203.804 277.466 203.377 277.026 202.83 276.719C202.297 276.413 201.69 276.259 201.01 276.259C200.344 276.259 199.737 276.419 199.19 276.739C198.657 277.046 198.23 277.479 197.91 278.039C197.604 278.599 197.45 279.246 197.45 279.979C197.45 280.713 197.604 281.366 197.91 281.939C198.217 282.499 198.644 282.939 199.19 283.259C199.737 283.566 200.344 283.719 201.01 283.719ZM219.183 270.439V285.279H217.343V283.599C216.917 284.186 216.377 284.633 215.723 284.939C215.07 285.246 214.35 285.399 213.563 285.399C212.537 285.399 211.617 285.173 210.803 284.719C209.99 284.266 209.35 283.633 208.883 282.819C208.43 281.993 208.203 281.046 208.203 279.979C208.203 278.913 208.43 277.973 208.883 277.159C209.35 276.346 209.99 275.713 210.803 275.259C211.617 274.806 212.537 274.579 213.563 274.579C214.323 274.579 215.023 274.726 215.663 275.019C216.303 275.299 216.837 275.719 217.263 276.279V270.439H219.183ZM213.723 283.719C214.39 283.719 214.997 283.566 215.543 283.259C216.09 282.939 216.517 282.499 216.823 281.939C217.13 281.366 217.283 280.713 217.283 279.979C217.283 279.246 217.13 278.599 216.823 278.039C216.517 277.466 216.09 277.026 215.543 276.719C214.997 276.413 214.39 276.259 213.723 276.259C213.043 276.259 212.43 276.413 211.883 276.719C211.35 277.026 210.923 277.466 210.603 278.039C210.297 278.599 210.143 279.246 210.143 279.979C210.143 280.713 210.297 281.366 210.603 281.939C210.923 282.499 211.35 282.939 211.883 283.259C212.43 283.566 213.043 283.719 213.723 283.719ZM226.676 274.579C228.143 274.579 229.263 274.939 230.036 275.659C230.823 276.379 231.216 277.453 231.216 278.879V285.279H229.396V283.879C229.076 284.373 228.616 284.753 228.016 285.019C227.429 285.273 226.729 285.399 225.916 285.399C224.729 285.399 223.776 285.113 223.056 284.539C222.349 283.966 221.996 283.213 221.996 282.279C221.996 281.346 222.336 280.599 223.016 280.039C223.696 279.466 224.776 279.179 226.256 279.179H229.296V278.799C229.296 277.973 229.056 277.339 228.576 276.899C228.096 276.459 227.389 276.239 226.456 276.239C225.829 276.239 225.216 276.346 224.616 276.559C224.016 276.759 223.509 277.033 223.096 277.379L222.296 275.939C222.843 275.499 223.496 275.166 224.256 274.939C225.016 274.699 225.823 274.579 226.676 274.579ZM226.236 283.919C226.969 283.919 227.603 283.759 228.136 283.439C228.669 283.106 229.056 282.639 229.296 282.039V280.559H226.336C224.709 280.559 223.896 281.106 223.896 282.199C223.896 282.733 224.103 283.153 224.516 283.459C224.929 283.766 225.503 283.919 226.236 283.919ZM240.729 284.659C240.449 284.899 240.103 285.086 239.689 285.219C239.276 285.339 238.849 285.399 238.409 285.399C237.343 285.399 236.516 285.113 235.929 284.539C235.343 283.966 235.049 283.146 235.049 282.079V276.259H233.249V274.679H235.049V272.359H236.969V274.679H240.009V276.259H236.969V281.999C236.969 282.573 237.109 283.013 237.389 283.319C237.683 283.626 238.096 283.779 238.629 283.779C239.216 283.779 239.716 283.613 240.129 283.279L240.729 284.659ZM252.279 280.039C252.279 280.186 252.266 280.379 252.239 280.619H243.639C243.759 281.553 244.166 282.306 244.859 282.879C245.566 283.439 246.439 283.719 247.479 283.719C248.746 283.719 249.766 283.293 250.539 282.439L251.599 283.679C251.119 284.239 250.519 284.666 249.799 284.959C249.092 285.253 248.299 285.399 247.419 285.399C246.299 285.399 245.306 285.173 244.439 284.719C243.572 284.253 242.899 283.606 242.419 282.779C241.952 281.953 241.719 281.019 241.719 279.979C241.719 278.953 241.946 278.026 242.399 277.199C242.866 276.373 243.499 275.733 244.299 275.279C245.112 274.813 246.026 274.579 247.039 274.579C248.052 274.579 248.952 274.813 249.739 275.279C250.539 275.733 251.159 276.373 251.599 277.199C252.052 278.026 252.279 278.973 252.279 280.039ZM247.039 276.199C246.119 276.199 245.346 276.479 244.719 277.039C244.106 277.599 243.746 278.333 243.639 279.239H250.439C250.332 278.346 249.966 277.619 249.339 277.059C248.726 276.486 247.959 276.199 247.039 276.199Z" fill="black"/>
<path d="M82.2479 349.375C81.4159 349.375 80.6159 349.242 79.8479 348.975C79.0906 348.709 78.5039 348.357 78.0879 347.919L78.5519 347.007C78.9573 347.413 79.4959 347.743 80.1679 347.999C80.8399 348.245 81.5333 348.367 82.2479 348.367C83.2506 348.367 84.0026 348.186 84.5039 347.823C85.0053 347.45 85.2559 346.97 85.2559 346.383C85.2559 345.935 85.1173 345.578 84.8399 345.311C84.5733 345.045 84.2426 344.842 83.8479 344.703C83.4533 344.554 82.9039 344.394 82.1999 344.223C81.3573 344.01 80.6853 343.807 80.1839 343.615C79.6826 343.413 79.2506 343.109 78.8879 342.703C78.5359 342.298 78.3599 341.749 78.3599 341.055C78.3599 340.49 78.5093 339.978 78.8079 339.519C79.1066 339.05 79.5653 338.677 80.1839 338.399C80.8026 338.122 81.5706 337.983 82.4879 337.983C83.1279 337.983 83.7519 338.074 84.3599 338.255C84.9786 338.426 85.5119 338.666 85.9599 338.975L85.5599 339.919C85.0906 339.61 84.5893 339.381 84.0559 339.231C83.5226 339.071 82.9999 338.991 82.4879 338.991C81.5066 338.991 80.7653 339.183 80.2639 339.567C79.7733 339.941 79.5279 340.426 79.5279 341.023C79.5279 341.471 79.6613 341.834 79.9279 342.111C80.2053 342.378 80.5466 342.586 80.9519 342.735C81.3679 342.874 81.9226 343.029 82.6159 343.199C83.4373 343.402 84.0986 343.605 84.5999 343.807C85.1119 343.999 85.5439 344.298 85.8959 344.703C86.2479 345.098 86.4239 345.637 86.4239 346.319C86.4239 346.885 86.2693 347.402 85.9599 347.871C85.6613 348.33 85.1973 348.698 84.5679 348.975C83.9386 349.242 83.1653 349.375 82.2479 349.375ZM93.0517 340.799C94.1077 340.799 94.945 341.109 95.5637 341.727C96.193 342.335 96.5077 343.226 96.5077 344.399V349.279H95.3717V344.511C95.3717 343.637 95.153 342.97 94.7157 342.511C94.2784 342.053 93.6544 341.823 92.8437 341.823C91.937 341.823 91.217 342.095 90.6837 342.639C90.161 343.173 89.8997 343.914 89.8997 344.863V349.279H88.7637V337.407H89.8997V342.335C90.209 341.845 90.6357 341.466 91.1797 341.199C91.7237 340.933 92.3477 340.799 93.0517 340.799ZM102.536 340.799C103.634 340.799 104.477 341.077 105.064 341.631C105.65 342.175 105.944 342.986 105.944 344.063V349.279H104.856V347.967C104.6 348.405 104.221 348.746 103.72 348.991C103.229 349.237 102.642 349.359 101.96 349.359C101.021 349.359 100.274 349.135 99.7198 348.687C99.1651 348.239 98.8878 347.647 98.8878 346.911C98.8878 346.197 99.1438 345.621 99.6558 345.183C100.178 344.746 101.005 344.527 102.136 344.527H104.808V344.015C104.808 343.29 104.605 342.741 104.2 342.367C103.794 341.983 103.202 341.791 102.424 341.791C101.89 341.791 101.378 341.882 100.888 342.063C100.397 342.234 99.9758 342.474 99.6238 342.783L99.1118 341.935C99.5385 341.573 100.05 341.295 100.648 341.103C101.245 340.901 101.874 340.799 102.536 340.799ZM102.136 348.463C102.776 348.463 103.325 348.319 103.784 348.031C104.242 347.733 104.584 347.306 104.808 346.751V345.375H102.168C100.728 345.375 100.008 345.877 100.008 346.879C100.008 347.37 100.194 347.759 100.568 348.047C100.941 348.325 101.464 348.463 102.136 348.463ZM110.117 342.511C110.384 341.946 110.779 341.519 111.301 341.231C111.835 340.943 112.491 340.799 113.269 340.799V341.903L112.997 341.887C112.112 341.887 111.419 342.159 110.917 342.703C110.416 343.247 110.165 344.01 110.165 344.991V349.279H109.029V340.863H110.117V342.511ZM122.576 345.423H115.536C115.6 346.298 115.936 347.007 116.544 347.551C117.152 348.085 117.92 348.351 118.848 348.351C119.371 348.351 119.851 348.261 120.288 348.079C120.725 347.887 121.104 347.61 121.424 347.247L122.064 347.983C121.691 348.431 121.221 348.773 120.656 349.007C120.101 349.242 119.488 349.359 118.816 349.359C117.952 349.359 117.184 349.178 116.512 348.815C115.851 348.442 115.333 347.93 114.96 347.279C114.587 346.629 114.4 345.893 114.4 345.071C114.4 344.25 114.576 343.514 114.928 342.863C115.291 342.213 115.781 341.706 116.4 341.343C117.029 340.981 117.733 340.799 118.512 340.799C119.291 340.799 119.989 340.981 120.608 341.343C121.227 341.706 121.712 342.213 122.064 342.863C122.416 343.503 122.592 344.239 122.592 345.071L122.576 345.423ZM118.512 341.775C117.701 341.775 117.019 342.037 116.464 342.559C115.92 343.071 115.611 343.743 115.536 344.575H121.504C121.429 343.743 121.115 343.071 120.56 342.559C120.016 342.037 119.333 341.775 118.512 341.775ZM136.356 346.287H130.116L128.772 349.279H127.54L132.66 338.079H133.828L138.948 349.279H137.7L136.356 346.287ZM135.924 345.327L133.236 339.311L130.548 345.327H135.924ZM144.849 340.799C145.905 340.799 146.742 341.109 147.361 341.727C147.99 342.335 148.305 343.226 148.305 344.399V349.279H147.169V344.511C147.169 343.637 146.95 342.97 146.513 342.511C146.075 342.053 145.451 341.823 144.641 341.823C143.734 341.823 143.014 342.095 142.481 342.639C141.958 343.173 141.697 343.914 141.697 344.863V349.279H140.561V340.863H141.649V342.415C141.958 341.903 142.385 341.509 142.929 341.231C143.483 340.943 144.123 340.799 144.849 340.799ZM159.1 337.407V349.279H158.012V347.615C157.671 348.181 157.217 348.613 156.652 348.911C156.097 349.21 155.468 349.359 154.764 349.359C153.975 349.359 153.26 349.178 152.62 348.815C151.98 348.453 151.479 347.946 151.116 347.295C150.753 346.645 150.572 345.903 150.572 345.071C150.572 344.239 150.753 343.498 151.116 342.847C151.479 342.197 151.98 341.695 152.62 341.343C153.26 340.981 153.975 340.799 154.764 340.799C155.447 340.799 156.06 340.943 156.604 341.231C157.159 341.509 157.612 341.919 157.964 342.463V337.407H159.1ZM154.86 348.351C155.447 348.351 155.975 348.218 156.444 347.951C156.924 347.674 157.297 347.285 157.564 346.783C157.841 346.282 157.98 345.711 157.98 345.071C157.98 344.431 157.841 343.861 157.564 343.359C157.297 342.858 156.924 342.474 156.444 342.207C155.975 341.93 155.447 341.791 154.86 341.791C154.263 341.791 153.724 341.93 153.244 342.207C152.775 342.474 152.401 342.858 152.124 343.359C151.857 343.861 151.724 344.431 151.724 345.071C151.724 345.711 151.857 346.282 152.124 346.783C152.401 347.285 152.775 347.674 153.244 347.951C153.724 348.218 154.263 348.351 154.86 348.351ZM174.579 343.679H175.715V347.951C175.193 348.41 174.574 348.762 173.859 349.007C173.145 349.253 172.393 349.375 171.603 349.375C170.483 349.375 169.475 349.13 168.579 348.639C167.683 348.149 166.979 347.471 166.467 346.607C165.955 345.733 165.699 344.757 165.699 343.679C165.699 342.602 165.955 341.631 166.467 340.767C166.979 339.893 167.683 339.21 168.579 338.719C169.475 338.229 170.489 337.983 171.619 337.983C172.473 337.983 173.257 338.122 173.971 338.399C174.686 338.666 175.289 339.066 175.779 339.599L175.043 340.351C174.158 339.477 173.033 339.039 171.667 339.039C170.761 339.039 169.939 339.242 169.203 339.647C168.478 340.042 167.907 340.597 167.491 341.311C167.075 342.015 166.867 342.805 166.867 343.679C166.867 344.554 167.075 345.343 167.491 346.047C167.907 346.751 168.478 347.306 169.203 347.711C169.929 348.117 170.745 348.319 171.651 348.319C172.803 348.319 173.779 348.031 174.579 347.455V343.679ZM186.154 345.423H179.114C179.178 346.298 179.514 347.007 180.122 347.551C180.73 348.085 181.498 348.351 182.426 348.351C182.949 348.351 183.429 348.261 183.866 348.079C184.304 347.887 184.682 347.61 185.002 347.247L185.642 347.983C185.269 348.431 184.8 348.773 184.234 349.007C183.68 349.242 183.066 349.359 182.394 349.359C181.53 349.359 180.762 349.178 180.09 348.815C179.429 348.442 178.912 347.93 178.538 347.279C178.165 346.629 177.978 345.893 177.978 345.071C177.978 344.25 178.154 343.514 178.506 342.863C178.869 342.213 179.36 341.706 179.978 341.343C180.608 340.981 181.312 340.799 182.09 340.799C182.869 340.799 183.568 340.981 184.186 341.343C184.805 341.706 185.29 342.213 185.642 342.863C185.994 343.503 186.17 344.239 186.17 345.071L186.154 345.423ZM182.09 341.775C181.28 341.775 180.597 342.037 180.042 342.559C179.498 343.071 179.189 343.743 179.114 344.575H185.082C185.008 343.743 184.693 343.071 184.138 342.559C183.594 342.037 182.912 341.775 182.09 341.775ZM192.914 348.767C192.701 348.959 192.434 349.109 192.114 349.215C191.805 349.311 191.48 349.359 191.138 349.359C190.349 349.359 189.741 349.146 189.314 348.719C188.888 348.293 188.674 347.69 188.674 346.911V341.823H187.17V340.863H188.674V339.023H189.81V340.863H192.37V341.823H189.81V346.847C189.81 347.349 189.933 347.733 190.178 347.999C190.434 348.255 190.797 348.383 191.266 348.383C191.501 348.383 191.725 348.346 191.938 348.271C192.162 348.197 192.354 348.09 192.514 347.951L192.914 348.767ZM206.685 349.375C205.853 349.375 205.053 349.242 204.285 348.975C203.528 348.709 202.941 348.357 202.525 347.919L202.989 347.007C203.395 347.413 203.933 347.743 204.605 347.999C205.277 348.245 205.971 348.367 206.685 348.367C207.688 348.367 208.44 348.186 208.941 347.823C209.443 347.45 209.693 346.97 209.693 346.383C209.693 345.935 209.555 345.578 209.277 345.311C209.011 345.045 208.68 344.842 208.285 344.703C207.891 344.554 207.341 344.394 206.637 344.223C205.795 344.01 205.123 343.807 204.621 343.615C204.12 343.413 203.688 343.109 203.325 342.703C202.973 342.298 202.797 341.749 202.797 341.055C202.797 340.49 202.947 339.978 203.245 339.519C203.544 339.05 204.003 338.677 204.621 338.399C205.24 338.122 206.008 337.983 206.925 337.983C207.565 337.983 208.189 338.074 208.797 338.255C209.416 338.426 209.949 338.666 210.397 338.975L209.997 339.919C209.528 339.61 209.027 339.381 208.493 339.231C207.96 339.071 207.437 338.991 206.925 338.991C205.944 338.991 205.203 339.183 204.701 339.567C204.211 339.941 203.965 340.426 203.965 341.023C203.965 341.471 204.099 341.834 204.365 342.111C204.643 342.378 204.984 342.586 205.389 342.735C205.805 342.874 206.36 343.029 207.053 343.199C207.875 343.402 208.536 343.605 209.037 343.807C209.549 343.999 209.981 344.298 210.333 344.703C210.685 345.098 210.861 345.637 210.861 346.319C210.861 346.885 210.707 347.402 210.397 347.871C210.099 348.33 209.635 348.698 209.005 348.975C208.376 349.242 207.603 349.375 206.685 349.375ZM220.529 345.423H213.489C213.553 346.298 213.889 347.007 214.497 347.551C215.105 348.085 215.873 348.351 216.801 348.351C217.324 348.351 217.804 348.261 218.241 348.079C218.679 347.887 219.057 347.61 219.377 347.247L220.017 347.983C219.644 348.431 219.175 348.773 218.609 349.007C218.055 349.242 217.441 349.359 216.769 349.359C215.905 349.359 215.137 349.178 214.465 348.815C213.804 348.442 213.287 347.93 212.913 347.279C212.54 346.629 212.353 345.893 212.353 345.071C212.353 344.25 212.529 343.514 212.881 342.863C213.244 342.213 213.735 341.706 214.353 341.343C214.983 340.981 215.687 340.799 216.465 340.799C217.244 340.799 217.943 340.981 218.561 341.343C219.18 341.706 219.665 342.213 220.017 342.863C220.369 343.503 220.545 344.239 220.545 345.071L220.529 345.423ZM216.465 341.775C215.655 341.775 214.972 342.037 214.417 342.559C213.873 343.071 213.564 343.743 213.489 344.575H219.457C219.383 343.743 219.068 343.071 218.513 342.559C217.969 342.037 217.287 341.775 216.465 341.775ZM226.345 349.359C225.513 349.359 224.767 349.178 224.105 348.815C223.455 348.453 222.943 347.946 222.569 347.295C222.196 346.634 222.009 345.893 222.009 345.071C222.009 344.25 222.196 343.514 222.569 342.863C222.943 342.213 223.455 341.706 224.105 341.343C224.767 340.981 225.513 340.799 226.345 340.799C227.071 340.799 227.716 340.943 228.281 341.231C228.857 341.509 229.311 341.919 229.641 342.463L228.793 343.039C228.516 342.623 228.164 342.314 227.737 342.111C227.311 341.898 226.847 341.791 226.345 341.791C225.737 341.791 225.188 341.93 224.697 342.207C224.217 342.474 223.839 342.858 223.561 343.359C223.295 343.861 223.161 344.431 223.161 345.071C223.161 345.722 223.295 346.298 223.561 346.799C223.839 347.29 224.217 347.674 224.697 347.951C225.188 348.218 225.737 348.351 226.345 348.351C226.847 348.351 227.311 348.25 227.737 348.047C228.164 347.845 228.516 347.535 228.793 347.119L229.641 347.695C229.311 348.239 228.857 348.655 228.281 348.943C227.705 349.221 227.06 349.359 226.345 349.359ZM239.457 340.863V349.279H238.369V347.743C238.07 348.255 237.66 348.655 237.137 348.943C236.614 349.221 236.017 349.359 235.345 349.359C234.246 349.359 233.377 349.055 232.737 348.447C232.108 347.829 231.793 346.927 231.793 345.743V340.863H232.929V345.631C232.929 346.517 233.148 347.189 233.585 347.647C234.022 348.106 234.646 348.335 235.457 348.335C236.342 348.335 237.041 348.069 237.553 347.535C238.065 346.991 238.321 346.239 238.321 345.279V340.863H239.457ZM243.727 342.511C243.993 341.946 244.388 341.519 244.911 341.231C245.444 340.943 246.1 340.799 246.879 340.799V341.903L246.607 341.887C245.721 341.887 245.028 342.159 244.527 342.703C244.025 343.247 243.775 344.01 243.775 344.991V349.279H242.639V340.863H243.727V342.511ZM248.936 340.863H250.072V349.279H248.936V340.863ZM249.512 339.023C249.277 339.023 249.08 338.943 248.92 338.783C248.76 338.623 248.68 338.431 248.68 338.207C248.68 337.994 248.76 337.807 248.92 337.647C249.08 337.487 249.277 337.407 249.512 337.407C249.746 337.407 249.944 337.487 250.104 337.647C250.264 337.797 250.344 337.978 250.344 338.191C250.344 338.426 250.264 338.623 250.104 338.783C249.944 338.943 249.746 339.023 249.512 339.023ZM257.664 348.767C257.451 348.959 257.184 349.109 256.864 349.215C256.555 349.311 256.23 349.359 255.888 349.359C255.099 349.359 254.491 349.146 254.064 348.719C253.638 348.293 253.424 347.69 253.424 346.911V341.823H251.92V340.863H253.424V339.023H254.56V340.863H257.12V341.823H254.56V346.847C254.56 347.349 254.683 347.733 254.928 347.999C255.184 348.255 255.547 348.383 256.016 348.383C256.251 348.383 256.475 348.346 256.688 348.271C256.912 348.197 257.104 348.09 257.264 347.951L257.664 348.767ZM266.648 340.863L262.44 350.287C262.099 351.077 261.704 351.637 261.256 351.967C260.808 352.298 260.27 352.463 259.64 352.463C259.235 352.463 258.856 352.399 258.504 352.271C258.152 352.143 257.848 351.951 257.592 351.695L258.12 350.847C258.547 351.274 259.059 351.487 259.656 351.487C260.04 351.487 260.366 351.381 260.632 351.167C260.91 350.954 261.166 350.591 261.4 350.079L261.768 349.263L258.008 340.863H259.192L262.36 348.015L265.528 340.863H266.648ZM83.8516 369.375C82.401 369.375 81.2703 368.959 80.4596 368.127C79.649 367.295 79.2436 366.085 79.2436 364.495V358.079H80.4276V364.447C80.4276 365.749 80.721 366.719 81.3076 367.359C81.8943 367.999 82.7423 368.319 83.8516 368.319C84.9716 368.319 85.825 367.999 86.4116 367.359C86.9983 366.719 87.2916 365.749 87.2916 364.447V358.079H88.4436V364.495C88.4436 366.085 88.0383 367.295 87.2276 368.127C86.4276 368.959 85.3023 369.375 83.8516 369.375ZM96.1075 360.799C96.8968 360.799 97.6115 360.981 98.2515 361.343C98.8915 361.695 99.3928 362.197 99.7555 362.847C100.118 363.498 100.3 364.239 100.3 365.071C100.3 365.914 100.118 366.661 99.7555 367.311C99.3928 367.962 98.8915 368.469 98.2515 368.831C97.6222 369.183 96.9075 369.359 96.1075 369.359C95.4248 369.359 94.8062 369.221 94.2515 368.943C93.7075 368.655 93.2595 368.239 92.9075 367.695V372.383H91.7715V360.863H92.8595V362.527C93.2008 361.973 93.6488 361.546 94.2035 361.247C94.7688 360.949 95.4035 360.799 96.1075 360.799ZM96.0275 368.351C96.6142 368.351 97.1475 368.218 97.6275 367.951C98.1075 367.674 98.4808 367.285 98.7475 366.783C99.0248 366.282 99.1635 365.711 99.1635 365.071C99.1635 364.431 99.0248 363.866 98.7475 363.375C98.4808 362.874 98.1075 362.485 97.6275 362.207C97.1475 361.93 96.6142 361.791 96.0275 361.791C95.4302 361.791 94.8915 361.93 94.4115 362.207C93.9422 362.485 93.5688 362.874 93.2915 363.375C93.0248 363.866 92.8915 364.431 92.8915 365.071C92.8915 365.711 93.0248 366.282 93.2915 366.783C93.5688 367.285 93.9422 367.674 94.4115 367.951C94.8915 368.218 95.4302 368.351 96.0275 368.351ZM110.295 357.407V369.279H109.207V367.615C108.866 368.181 108.413 368.613 107.847 368.911C107.293 369.21 106.663 369.359 105.959 369.359C105.17 369.359 104.455 369.178 103.815 368.815C103.175 368.453 102.674 367.946 102.311 367.295C101.949 366.645 101.767 365.903 101.767 365.071C101.767 364.239 101.949 363.498 102.311 362.847C102.674 362.197 103.175 361.695 103.815 361.343C104.455 360.981 105.17 360.799 105.959 360.799C106.642 360.799 107.255 360.943 107.799 361.231C108.354 361.509 108.807 361.919 109.159 362.463V357.407H110.295ZM106.055 368.351C106.642 368.351 107.17 368.218 107.639 367.951C108.119 367.674 108.493 367.285 108.759 366.783C109.037 366.282 109.175 365.711 109.175 365.071C109.175 364.431 109.037 363.861 108.759 363.359C108.493 362.858 108.119 362.474 107.639 362.207C107.17 361.93 106.642 361.791 106.055 361.791C105.458 361.791 104.919 361.93 104.439 362.207C103.97 362.474 103.597 362.858 103.319 363.359C103.053 363.861 102.919 364.431 102.919 365.071C102.919 365.711 103.053 366.282 103.319 366.783C103.597 367.285 103.97 367.674 104.439 367.951C104.919 368.218 105.458 368.351 106.055 368.351ZM116.403 360.799C117.502 360.799 118.344 361.077 118.931 361.631C119.518 362.175 119.811 362.986 119.811 364.063V369.279H118.723V367.967C118.467 368.405 118.088 368.746 117.587 368.991C117.096 369.237 116.51 369.359 115.827 369.359C114.888 369.359 114.142 369.135 113.587 368.687C113.032 368.239 112.755 367.647 112.755 366.911C112.755 366.197 113.011 365.621 113.523 365.183C114.046 364.746 114.872 364.527 116.003 364.527H118.675V364.015C118.675 363.29 118.472 362.741 118.067 362.367C117.662 361.983 117.07 361.791 116.291 361.791C115.758 361.791 115.246 361.882 114.755 362.063C114.264 362.234 113.843 362.474 113.491 362.783L112.979 361.935C113.406 361.573 113.918 361.295 114.515 361.103C115.112 360.901 115.742 360.799 116.403 360.799ZM116.003 368.463C116.643 368.463 117.192 368.319 117.651 368.031C118.11 367.733 118.451 367.306 118.675 366.751V365.375H116.035C114.595 365.375 113.875 365.877 113.875 366.879C113.875 367.37 114.062 367.759 114.435 368.047C114.808 368.325 115.331 368.463 116.003 368.463ZM127.329 368.767C127.115 368.959 126.849 369.109 126.529 369.215C126.219 369.311 125.894 369.359 125.553 369.359C124.763 369.359 124.155 369.146 123.729 368.719C123.302 368.293 123.089 367.69 123.089 366.911V361.823H121.585V360.863H123.089V359.023H124.225V360.863H126.785V361.823H124.225V366.847C124.225 367.349 124.347 367.733 124.593 367.999C124.849 368.255 125.211 368.383 125.681 368.383C125.915 368.383 126.139 368.346 126.353 368.271C126.577 368.197 126.769 368.09 126.929 367.951L127.329 368.767ZM136.428 365.423H129.388C129.452 366.298 129.788 367.007 130.396 367.551C131.004 368.085 131.772 368.351 132.7 368.351C133.222 368.351 133.702 368.261 134.14 368.079C134.577 367.887 134.956 367.61 135.276 367.247L135.916 367.983C135.542 368.431 135.073 368.773 134.508 369.007C133.953 369.242 133.34 369.359 132.668 369.359C131.804 369.359 131.036 369.178 130.364 368.815C129.702 368.442 129.185 367.93 128.812 367.279C128.438 366.629 128.252 365.893 128.252 365.071C128.252 364.25 128.428 363.514 128.78 362.863C129.142 362.213 129.633 361.706 130.252 361.343C130.881 360.981 131.585 360.799 132.364 360.799C133.142 360.799 133.841 360.981 134.46 361.343C135.078 361.706 135.564 362.213 135.916 362.863C136.268 363.503 136.444 364.239 136.444 365.071L136.428 365.423ZM132.364 361.775C131.553 361.775 130.87 362.037 130.316 362.559C129.772 363.071 129.462 363.743 129.388 364.575H135.356C135.281 363.743 134.966 363.071 134.412 362.559C133.868 362.037 133.185 361.775 132.364 361.775ZM148.079 369.375C146.97 369.375 145.962 369.13 145.055 368.639C144.159 368.138 143.455 367.455 142.943 366.591C142.442 365.727 142.191 364.757 142.191 363.679C142.191 362.602 142.442 361.631 142.943 360.767C143.455 359.903 144.159 359.226 145.055 358.735C145.962 358.234 146.97 357.983 148.079 357.983C149.189 357.983 150.186 358.229 151.071 358.719C151.967 359.21 152.671 359.893 153.183 360.767C153.695 361.631 153.951 362.602 153.951 363.679C153.951 364.757 153.695 365.733 153.183 366.607C152.671 367.471 151.967 368.149 151.071 368.639C150.186 369.13 149.189 369.375 148.079 369.375ZM148.079 368.319C148.965 368.319 149.765 368.122 150.479 367.727C151.194 367.322 151.754 366.767 152.159 366.063C152.565 365.349 152.767 364.554 152.767 363.679C152.767 362.805 152.565 362.015 152.159 361.311C151.754 360.597 151.194 360.042 150.479 359.647C149.765 359.242 148.965 359.039 148.079 359.039C147.194 359.039 146.389 359.242 145.663 359.647C144.949 360.042 144.383 360.597 143.967 361.311C143.562 362.015 143.359 362.805 143.359 363.679C143.359 364.554 143.562 365.349 143.967 366.063C144.383 366.767 144.949 367.322 145.663 367.727C146.389 368.122 147.194 368.319 148.079 368.319ZM159.149 358.287C158.659 358.287 158.285 358.421 158.029 358.687C157.784 358.954 157.661 359.349 157.661 359.871V360.863H160.253V361.823H157.693V369.279H156.557V361.823H155.053V360.863H156.557V359.823C156.557 359.055 156.776 358.447 157.213 357.999C157.661 357.551 158.291 357.327 159.101 357.327C159.421 357.327 159.731 357.375 160.029 357.471C160.328 357.557 160.579 357.685 160.781 357.855L160.397 358.703C160.067 358.426 159.651 358.287 159.149 358.287ZM170.055 365.407V369.279H168.887V365.407L164.407 358.079H165.671L169.511 364.367L173.351 358.079H174.535L170.055 365.407ZM178.618 369.359C177.807 369.359 177.076 369.178 176.426 368.815C175.775 368.442 175.263 367.93 174.89 367.279C174.516 366.629 174.33 365.893 174.33 365.071C174.33 364.25 174.516 363.514 174.89 362.863C175.263 362.213 175.775 361.706 176.426 361.343C177.076 360.981 177.807 360.799 178.618 360.799C179.428 360.799 180.159 360.981 180.81 361.343C181.46 361.706 181.967 362.213 182.33 362.863C182.703 363.514 182.89 364.25 182.89 365.071C182.89 365.893 182.703 366.629 182.33 367.279C181.967 367.93 181.46 368.442 180.81 368.815C180.159 369.178 179.428 369.359 178.618 369.359ZM178.618 368.351C179.215 368.351 179.748 368.218 180.218 367.951C180.698 367.674 181.071 367.285 181.338 366.783C181.604 366.282 181.738 365.711 181.738 365.071C181.738 364.431 181.604 363.861 181.338 363.359C181.071 362.858 180.698 362.474 180.218 362.207C179.748 361.93 179.215 361.791 178.618 361.791C178.02 361.791 177.482 361.93 177.002 362.207C176.532 362.474 176.159 362.858 175.882 363.359C175.615 363.861 175.482 364.431 175.482 365.071C175.482 365.711 175.615 366.282 175.882 366.783C176.159 367.285 176.532 367.674 177.002 367.951C177.482 368.218 178.02 368.351 178.618 368.351ZM192.793 360.863V369.279H191.705V367.743C191.406 368.255 190.996 368.655 190.473 368.943C189.95 369.221 189.353 369.359 188.681 369.359C187.582 369.359 186.713 369.055 186.073 368.447C185.444 367.829 185.129 366.927 185.129 365.743V360.863H186.265V365.631C186.265 366.517 186.484 367.189 186.921 367.647C187.358 368.106 187.982 368.335 188.793 368.335C189.678 368.335 190.377 368.069 190.889 367.535C191.401 366.991 191.657 366.239 191.657 365.279V360.863H192.793ZM197.063 362.511C197.329 361.946 197.724 361.519 198.247 361.231C198.78 360.943 199.436 360.799 200.215 360.799V361.903L199.943 361.887C199.057 361.887 198.364 362.159 197.863 362.703C197.361 363.247 197.111 364.01 197.111 364.991V369.279H195.975V360.863H197.063V362.511ZM211.688 369.375C210.579 369.375 209.576 369.13 208.68 368.639C207.795 368.149 207.096 367.471 206.584 366.607C206.083 365.733 205.832 364.757 205.832 363.679C205.832 362.602 206.083 361.631 206.584 360.767C207.096 359.893 207.8 359.21 208.696 358.719C209.592 358.229 210.595 357.983 211.704 357.983C212.536 357.983 213.304 358.122 214.008 358.399C214.712 358.677 215.309 359.082 215.8 359.615L215.048 360.367C214.173 359.482 213.069 359.039 211.736 359.039C210.851 359.039 210.045 359.242 209.32 359.647C208.595 360.053 208.024 360.607 207.608 361.311C207.203 362.015 207 362.805 207 363.679C207 364.554 207.203 365.343 207.608 366.047C208.024 366.751 208.595 367.306 209.32 367.711C210.045 368.117 210.851 368.319 211.736 368.319C213.08 368.319 214.184 367.871 215.048 366.975L215.8 367.727C215.309 368.261 214.707 368.671 213.992 368.959C213.288 369.237 212.52 369.375 211.688 369.375ZM225.387 360.863V369.279H224.299V367.743C224 368.255 223.589 368.655 223.067 368.943C222.544 369.221 221.947 369.359 221.275 369.359C220.176 369.359 219.307 369.055 218.667 368.447C218.037 367.829 217.723 366.927 217.723 365.743V360.863H218.859V365.631C218.859 366.517 219.077 367.189 219.515 367.647C219.952 368.106 220.576 368.335 221.387 368.335C222.272 368.335 222.971 368.069 223.483 367.535C223.995 366.991 224.251 366.239 224.251 365.279V360.863H225.387ZM229.656 362.511C229.923 361.946 230.318 361.519 230.84 361.231C231.374 360.943 232.03 360.799 232.808 360.799V361.903L232.536 361.887C231.651 361.887 230.958 362.159 230.456 362.703C229.955 363.247 229.704 364.01 229.704 364.991V369.279H228.568V360.863H229.656V362.511ZM235.953 362.511C236.22 361.946 236.615 361.519 237.137 361.231C237.671 360.943 238.327 360.799 239.105 360.799V361.903L238.833 361.887C237.948 361.887 237.255 362.159 236.753 362.703C236.252 363.247 236.001 364.01 236.001 364.991V369.279H234.865V360.863H235.953V362.511ZM248.412 365.423H241.372C241.436 366.298 241.772 367.007 242.38 367.551C242.988 368.085 243.756 368.351 244.684 368.351C245.207 368.351 245.687 368.261 246.124 368.079C246.561 367.887 246.94 367.61 247.26 367.247L247.9 367.983C247.527 368.431 247.057 368.773 246.492 369.007C245.937 369.242 245.324 369.359 244.652 369.359C243.788 369.359 243.02 369.178 242.348 368.815C241.687 368.442 241.169 367.93 240.796 367.279C240.423 366.629 240.236 365.893 240.236 365.071C240.236 364.25 240.412 363.514 240.764 362.863C241.127 362.213 241.617 361.706 242.236 361.343C242.865 360.981 243.569 360.799 244.348 360.799C245.127 360.799 245.825 360.981 246.444 361.343C247.063 361.706 247.548 362.213 247.9 362.863C248.252 363.503 248.428 364.239 248.428 365.071L248.412 365.423ZM244.348 361.775C243.537 361.775 242.855 362.037 242.3 362.559C241.756 363.071 241.447 363.743 241.372 364.575H247.34C247.265 363.743 246.951 363.071 246.396 362.559C245.852 362.037 245.169 361.775 244.348 361.775ZM255.028 360.799C256.084 360.799 256.922 361.109 257.54 361.727C258.17 362.335 258.484 363.226 258.484 364.399V369.279H257.348V364.511C257.348 363.637 257.13 362.97 256.692 362.511C256.255 362.053 255.631 361.823 254.82 361.823C253.914 361.823 253.194 362.095 252.66 362.639C252.138 363.173 251.876 363.914 251.876 364.863V369.279H250.74V360.863H251.828V362.415C252.138 361.903 252.564 361.509 253.108 361.231C253.663 360.943 254.303 360.799 255.028 360.799ZM266 368.767C265.787 368.959 265.52 369.109 265.2 369.215C264.891 369.311 264.566 369.359 264.224 369.359C263.435 369.359 262.827 369.146 262.4 368.719C261.974 368.293 261.76 367.69 261.76 366.911V361.823H260.256V360.863H261.76V359.023H262.896V360.863H265.456V361.823H262.896V366.847C262.896 367.349 263.019 367.733 263.264 367.999C263.52 368.255 263.883 368.383 264.352 368.383C264.587 368.383 264.811 368.346 265.024 368.271C265.248 368.197 265.44 368.09 265.6 367.951L266 368.767ZM70.1756 378.079H71.3596V388.255H77.6316V389.279H70.1756V378.079ZM82.6724 389.359C81.8618 389.359 81.1311 389.178 80.4804 388.815C79.8298 388.442 79.3178 387.93 78.9444 387.279C78.5711 386.629 78.3844 385.893 78.3844 385.071C78.3844 384.25 78.5711 383.514 78.9444 382.863C79.3178 382.213 79.8298 381.706 80.4804 381.343C81.1311 380.981 81.8618 380.799 82.6724 380.799C83.4831 380.799 84.2138 380.981 84.8644 381.343C85.5151 381.706 86.0218 382.213 86.3844 382.863C86.7578 383.514 86.9444 384.25 86.9444 385.071C86.9444 385.893 86.7578 386.629 86.3844 387.279C86.0218 387.93 85.5151 388.442 84.8644 388.815C84.2138 389.178 83.4831 389.359 82.6724 389.359ZM82.6724 388.351C83.2698 388.351 83.8031 388.218 84.2724 387.951C84.7524 387.674 85.1258 387.285 85.3924 386.783C85.6591 386.282 85.7924 385.711 85.7924 385.071C85.7924 384.431 85.6591 383.861 85.3924 383.359C85.1258 382.858 84.7524 382.474 84.2724 382.207C83.8031 381.93 83.2698 381.791 82.6724 381.791C82.0751 381.791 81.5364 381.93 81.0564 382.207C80.5871 382.474 80.2138 382.858 79.9364 383.359C79.6698 383.861 79.5364 384.431 79.5364 385.071C79.5364 385.711 79.6698 386.282 79.9364 386.783C80.2138 387.285 80.5871 387.674 81.0564 387.951C81.5364 388.218 82.0751 388.351 82.6724 388.351ZM92.7517 389.359C91.9197 389.359 91.173 389.178 90.5117 388.815C89.861 388.453 89.349 387.946 88.9757 387.295C88.6024 386.634 88.4157 385.893 88.4157 385.071C88.4157 384.25 88.6024 383.514 88.9757 382.863C89.349 382.213 89.861 381.706 90.5117 381.343C91.173 380.981 91.9197 380.799 92.7517 380.799C93.477 380.799 94.1224 380.943 94.6877 381.231C95.2637 381.509 95.717 381.919 96.0477 382.463L95.1997 383.039C94.9224 382.623 94.5704 382.314 94.1437 382.111C93.717 381.898 93.253 381.791 92.7517 381.791C92.1437 381.791 91.5944 381.93 91.1037 382.207C90.6237 382.474 90.245 382.858 89.9677 383.359C89.701 383.861 89.5677 384.431 89.5677 385.071C89.5677 385.722 89.701 386.298 89.9677 386.799C90.245 387.29 90.6237 387.674 91.1037 387.951C91.5944 388.218 92.1437 388.351 92.7517 388.351C93.253 388.351 93.717 388.25 94.1437 388.047C94.5704 387.845 94.9224 387.535 95.1997 387.119L96.0477 387.695C95.717 388.239 95.2637 388.655 94.6877 388.943C94.1117 389.221 93.4664 389.359 92.7517 389.359ZM101.223 380.799C102.322 380.799 103.165 381.077 103.751 381.631C104.338 382.175 104.631 382.986 104.631 384.063V389.279H103.543V387.967C103.287 388.405 102.909 388.746 102.407 388.991C101.917 389.237 101.33 389.359 100.647 389.359C99.7086 389.359 98.962 389.135 98.4073 388.687C97.8526 388.239 97.5753 387.647 97.5753 386.911C97.5753 386.197 97.8313 385.621 98.3433 385.183C98.866 384.746 99.6926 384.527 100.823 384.527H103.495V384.015C103.495 383.29 103.293 382.741 102.887 382.367C102.482 381.983 101.89 381.791 101.111 381.791C100.578 381.791 100.066 381.882 99.5753 382.063C99.0846 382.234 98.6633 382.474 98.3113 382.783L97.7993 381.935C98.226 381.573 98.738 381.295 99.3353 381.103C99.9326 380.901 100.562 380.799 101.223 380.799ZM100.823 388.463C101.463 388.463 102.013 388.319 102.471 388.031C102.93 387.733 103.271 387.306 103.495 386.751V385.375H100.855C99.4153 385.375 98.6953 385.877 98.6953 386.879C98.6953 387.37 98.882 387.759 99.2553 388.047C99.6286 388.325 100.151 388.463 100.823 388.463ZM112.149 388.767C111.935 388.959 111.669 389.109 111.349 389.215C111.039 389.311 110.714 389.359 110.373 389.359C109.583 389.359 108.975 389.146 108.549 388.719C108.122 388.293 107.909 387.69 107.909 386.911V381.823H106.405V380.863H107.909V379.023H109.045V380.863H111.605V381.823H109.045V386.847C109.045 387.349 109.167 387.733 109.413 387.999C109.669 388.255 110.031 388.383 110.501 388.383C110.735 388.383 110.959 388.346 111.173 388.271C111.397 388.197 111.589 388.09 111.749 387.951L112.149 388.767ZM114.217 380.863H115.353V389.279H114.217V380.863ZM114.793 379.023C114.558 379.023 114.361 378.943 114.201 378.783C114.041 378.623 113.961 378.431 113.961 378.207C113.961 377.994 114.041 377.807 114.201 377.647C114.361 377.487 114.558 377.407 114.793 377.407C115.027 377.407 115.225 377.487 115.385 377.647C115.545 377.797 115.625 377.978 115.625 378.191C115.625 378.426 115.545 378.623 115.385 378.783C115.225 378.943 115.027 379.023 114.793 379.023ZM121.954 389.359C121.143 389.359 120.412 389.178 119.762 388.815C119.111 388.442 118.599 387.93 118.226 387.279C117.852 386.629 117.666 385.893 117.666 385.071C117.666 384.25 117.852 383.514 118.226 382.863C118.599 382.213 119.111 381.706 119.762 381.343C120.412 380.981 121.143 380.799 121.954 380.799C122.764 380.799 123.495 380.981 124.146 381.343C124.796 381.706 125.303 382.213 125.666 382.863C126.039 383.514 126.226 384.25 126.226 385.071C126.226 385.893 126.039 386.629 125.666 387.279C125.303 387.93 124.796 388.442 124.146 388.815C123.495 389.178 122.764 389.359 121.954 389.359ZM121.954 388.351C122.551 388.351 123.084 388.218 123.554 387.951C124.034 387.674 124.407 387.285 124.674 386.783C124.94 386.282 125.074 385.711 125.074 385.071C125.074 384.431 124.94 383.861 124.674 383.359C124.407 382.858 124.034 382.474 123.554 382.207C123.084 381.93 122.551 381.791 121.954 381.791C121.356 381.791 120.818 381.93 120.338 382.207C119.868 382.474 119.495 382.858 119.218 383.359C118.951 383.861 118.818 384.431 118.818 385.071C118.818 385.711 118.951 386.282 119.218 386.783C119.495 387.285 119.868 387.674 120.338 387.951C120.818 388.218 121.356 388.351 121.954 388.351ZM132.833 380.799C133.889 380.799 134.726 381.109 135.345 381.727C135.974 382.335 136.289 383.226 136.289 384.399V389.279H135.153V384.511C135.153 383.637 134.934 382.97 134.497 382.511C134.06 382.053 133.436 381.823 132.625 381.823C131.718 381.823 130.998 382.095 130.465 382.639C129.942 383.173 129.681 383.914 129.681 384.863V389.279H128.545V380.863H129.633V382.415C129.942 381.903 130.369 381.509 130.913 381.231C131.468 380.943 132.108 380.799 132.833 380.799ZM150.825 386.287H144.585L143.241 389.279H142.009L147.129 378.079H148.297L153.417 389.279H152.169L150.825 386.287ZM150.393 385.327L147.705 379.311L145.017 385.327H150.393ZM159.317 380.799C160.373 380.799 161.211 381.109 161.829 381.727C162.459 382.335 162.773 383.226 162.773 384.399V389.279H161.637V384.511C161.637 383.637 161.419 382.97 160.981 382.511C160.544 382.053 159.92 381.823 159.109 381.823C158.203 381.823 157.483 382.095 156.949 382.639C156.427 383.173 156.165 383.914 156.165 384.863V389.279H155.029V380.863H156.117V382.415C156.427 381.903 156.853 381.509 157.397 381.231C157.952 380.943 158.592 380.799 159.317 380.799ZM173.569 377.407V389.279H172.481V387.615C172.139 388.181 171.686 388.613 171.121 388.911C170.566 389.21 169.937 389.359 169.233 389.359C168.443 389.359 167.729 389.178 167.089 388.815C166.449 388.453 165.947 387.946 165.585 387.295C165.222 386.645 165.041 385.903 165.041 385.071C165.041 384.239 165.222 383.498 165.585 382.847C165.947 382.197 166.449 381.695 167.089 381.343C167.729 380.981 168.443 380.799 169.233 380.799C169.915 380.799 170.529 380.943 171.073 381.231C171.627 381.509 172.081 381.919 172.433 382.463V377.407H173.569ZM169.329 388.351C169.915 388.351 170.443 388.218 170.913 387.951C171.393 387.674 171.766 387.285 172.033 386.783C172.31 386.282 172.449 385.711 172.449 385.071C172.449 384.431 172.31 383.861 172.033 383.359C171.766 382.858 171.393 382.474 170.913 382.207C170.443 381.93 169.915 381.791 169.329 381.791C168.731 381.791 168.193 381.93 167.713 382.207C167.243 382.474 166.87 382.858 166.593 383.359C166.326 383.861 166.193 384.431 166.193 385.071C166.193 385.711 166.326 386.282 166.593 386.783C166.87 387.285 167.243 387.674 167.713 387.951C168.193 388.218 168.731 388.351 169.329 388.351ZM186.056 389.375C184.947 389.375 183.939 389.13 183.032 388.639C182.136 388.138 181.432 387.455 180.92 386.591C180.419 385.727 180.168 384.757 180.168 383.679C180.168 382.602 180.419 381.631 180.92 380.767C181.432 379.903 182.136 379.226 183.032 378.735C183.939 378.234 184.947 377.983 186.056 377.983C187.165 377.983 188.163 378.229 189.048 378.719C189.944 379.21 190.648 379.893 191.16 380.767C191.672 381.631 191.928 382.602 191.928 383.679C191.928 384.757 191.672 385.733 191.16 386.607C190.648 387.471 189.944 388.149 189.048 388.639C188.163 389.13 187.165 389.375 186.056 389.375ZM186.056 388.319C186.941 388.319 187.741 388.122 188.456 387.727C189.171 387.322 189.731 386.767 190.136 386.063C190.541 385.349 190.744 384.554 190.744 383.679C190.744 382.805 190.541 382.015 190.136 381.311C189.731 380.597 189.171 380.042 188.456 379.647C187.741 379.242 186.941 379.039 186.056 379.039C185.171 379.039 184.365 379.242 183.64 379.647C182.925 380.042 182.36 380.597 181.944 381.311C181.539 382.015 181.336 382.805 181.336 383.679C181.336 384.554 181.539 385.349 181.944 386.063C182.36 386.767 182.925 387.322 183.64 387.727C184.365 388.122 185.171 388.319 186.056 388.319ZM198.852 388.767C198.639 388.959 198.372 389.109 198.052 389.215C197.743 389.311 197.417 389.359 197.076 389.359C196.287 389.359 195.679 389.146 195.252 388.719C194.825 388.293 194.612 387.69 194.612 386.911V381.823H193.108V380.863H194.612V379.023H195.748V380.863H198.308V381.823H195.748V386.847C195.748 387.349 195.871 387.733 196.116 387.999C196.372 388.255 196.735 388.383 197.204 388.383C197.439 388.383 197.663 388.346 197.876 388.271C198.1 388.197 198.292 388.09 198.452 387.951L198.852 388.767ZM205.208 380.799C206.264 380.799 207.101 381.109 207.72 381.727C208.349 382.335 208.664 383.226 208.664 384.399V389.279H207.528V384.511C207.528 383.637 207.309 382.97 206.872 382.511C206.435 382.053 205.811 381.823 205 381.823C204.093 381.823 203.373 382.095 202.84 382.639C202.317 383.173 202.056 383.914 202.056 384.863V389.279H200.92V377.407H202.056V382.335C202.365 381.845 202.792 381.466 203.336 381.199C203.88 380.933 204.504 380.799 205.208 380.799ZM219.107 385.423H212.067C212.131 386.298 212.467 387.007 213.075 387.551C213.683 388.085 214.451 388.351 215.379 388.351C215.902 388.351 216.382 388.261 216.819 388.079C217.257 387.887 217.635 387.61 217.955 387.247L218.595 387.983C218.222 388.431 217.753 388.773 217.187 389.007C216.633 389.242 216.019 389.359 215.347 389.359C214.483 389.359 213.715 389.178 213.043 388.815C212.382 388.442 211.865 387.93 211.491 387.279C211.118 386.629 210.931 385.893 210.931 385.071C210.931 384.25 211.107 383.514 211.459 382.863C211.822 382.213 212.313 381.706 212.931 381.343C213.561 380.981 214.265 380.799 215.043 380.799C215.822 380.799 216.521 380.981 217.139 381.343C217.758 381.706 218.243 382.213 218.595 382.863C218.947 383.503 219.123 384.239 219.123 385.071L219.107 385.423ZM215.043 381.775C214.233 381.775 213.55 382.037 212.995 382.559C212.451 383.071 212.142 383.743 212.067 384.575H218.035C217.961 383.743 217.646 383.071 217.091 382.559C216.547 382.037 215.865 381.775 215.043 381.775ZM230.055 378.079C231.484 378.079 232.604 378.421 233.415 379.103C234.226 379.786 234.631 380.725 234.631 381.919C234.631 383.114 234.226 384.053 233.415 384.735C232.604 385.407 231.484 385.743 230.055 385.743H227.047V389.279H225.863V378.079H230.055ZM230.023 384.703C231.132 384.703 231.98 384.463 232.567 383.983C233.154 383.493 233.447 382.805 233.447 381.919C233.447 381.013 233.154 380.319 232.567 379.839C231.98 379.349 231.132 379.103 230.023 379.103H227.047V384.703H230.023ZM237.107 377.407H238.243V389.279H237.107V377.407ZM244.348 380.799C245.447 380.799 246.29 381.077 246.876 381.631C247.463 382.175 247.756 382.986 247.756 384.063V389.279H246.668V387.967C246.412 388.405 246.034 388.746 245.532 388.991C245.042 389.237 244.455 389.359 243.772 389.359C242.834 389.359 242.087 389.135 241.532 388.687C240.978 388.239 240.7 387.647 240.7 386.911C240.7 386.197 240.956 385.621 241.468 385.183C241.991 384.746 242.818 384.527 243.948 384.527H246.62V384.015C246.62 383.29 246.418 382.741 246.012 382.367C245.607 381.983 245.015 381.791 244.236 381.791C243.703 381.791 243.191 381.882 242.7 382.063C242.21 382.234 241.788 382.474 241.436 382.783L240.924 381.935C241.351 381.573 241.863 381.295 242.46 381.103C243.058 380.901 243.687 380.799 244.348 380.799ZM243.948 388.463C244.588 388.463 245.138 388.319 245.596 388.031C246.055 387.733 246.396 387.306 246.62 386.751V385.375H243.98C242.54 385.375 241.82 385.877 241.82 386.879C241.82 387.37 242.007 387.759 242.38 388.047C242.754 388.325 243.276 388.463 243.948 388.463ZM254.361 389.359C253.529 389.359 252.782 389.178 252.121 388.815C251.47 388.453 250.958 387.946 250.585 387.295C250.212 386.634 250.025 385.893 250.025 385.071C250.025 384.25 250.212 383.514 250.585 382.863C250.958 382.213 251.47 381.706 252.121 381.343C252.782 380.981 253.529 380.799 254.361 380.799C255.086 380.799 255.732 380.943 256.297 381.231C256.873 381.509 257.326 381.919 257.657 382.463L256.809 383.039C256.532 382.623 256.18 382.314 255.753 382.111C255.326 381.898 254.862 381.791 254.361 381.791C253.753 381.791 253.204 381.93 252.713 382.207C252.233 382.474 251.854 382.858 251.577 383.359C251.31 383.861 251.177 384.431 251.177 385.071C251.177 385.722 251.31 386.298 251.577 386.799C251.854 387.29 252.233 387.674 252.713 387.951C253.204 388.218 253.753 388.351 254.361 388.351C254.862 388.351 255.326 388.25 255.753 388.047C256.18 387.845 256.532 387.535 256.809 387.119L257.657 387.695C257.326 388.239 256.873 388.655 256.297 388.943C255.721 389.221 255.076 389.359 254.361 389.359ZM267.076 385.423H260.036C260.1 386.298 260.436 387.007 261.044 387.551C261.652 388.085 262.42 388.351 263.348 388.351C263.871 388.351 264.351 388.261 264.788 388.079C265.225 387.887 265.604 387.61 265.924 387.247L266.564 387.983C266.191 388.431 265.721 388.773 265.156 389.007C264.601 389.242 263.988 389.359 263.316 389.359C262.452 389.359 261.684 389.178 261.012 388.815C260.351 388.442 259.833 387.93 259.46 387.279C259.087 386.629 258.9 385.893 258.9 385.071C258.9 384.25 259.076 383.514 259.428 382.863C259.791 382.213 260.281 381.706 260.9 381.343C261.529 380.981 262.233 380.799 263.012 380.799C263.791 380.799 264.489 380.981 265.108 381.343C265.727 381.706 266.212 382.213 266.564 382.863C266.916 383.503 267.092 384.239 267.092 385.071L267.076 385.423ZM263.012 381.775C262.201 381.775 261.519 382.037 260.964 382.559C260.42 383.071 260.111 383.743 260.036 384.575H266.004C265.929 383.743 265.615 383.071 265.06 382.559C264.516 382.037 263.833 381.775 263.012 381.775ZM271.66 389.359C270.978 389.359 270.322 389.263 269.692 389.071C269.074 388.869 268.588 388.618 268.236 388.319L268.748 387.423C269.1 387.701 269.543 387.93 270.076 388.111C270.61 388.282 271.164 388.367 271.74 388.367C272.508 388.367 273.074 388.25 273.436 388.015C273.81 387.77 273.996 387.429 273.996 386.991C273.996 386.682 273.895 386.442 273.692 386.271C273.49 386.09 273.234 385.957 272.924 385.871C272.615 385.775 272.204 385.685 271.692 385.599C271.01 385.471 270.46 385.343 270.044 385.215C269.628 385.077 269.271 384.847 268.972 384.527C268.684 384.207 268.54 383.765 268.54 383.199C268.54 382.495 268.834 381.919 269.42 381.471C270.007 381.023 270.823 380.799 271.868 380.799C272.412 380.799 272.956 380.874 273.5 381.023C274.044 381.162 274.492 381.349 274.844 381.583L274.348 382.495C273.655 382.015 272.828 381.775 271.868 381.775C271.143 381.775 270.594 381.903 270.22 382.159C269.858 382.415 269.676 382.751 269.676 383.167C269.676 383.487 269.778 383.743 269.98 383.935C270.194 384.127 270.455 384.271 270.764 384.367C271.074 384.453 271.5 384.543 272.044 384.639C272.716 384.767 273.255 384.895 273.66 385.023C274.066 385.151 274.412 385.37 274.7 385.679C274.988 385.989 275.132 386.415 275.132 386.959C275.132 387.695 274.823 388.282 274.204 388.719C273.596 389.146 272.748 389.359 271.66 389.359Z" fill="black" fill-opacity="0.75"/>
<g filter="url(#filter1_d)">
<circle cx="172.279" cy="129.559" r="90.5" transform="rotate(-45 172.279 129.559)" stroke="#7E7D7D" stroke-opacity="0.9"/>
</g>
<path d="M197 75.3293L147 75.2793C141.5 75.2793 137 79.7793 137 85.2793V175.279C137 180.779 141.5 185.279 147 185.279H197C202.5 185.279 207 180.779 207 175.279V85.2793C207 79.7793 202.5 75.3293 197 75.3293ZM197 175.279H147V170.279H197V175.279ZM197 160.279H147V100.279H197V160.279ZM197 90.2793H147V85.2793H197V90.2793ZM192 120.529L184.95 113.479L167.25 131.179L160.2 124.129L153.15 131.179L167.25 145.279L192 120.529Z" fill="black"/>
<defs>
<filter id="filter0_d" x="0" y="1.2793" width="345" height="483" filterUnits="userSpaceOnUse" color-interpolation-filters="sRGB">
<feFlood flood-opacity="0" result="BackgroundImageFix"/>
<feColorMatrix in="SourceAlpha" type="matrix" values="0 0 0 0 0 0 0 0 0 0 0 0 0 0 0 0 0 0 127 0"/>
<feOffset dy="4"/>
<feGaussianBlur stdDeviation="2"/>
<feColorMatrix type="matrix" values="0 0 0 0 0 0 0 0 0 0 0 0 0 0 0 0 0 0 0.25 0"/>
<feBlend mode="normal" in2="BackgroundImageFix" result="effect1_dropShadow"/>
<feBlend mode="normal" in="SourceGraphic" in2="effect1_dropShadow" result="shape"/>
</filter>
<filter id="filter1_d" x="39.5859" y="0.865234" width="265.387" height="265.387" filterUnits="userSpaceOnUse" color-interpolation-filters="sRGB">
<feFlood flood-opacity="0" result="BackgroundImageFix"/>
<feColorMatrix in="SourceAlpha" type="matrix" values="0 0 0 0 0 0 0 0 0 0 0 0 0 0 0 0 0 0 127 0"/>
<feOffset dy="4"/>
<feGaussianBlur stdDeviation="2"/>
<feColorMatrix type="matrix" values="0 0 0 0 0 0 0 0 0 0 0 0 0 0 0 0 0 0 0.1 0"/>
<feBlend mode="normal" in2="BackgroundImageFix" result="effect1_dropShadow"/>
<feBlend mode="normal" in="SourceGraphic" in2="effect1_dropShadow" result="shape"/>
</filter>
</defs>
</svg>
